<svg width="41" height="40" viewBox="0 0 41 40" fill="none" xmlns="http://www.w3.org/2000/svg">
<path d="M20.47 39.44C15.41 39.44 10.35 39.44 5.28998 39.44C2.58998 39.44 0.799988 37.65 0.799988 34.96C0.799988 25.75 0.799988 16.54 0.799988 7.33001C0.799988 4.61001 2.58999 2.83001 5.31999 2.83001C6.95999 2.83001 8.59998 2.82001 10.25 2.84001C10.61 2.84001 10.69 2.73001 10.67 2.40001C10.64 2.06001 10.66 1.73001 10.67 1.39001C10.7 0.60001 11.32 1.08788e-05 12.09 0.0100109C12.84 0.0200109 13.45 0.61001 13.48 1.38001C13.49 1.73001 13.51 2.09001 13.48 2.43001C13.45 2.77001 13.57 2.83001 13.89 2.83001C17.09 2.82001 20.28 2.82001 23.48 2.82001C24.73 2.82001 25.97 2.81001 27.22 2.83001C27.51 2.83001 27.6 2.76001 27.58 2.47001C27.55 2.13001 27.57 1.80001 27.58 1.46001C27.59 0.63001 28.19 0.0200109 28.97 0.0100109C29.77 1.08788e-05 30.38 0.63001 30.39 1.48001C30.39 1.80001 30.41 2.13001 30.38 2.45001C30.35 2.76001 30.44 2.84001 30.76 2.84001C32.43 2.82001 34.1 2.83001 35.77 2.83001C38.44 2.83001 40.24 4.62001 40.24 7.29001C40.24 16.51 40.24 25.74 40.24 34.96C40.24 37.66 38.45 39.44 35.75 39.44C30.64 39.44 25.55 39.44 20.47 39.44ZM20.53 14.09C15.03 14.09 9.52998 14.09 4.02998 14.08C3.68998 14.08 3.59999 14.16 3.59999 14.51C3.60999 21.34 3.60999 28.18 3.60999 35.01C3.60999 36.08 4.15999 36.62 5.23999 36.62C15.42 36.62 25.59 36.62 35.77 36.62C36.85 36.62 37.4 36.08 37.4 35C37.4 28.17 37.4 21.33 37.41 14.5C37.41 14.14 37.31 14.08 36.98 14.08C31.5 14.1 26.02 14.09 20.53 14.09ZM20.49 11.28C25.99 11.28 31.49 11.28 36.99 11.29C37.32 11.29 37.43 11.22 37.42 10.87C37.4 9.65001 37.41 8.44001 37.41 7.22001C37.41 6.23001 36.84 5.65001 35.87 5.65001C25.64 5.65001 15.4 5.65001 5.16998 5.65001C4.18998 5.65001 3.62999 6.22001 3.62999 7.21001C3.62999 8.41001 3.64998 9.62001 3.61998 10.82C3.60998 11.21 3.71999 11.29 4.09999 11.29C9.54999 11.27 15.02 11.28 20.49 11.28Z" fill="#F5F4F6"/>
</svg>
