<svg width="40" height="39" viewBox="0 0 40 39" fill="none" xmlns="http://www.w3.org/2000/svg">
<path d="M34.28 0.540039C34.61 0.730039 34.99 0.720038 35.33 0.840038C37.4 1.61004 38.76 3.04004 39.32 5.20004C39.36 5.35004 39.32 5.55004 39.49 5.66004C39.49 16.24 39.49 26.82 39.49 37.41C39.36 37.44 39.35 37.56 39.3 37.65C38.86 38.42 37.99 38.67 37.23 38.22C36.99 38.08 36.77 37.89 36.55 37.71C33.9 35.51 31.26 33.31 28.62 31.1C28.41 30.92 28.21 30.86 27.94 30.86C24.02 30.87 20.11 30.86 16.19 30.86C12.86 30.86 9.52999 30.87 6.18999 30.86C3.49999 30.85 1.23999 29.23 0.379986 26.73C0.159986 26.1 0.0599864 25.45 0.0599864 24.78C0.0599864 18.73 0.0499864 12.68 0.0599864 6.64004C0.0699864 3.72004 1.96999 1.37004 4.79999 0.680038C4.98999 0.630038 5.20999 0.720039 5.35999 0.540039C15.01 0.540039 24.65 0.540039 34.28 0.540039ZM36.46 33.11C36.46 24.41 36.46 15.71 36.46 7.01004C36.46 4.78004 35.25 3.57004 33 3.57004C24.17 3.57004 15.35 3.57004 6.51999 3.57004C4.31999 3.57004 3.09999 4.79004 3.09999 7.00004C3.09999 12.81 3.09999 18.62 3.09999 24.43C3.09999 26.6 4.32999 27.82 6.50999 27.82C13.84 27.82 21.16 27.82 28.49 27.81C29.12 27.81 29.65 27.99 30.13 28.4C32.1 30.06 34.08 31.7 36.06 33.35C36.17 33.44 36.27 33.52 36.46 33.67C36.46 33.42 36.46 33.27 36.46 33.11Z" fill="white"/>
<path d="M19.79 12.6701C16.79 12.6701 13.79 12.6701 10.79 12.6701C9.63001 12.6701 8.88001 11.6501 9.27001 10.6301C9.50001 10.0301 10.04 9.65007 10.74 9.65007C11.99 9.64007 13.24 9.65007 14.48 9.65007C19.17 9.65007 23.86 9.65007 28.55 9.65007C28.77 9.65007 29 9.64007 29.21 9.69007C29.96 9.86007 30.45 10.5501 30.38 11.3001C30.31 12.0701 29.69 12.6601 28.88 12.6701C27.32 12.6901 25.75 12.6801 24.19 12.6801C22.73 12.6701 21.26 12.6701 19.79 12.6701Z" fill="white"/>
<path d="M16.76 15.7001C18.75 15.7001 20.74 15.6901 22.73 15.7001C23.9 15.7101 24.65 16.7901 24.2 17.8101C23.91 18.4501 23.38 18.7301 22.68 18.7301C20.34 18.7201 18.01 18.7301 15.67 18.7301C14.01 18.7301 12.35 18.7401 10.7 18.7201C9.89 18.7101 9.27 18.1301 9.18 17.3701C9.1 16.6101 9.61 15.8901 10.37 15.7301C10.55 15.6901 10.75 15.6901 10.94 15.6901C12.88 15.7001 14.82 15.7001 16.76 15.7001Z" fill="white"/>
</svg>
