<svg width="40" height="40" viewBox="0 0 40 40" fill="none" xmlns="http://www.w3.org/2000/svg">
<path d="M11.6799 30.35C10.5099 30.35 9.54993 29.4 9.54993 28.22V19.71C9.54993 18.54 10.4999 17.58 11.6799 17.58C12.8499 17.58 13.8099 18.53 13.8099 19.71V28.22C13.7999 29.4 12.8499 30.35 11.6799 30.35Z" fill="#F5F4F6"/>
<path d="M20.1699 30.35C18.9999 30.35 18.0399 29.4 18.0399 28.22V11.23C18.0399 10.06 18.9899 9.09998 20.1699 9.09998C21.3399 9.09998 22.2999 10.05 22.2999 11.23V28.22C22.2999 29.4 21.3499 30.35 20.1699 30.35Z" fill="#F5F4F6"/>
<path d="M28.6699 30.35C27.4999 30.35 26.5399 29.4 26.5399 28.22V26.09C26.5399 24.92 27.4899 23.96 28.6699 23.96C29.8399 23.96 30.7999 24.91 30.7999 26.09V28.22C30.7899 29.4 29.8399 30.35 28.6699 30.35Z" fill="#F5F4F6"/>
<path d="M30.87 0.0100098H9.47998C4.49998 0.0100098 0.459961 4.05001 0.459961 9.03001V30.42C0.459961 35.4 4.49998 39.44 9.47998 39.44H30.87C35.85 39.44 39.89 35.4 39.89 30.42V9.03001C39.89 4.05001 35.85 0.0100098 30.87 0.0100098ZM36.8 28.75C36.8 32.95 33.39 36.36 29.19 36.36H11.14C6.93998 36.36 3.52997 32.95 3.52997 28.75V10.7C3.52997 6.50001 6.93998 3.09001 11.14 3.09001H29.19C33.39 3.09001 36.8 6.50001 36.8 10.7V28.75Z" fill="#F5F4F6"/>
</svg>
