<svg width="41" height="40" viewBox="0 0 41 40" fill="none" xmlns="http://www.w3.org/2000/svg">
<path d="M20.4698 39.4301C15.4098 39.4301 10.3498 39.4301 5.28979 39.4301C2.58979 39.4301 0.799805 37.6401 0.799805 34.9501C0.799805 25.7401 0.799805 16.5301 0.799805 7.32012C0.799805 4.60012 2.58981 2.82012 5.31981 2.82012C6.95981 2.82012 8.5998 2.81012 10.2498 2.83012C10.6098 2.83012 10.6898 2.72012 10.6698 2.39012C10.6398 2.05012 10.6598 1.72012 10.6698 1.38012C10.6998 0.590122 11.3198 -0.00987682 12.0898 0.000123183C12.8398 0.0101232 13.4498 0.600122 13.4798 1.37012C13.4898 1.72012 13.5098 2.08012 13.4798 2.42012C13.4498 2.76012 13.5698 2.82012 13.8898 2.82012C17.0898 2.81012 20.2798 2.81012 23.4798 2.81012C24.7298 2.81012 25.9698 2.80012 27.2198 2.82012C27.5098 2.82012 27.5998 2.75012 27.5798 2.46012C27.5498 2.12012 27.5698 1.79012 27.5798 1.45012C27.5898 0.620122 28.1898 0.0101232 28.9698 0.000123183C29.7698 -0.00987682 30.3798 0.620122 30.3898 1.47012C30.3898 1.79012 30.4098 2.12012 30.3798 2.44012C30.3498 2.75012 30.4398 2.83012 30.7598 2.83012C32.4298 2.81012 34.0998 2.82012 35.7698 2.82012C38.4398 2.82012 40.2398 4.61012 40.2398 7.28012C40.2398 16.5001 40.2398 25.7301 40.2398 34.9501C40.2398 37.6501 38.4498 39.4301 35.7498 39.4301C30.6398 39.4301 25.5498 39.4301 20.4698 39.4301ZM20.5298 14.0801C15.0298 14.0801 9.5298 14.0801 4.0298 14.0701C3.6898 14.0701 3.59981 14.1501 3.59981 14.5001C3.60981 21.3301 3.6098 28.1701 3.6098 35.0001C3.6098 36.0701 4.15981 36.6101 5.23981 36.6101C15.4198 36.6101 25.5898 36.6101 35.7698 36.6101C36.8498 36.6101 37.3998 36.0701 37.3998 34.9901C37.3998 28.1601 37.3998 21.3201 37.4098 14.4901C37.4098 14.1301 37.3098 14.0701 36.9798 14.0701C31.4998 14.0901 26.0198 14.0801 20.5298 14.0801ZM20.4898 11.2701C25.9898 11.2701 31.4898 11.2701 36.9898 11.2801C37.3198 11.2801 37.4298 11.2101 37.4198 10.8601C37.3998 9.64012 37.4098 8.43012 37.4098 7.21012C37.4098 6.22012 36.8398 5.64012 35.8698 5.64012C25.6398 5.64012 15.3998 5.64012 5.1698 5.64012C4.1898 5.64012 3.62981 6.21012 3.62981 7.20012C3.62981 8.40012 3.6498 9.61012 3.6198 10.8101C3.6098 11.2001 3.71981 11.2801 4.09981 11.2801C9.54981 11.2601 15.0198 11.2701 20.4898 11.2701Z" fill="#F5F4F6"/>
</svg>
