<svg width="98" height="66" viewBox="0 0 98 66" fill="none" xmlns="http://www.w3.org/2000/svg">
<path d="M46.4698 39.4301C41.4098 39.4301 36.3498 39.4301 31.2898 39.4301C28.5898 39.4301 26.7998 37.6401 26.7998 34.9501C26.7998 25.7401 26.7998 16.5301 26.7998 7.32012C26.7998 4.60012 28.5898 2.82012 31.3198 2.82012C32.9598 2.82012 34.5998 2.81012 36.2498 2.83012C36.6098 2.83012 36.6898 2.72012 36.6698 2.39012C36.6398 2.05012 36.6598 1.72012 36.6698 1.38012C36.6998 0.590122 37.3198 -0.00987682 38.0898 0.000123183C38.8398 0.0101232 39.4498 0.600122 39.4798 1.37012C39.4898 1.72012 39.5098 2.08012 39.4798 2.42012C39.4498 2.76012 39.5698 2.82012 39.8898 2.82012C43.0898 2.81012 46.2798 2.81012 49.4798 2.81012C50.7298 2.81012 51.9698 2.80012 53.2198 2.82012C53.5098 2.82012 53.5998 2.75012 53.5798 2.46012C53.5498 2.12012 53.5698 1.79012 53.5798 1.45012C53.5898 0.620122 54.1898 0.0101232 54.9698 0.000123183C55.7698 -0.00987682 56.3798 0.620122 56.3898 1.47012C56.3898 1.79012 56.4098 2.12012 56.3798 2.44012C56.3498 2.75012 56.4398 2.83012 56.7598 2.83012C58.4298 2.81012 60.0998 2.82012 61.7698 2.82012C64.4398 2.82012 66.2398 4.61012 66.2398 7.28012C66.2398 16.5001 66.2398 25.7301 66.2398 34.9501C66.2398 37.6501 64.4498 39.4301 61.7498 39.4301C56.6398 39.4301 51.5498 39.4301 46.4698 39.4301ZM46.5298 14.0801C41.0298 14.0801 35.5298 14.0801 30.0298 14.0701C29.6898 14.0701 29.5998 14.1501 29.5998 14.5001C29.6098 21.3301 29.6098 28.1701 29.6098 35.0001C29.6098 36.0701 30.1598 36.6101 31.2398 36.6101C41.4198 36.6101 51.5898 36.6101 61.7698 36.6101C62.8498 36.6101 63.3998 36.0701 63.3998 34.9901C63.3998 28.1601 63.3998 21.3201 63.4098 14.4901C63.4098 14.1301 63.3098 14.0701 62.9798 14.0701C57.4998 14.0901 52.0198 14.0801 46.5298 14.0801ZM46.4898 11.2701C51.9898 11.2701 57.4898 11.2701 62.9898 11.2801C63.3198 11.2801 63.4298 11.2101 63.4198 10.8601C63.3998 9.64012 63.4098 8.43012 63.4098 7.21012C63.4098 6.22012 62.8398 5.64012 61.8698 5.64012C51.6398 5.64012 41.3998 5.64012 31.1698 5.64012C30.1898 5.64012 29.6298 6.21012 29.6298 7.20012C29.6298 8.40012 29.6498 9.61012 29.6198 10.8101C29.6098 11.2001 29.7198 11.2801 30.0998 11.2801C35.5498 11.2601 41.0198 11.2701 46.4898 11.2701Z" fill="#F5F4F6"/>
<path d="M6.31777 61.1413C5.51168 61.1413 4.761 61.0103 4.06574 60.7483C3.38056 60.4762 2.78103 60.0984 2.26714 59.6147C1.76333 59.121 1.37036 58.5416 1.08823 57.8766C0.806095 57.2115 0.665029 56.4861 0.665029 55.7001C0.665029 54.9142 0.806095 54.1887 1.08823 53.5237C1.37036 52.8586 1.76837 52.2843 2.28226 51.8006C2.79614 51.3069 3.39568 50.929 4.08086 50.6671C4.76604 50.395 5.51671 50.259 6.33289 50.259C7.19944 50.259 7.99042 50.4101 8.70583 50.7124C9.42124 51.0046 10.0258 51.4429 10.5195 52.0273L9.24994 53.2214C8.86705 52.8082 8.43881 52.5009 7.96523 52.2994C7.49165 52.0878 6.97776 51.982 6.42357 51.982C5.86938 51.982 5.36053 52.0727 4.89703 52.2541C4.4436 52.4354 4.04559 52.6924 3.703 53.0249C3.37049 53.3574 3.10851 53.7504 2.91706 54.2038C2.73569 54.6572 2.645 55.156 2.645 55.7001C2.645 56.2442 2.73569 56.743 2.91706 57.1964C3.10851 57.6499 3.37049 58.0428 3.703 58.3753C4.04559 58.7079 4.4436 58.9648 4.89703 59.1462C5.36053 59.3275 5.86938 59.4182 6.42357 59.4182C6.97776 59.4182 7.49165 59.3175 7.96523 59.1159C8.43881 58.9043 8.86705 58.5869 9.24994 58.1637L10.5195 59.3729C10.0258 59.9472 9.42124 60.3855 8.70583 60.6878C7.99042 60.9901 7.1944 61.1413 6.31777 61.1413ZM12.2208 60.9901V52.9191H14.0194V55.1409L13.8078 54.491C14.0497 53.9469 14.4275 53.5337 14.9414 53.2516C15.4654 52.9695 16.1153 52.8284 16.8912 52.8284V54.627C16.8106 54.6068 16.735 54.5968 16.6644 54.5968C16.5939 54.5867 16.5234 54.5817 16.4528 54.5817C15.7374 54.5817 15.1681 54.7933 14.7449 55.2165C14.3217 55.6296 14.1101 56.2493 14.1101 57.0755V60.9901H12.2208ZM22.0475 61.0959C21.2212 61.0959 20.4857 60.9196 19.8408 60.5669C19.1959 60.2042 18.6871 59.7104 18.3143 59.0857C17.9414 58.461 17.755 57.7506 17.755 56.9546C17.755 56.1485 17.9414 55.4381 18.3143 54.8235C18.6871 54.1988 19.1959 53.7101 19.8408 53.3574C20.4857 53.0047 21.2212 52.8284 22.0475 52.8284C22.8838 52.8284 23.6244 53.0047 24.2693 53.3574C24.9242 53.7101 25.4331 54.1937 25.7958 54.8084C26.1687 55.423 26.3551 56.1384 26.3551 56.9546C26.3551 57.7506 26.1687 58.461 25.7958 59.0857C25.4331 59.7104 24.9242 60.2042 24.2693 60.5669C23.6244 60.9196 22.8838 61.0959 22.0475 61.0959ZM22.0475 59.4787C22.511 59.4787 22.9241 59.3779 23.2869 59.1764C23.6496 58.9749 23.9317 58.6827 24.1333 58.2998C24.3449 57.9169 24.4507 57.4685 24.4507 56.9546C24.4507 56.4306 24.3449 55.9822 24.1333 55.6094C23.9317 55.2265 23.6496 54.9343 23.2869 54.7328C22.9241 54.5313 22.516 54.4305 22.0626 54.4305C21.5991 54.4305 21.186 54.5313 20.8232 54.7328C20.4706 54.9343 20.1884 55.2265 19.9768 55.6094C19.7652 55.9822 19.6594 56.4306 19.6594 56.9546C19.6594 57.4685 19.7652 57.9169 19.9768 58.2998C20.1884 58.6827 20.4706 58.9749 20.8232 59.1764C21.186 59.3779 21.5941 59.4787 22.0475 59.4787ZM32.7413 52.8284C33.3862 52.8284 33.9605 52.9543 34.4644 53.2063C34.9782 53.4582 35.3813 53.8461 35.6735 54.3701C35.9657 54.8839 36.1118 55.549 36.1118 56.3651V60.9901H34.2225V56.607C34.2225 55.8916 34.0512 55.3575 33.7086 55.0049C33.3761 54.6522 32.9076 54.4759 32.303 54.4759C31.8597 54.4759 31.4667 54.5665 31.1241 54.7479C30.7815 54.9293 30.5145 55.2013 30.323 55.5641C30.1417 55.9168 30.051 56.3651 30.051 56.9093V60.9901H28.1617V52.9191H29.9603V55.0955L29.6429 54.4305C29.925 53.9166 30.3331 53.5237 30.8672 53.2516C31.4113 52.9695 32.036 52.8284 32.7413 52.8284ZM42.1507 61.0959C41.3244 61.0959 40.5889 60.9196 39.944 60.5669C39.2991 60.2042 38.7903 59.7104 38.4174 59.0857C38.0446 58.461 37.8582 57.7506 37.8582 56.9546C37.8582 56.1485 38.0446 55.4381 38.4174 54.8235C38.7903 54.1988 39.2991 53.7101 39.944 53.3574C40.5889 53.0047 41.3244 52.8284 42.1507 52.8284C42.987 52.8284 43.7276 53.0047 44.3725 53.3574C45.0274 53.7101 45.5363 54.1937 45.899 54.8084C46.2718 55.423 46.4582 56.1384 46.4582 56.9546C46.4582 57.7506 46.2718 58.461 45.899 59.0857C45.5363 59.7104 45.0274 60.2042 44.3725 60.5669C43.7276 60.9196 42.987 61.0959 42.1507 61.0959ZM42.1507 59.4787C42.6142 59.4787 43.0273 59.3779 43.39 59.1764C43.7528 58.9749 44.0349 58.6827 44.2364 58.2998C44.448 57.9169 44.5538 57.4685 44.5538 56.9546C44.5538 56.4306 44.448 55.9822 44.2364 55.6094C44.0349 55.2265 43.7528 54.9343 43.39 54.7328C43.0273 54.5313 42.6192 54.4305 42.1658 54.4305C41.7023 54.4305 41.2892 54.5313 40.9264 54.7328C40.5738 54.9343 40.2916 55.2265 40.08 55.6094C39.8684 55.9822 39.7626 56.4306 39.7626 56.9546C39.7626 57.4685 39.8684 57.9169 40.08 58.2998C40.2916 58.6827 40.5738 58.9749 40.9264 59.1764C41.2892 59.3779 41.6972 59.4787 42.1507 59.4787ZM51.9225 64.0281C51.1769 64.0281 50.4464 63.9273 49.731 63.7258C49.0256 63.5344 48.4462 63.2522 47.9928 62.8794L48.8392 61.4587C49.1919 61.7509 49.6352 61.9826 50.1693 62.1539C50.7134 62.3353 51.2625 62.426 51.8167 62.426C52.7034 62.426 53.3534 62.2194 53.7665 61.8063C54.1796 61.4032 54.3862 60.7936 54.3862 59.9775V58.5416L54.5373 56.7128L54.4768 54.8839V52.9191H56.2754V59.7659C56.2754 61.2269 55.9026 62.3 55.157 62.9852C54.4114 63.6805 53.3332 64.0281 51.9225 64.0281ZM51.6807 60.6274C50.9149 60.6274 50.2197 60.4662 49.5949 60.1437C48.9803 59.8112 48.4916 59.3527 48.1288 58.7683C47.7762 58.1839 47.5998 57.4987 47.5998 56.7128C47.5998 55.9369 47.7762 55.2568 48.1288 54.6723C48.4916 54.0879 48.9803 53.6345 49.5949 53.3121C50.2197 52.9896 50.9149 52.8284 51.6807 52.8284C52.3659 52.8284 52.9805 52.9644 53.5246 53.2365C54.0688 53.5085 54.502 53.9317 54.8245 54.5061C55.157 55.0804 55.3232 55.816 55.3232 56.7128C55.3232 57.6096 55.157 58.3502 54.8245 58.9346C54.502 59.5089 54.0688 59.9372 53.5246 60.2193C52.9805 60.4913 52.3659 60.6274 51.6807 60.6274ZM51.9679 59.0253C52.4415 59.0253 52.8647 58.9295 53.2375 58.7381C53.6103 58.5366 53.8975 58.2645 54.099 57.9219C54.3106 57.5692 54.4164 57.1662 54.4164 56.7128C54.4164 56.2593 54.3106 55.8613 54.099 55.5187C53.8975 55.1661 53.6103 54.8991 53.2375 54.7177C52.8647 54.5262 52.4415 54.4305 51.9679 54.4305C51.4943 54.4305 51.0661 54.5262 50.6832 54.7177C50.3103 54.8991 50.0181 55.1661 49.8065 55.5187C49.605 55.8613 49.5042 56.2593 49.5042 56.7128C49.5042 57.1662 49.605 57.5692 49.8065 57.9219C50.0181 58.2645 50.3103 58.5366 50.6832 58.7381C51.0661 58.9295 51.4943 59.0253 51.9679 59.0253ZM58.7593 60.9901V52.9191H60.5579V55.1409L60.3463 54.491C60.5881 53.9469 60.966 53.5337 61.4798 53.2516C62.0038 52.9695 62.6537 52.8284 63.4296 52.8284V54.627C63.349 54.6068 63.2734 54.5968 63.2029 54.5968C63.1323 54.5867 63.0618 54.5817 62.9913 54.5817C62.2759 54.5817 61.7066 54.7933 61.2834 55.2165C60.8602 55.6296 60.6486 56.2493 60.6486 57.0755V60.9901H58.7593ZM69.4292 60.9901V59.3578L69.3234 59.0101V56.1535C69.3234 55.5993 69.1572 55.1711 68.8247 54.8688C68.4922 54.5565 67.9884 54.4003 67.3132 54.4003C66.8598 54.4003 66.4114 54.4708 65.9681 54.6119C65.5348 54.7529 65.167 54.9494 64.8647 55.2013L64.1241 53.8259C64.5574 53.4934 65.0713 53.2466 65.6658 53.0853C66.2704 52.914 66.8951 52.8284 67.54 52.8284C68.7088 52.8284 69.6106 53.1105 70.2454 53.6748C70.8903 54.229 71.2127 55.0905 71.2127 56.2593V60.9901H69.4292ZM66.89 61.0959C66.2855 61.0959 65.7565 60.9952 65.303 60.7936C64.8496 60.582 64.497 60.2949 64.245 59.9321C64.0032 59.5593 63.8823 59.1411 63.8823 58.6776C63.8823 58.2242 63.9881 57.8161 64.1997 57.4534C64.4214 57.0906 64.7791 56.8035 65.2728 56.5919C65.7666 56.3803 66.4215 56.2745 67.2377 56.2745H69.5804V57.5289H67.3737C66.7288 57.5289 66.2956 57.6347 66.0739 57.8463C65.8522 58.0479 65.7414 58.2998 65.7414 58.6021C65.7414 58.9446 65.8774 59.2167 66.1494 59.4182C66.4215 59.6198 66.7994 59.7205 67.283 59.7205C67.7465 59.7205 68.1596 59.6147 68.5224 59.4031C68.8952 59.1915 69.1622 58.8792 69.3234 58.466L69.6408 59.5996C69.4595 60.0732 69.132 60.441 68.6584 60.7029C68.1949 60.9649 67.6055 61.0959 66.89 61.0959ZM83.8244 52.8284C84.4693 52.8284 85.0386 52.9543 85.5323 53.2063C86.0362 53.4582 86.4291 53.8461 86.7113 54.3701C86.9934 54.8839 87.1345 55.549 87.1345 56.3651V60.9901H85.2452V56.607C85.2452 55.8916 85.089 55.3575 84.7766 55.0049C84.4643 54.6522 84.0159 54.4759 83.4315 54.4759C83.0183 54.4759 82.6505 54.5665 82.3281 54.7479C82.0158 54.9293 81.7689 55.1963 81.5875 55.549C81.4162 55.9016 81.3306 56.35 81.3306 56.8941V60.9901H79.4413V56.607C79.4413 55.8916 79.2851 55.3575 78.9727 55.0049C78.6604 54.6522 78.212 54.4759 77.6276 54.4759C77.2144 54.4759 76.8467 54.5665 76.5242 54.7479C76.2119 54.9293 75.965 55.1963 75.7836 55.549C75.6123 55.9016 75.5267 56.35 75.5267 56.8941V60.9901H73.6374V52.9191H75.436V55.0653L75.1186 54.4305C75.3907 53.9065 75.7836 53.5085 76.2975 53.2365C76.8215 52.9644 77.416 52.8284 78.081 52.8284C78.8367 52.8284 79.4917 53.0148 80.0459 53.3876C80.6101 53.7604 80.9829 54.3247 81.1643 55.0804L80.4237 54.8235C80.6857 54.2189 81.119 53.7353 81.7235 53.3725C82.3281 53.0098 83.0284 52.8284 83.8244 52.8284ZM94.5213 60.9901V59.3578L94.4155 59.0101V56.1535C94.4155 55.5993 94.2493 55.1711 93.9167 54.8688C93.5842 54.5565 93.0804 54.4003 92.4053 54.4003C91.9519 54.4003 91.5035 54.4708 91.0601 54.6119C90.6269 54.7529 90.2591 54.9494 89.9568 55.2013L89.2162 53.8259C89.6495 53.4934 90.1634 53.2466 90.7579 53.0853C91.3624 52.914 91.9872 52.8284 92.632 52.8284C93.8009 52.8284 94.7027 53.1105 95.3375 53.6748C95.9824 54.229 96.3048 55.0905 96.3048 56.2593V60.9901H94.5213ZM91.9821 61.0959C91.3775 61.0959 90.8485 60.9952 90.3951 60.7936C89.9417 60.582 89.589 60.2949 89.3371 59.9321C89.0953 59.5593 88.9744 59.1411 88.9744 58.6776C88.9744 58.2242 89.0802 57.8161 89.2918 57.4534C89.5135 57.0906 89.8712 56.8035 90.3649 56.5919C90.8586 56.3803 91.5136 56.2745 92.3297 56.2745H94.6725V57.5289H92.4658C91.8209 57.5289 91.3876 57.6347 91.1659 57.8463C90.9443 58.0479 90.8334 58.2998 90.8334 58.6021C90.8334 58.9446 90.9695 59.2167 91.2415 59.4182C91.5136 59.6198 91.8914 59.7205 92.3751 59.7205C92.8386 59.7205 93.2517 59.6147 93.6145 59.4031C93.9873 59.1915 94.2543 58.8792 94.4155 58.466L94.7329 59.5996C94.5515 60.0732 94.2241 60.441 93.7505 60.7029C93.287 60.9649 92.6975 61.0959 91.9821 61.0959Z" fill="white"/>
</svg>
