<svg width="40" height="62" viewBox="0 0 40 62" fill="none" xmlns="http://www.w3.org/2000/svg">
<path d="M34.2244 0C34.5544 0.19 34.9344 0.179999 35.2744 0.299999C37.3444 1.07 38.7044 2.5 39.2644 4.66C39.3044 4.81 39.2644 5.01 39.4344 5.12C39.4344 15.7 39.4344 26.28 39.4344 36.87C39.3044 36.9 39.2944 37.02 39.2444 37.11C38.8044 37.88 37.9344 38.13 37.1744 37.68C36.9344 37.54 36.7144 37.35 36.4944 37.17C33.8444 34.97 31.2044 32.77 28.5644 30.56C28.3544 30.38 28.1544 30.32 27.8844 30.32C23.9644 30.33 20.0544 30.32 16.1344 30.32C12.8044 30.32 9.47444 30.33 6.13444 30.32C3.44444 30.31 1.18444 28.69 0.324444 26.19C0.104444 25.56 0.00444444 24.91 0.00444444 24.24C0.00444444 18.19 -0.00555556 12.14 0.00444444 6.1C0.0144444 3.18 1.91444 0.829999 4.74444 0.139999C4.93444 0.0899994 5.15445 0.18 5.30445 0C14.9544 0 24.5944 0 34.2244 0ZM36.4044 32.57C36.4044 23.87 36.4044 15.17 36.4044 6.47C36.4044 4.24 35.1944 3.03 32.9444 3.03C24.1144 3.03 15.2944 3.03 6.46445 3.03C4.26445 3.03 3.04444 4.25 3.04444 6.46C3.04444 12.27 3.04444 18.08 3.04444 23.89C3.04444 26.06 4.27444 27.28 6.45444 27.28C13.7844 27.28 21.1044 27.28 28.4344 27.27C29.0644 27.27 29.5944 27.45 30.0744 27.86C32.0444 29.52 34.0244 31.16 36.0044 32.81C36.1144 32.9 36.2144 32.98 36.4044 33.13C36.4044 32.88 36.4044 32.73 36.4044 32.57Z" fill="#F5F4F6"/>
<path d="M19.7344 12.13C16.7344 12.13 13.7344 12.13 10.7344 12.13C9.57441 12.13 8.82441 11.11 9.21441 10.09C9.44441 9.49 9.98441 9.11 10.6844 9.11C11.9344 9.1 13.1844 9.11 14.4244 9.11C19.1144 9.11 23.8044 9.11 28.4944 9.11C28.7144 9.11 28.9444 9.1 29.1544 9.15C29.9044 9.32 30.3944 10.01 30.3244 10.76C30.2544 11.53 29.6344 12.12 28.8244 12.13C27.2644 12.15 25.6944 12.14 24.1344 12.14C22.6744 12.13 21.2044 12.13 19.7344 12.13Z" fill="#F5F4F6"/>
<path d="M16.7045 15.16C18.6945 15.16 20.6845 15.15 22.6745 15.16C23.8445 15.17 24.5945 16.25 24.1445 17.27C23.8545 17.91 23.3245 18.19 22.6245 18.19C20.2845 18.18 17.9545 18.19 15.6145 18.19C13.9545 18.19 12.2945 18.2 10.6445 18.18C9.83446 18.17 9.21446 17.59 9.12446 16.83C9.04446 16.07 9.55445 15.35 10.3145 15.19C10.4945 15.15 10.6945 15.15 10.8845 15.15C12.8245 15.16 14.7645 15.16 16.7045 15.16Z" fill="#F5F4F6"/>
<path d="M8.26211 57.1511C7.45601 57.1511 6.70534 57.0202 6.01008 56.7582C5.3249 56.4861 4.72536 56.1083 4.21148 55.6246C3.70767 55.1309 3.3147 54.5515 3.03256 53.8865C2.75043 53.2214 2.60936 52.4959 2.60936 51.71C2.60936 50.9241 2.75043 50.1986 3.03256 49.5335C3.3147 48.8685 3.71271 48.2942 4.22659 47.8105C4.74048 47.3168 5.34001 46.9389 6.02519 46.6769C6.71037 46.4049 7.46105 46.2689 8.27722 46.2689C9.14377 46.2689 9.93476 46.42 10.6502 46.7223C11.3656 47.0145 11.9701 47.4528 12.4639 48.0372L11.1943 49.2313C10.8114 48.8181 10.3831 48.5108 9.90957 48.3093C9.43598 48.0977 8.9221 47.9919 8.36791 47.9919C7.81372 47.9919 7.30487 48.0826 6.84136 48.2639C6.38794 48.4453 5.98993 48.7023 5.64734 49.0348C5.31482 49.3673 5.05284 49.7603 4.86139 50.2137C4.68002 50.6671 4.58934 51.1659 4.58934 51.71C4.58934 52.2541 4.68002 52.7529 4.86139 53.2063C5.05284 53.6597 5.31482 54.0527 5.64734 54.3852C5.98993 54.7177 6.38794 54.9747 6.84136 55.1561C7.30487 55.3374 7.81372 55.4281 8.36791 55.4281C8.9221 55.4281 9.43598 55.3274 9.90957 55.1258C10.3831 54.9142 10.8114 54.5968 11.1943 54.1736L12.4639 55.3828C11.9701 55.9571 11.3656 56.3954 10.6502 56.6977C9.93476 57 9.13874 57.1511 8.26211 57.1511ZM18.7448 48.8383C19.3897 48.8383 19.964 48.9642 20.4678 49.2161C20.9817 49.468 21.3848 49.856 21.677 50.3799C21.9692 50.8938 22.1153 51.5589 22.1153 52.375V57H20.226V52.6169C20.226 51.9014 20.0547 51.3674 19.7121 51.0147C19.3796 50.6621 18.9111 50.4857 18.3065 50.4857C17.8631 50.4857 17.4702 50.5764 17.1276 50.7578C16.785 50.9392 16.518 51.2112 16.3265 51.574C16.1452 51.9266 16.0545 52.375 16.0545 52.9191V57H14.1652V45.7852H16.0545V51.1054L15.6464 50.4404C15.9285 49.9265 16.3366 49.5335 16.8706 49.2615C17.4148 48.9794 18.0395 48.8383 18.7448 48.8383ZM29.4846 57V55.3677L29.3788 55.02V52.1634C29.3788 51.6092 29.2125 51.181 28.88 50.8787C28.5475 50.5664 28.0437 50.4102 27.3686 50.4102C26.9151 50.4102 26.4668 50.4807 26.0234 50.6218C25.5901 50.7628 25.2223 50.9593 24.9201 51.2112L24.1795 49.8358C24.6127 49.5033 25.1266 49.2564 25.7211 49.0952C26.3257 48.9239 26.9504 48.8383 27.5953 48.8383C28.7641 48.8383 29.6659 49.1204 30.3007 49.6847C30.9456 50.2389 31.2681 51.1004 31.2681 52.2692V57H29.4846ZM26.9454 57.1058C26.3408 57.1058 25.8118 57.005 25.3584 56.8035C24.9049 56.5919 24.5523 56.3047 24.3004 55.942C24.0585 55.5692 23.9376 55.151 23.9376 54.6875C23.9376 54.2341 24.0434 53.826 24.255 53.4633C24.4767 53.1005 24.8344 52.8133 25.3281 52.6017C25.8219 52.3901 26.4768 52.2843 27.293 52.2843H29.6357V53.5388H27.429C26.7842 53.5388 26.3509 53.6446 26.1292 53.8562C25.9075 54.0578 25.7967 54.3097 25.7967 54.6119C25.7967 54.9545 25.9327 55.2266 26.2048 55.4281C26.4768 55.6296 26.8547 55.7304 27.3383 55.7304C27.8019 55.7304 28.215 55.6246 28.5777 55.413C28.9505 55.2014 29.2176 54.889 29.3788 54.4759L29.6962 55.6095C29.5148 56.0831 29.1873 56.4508 28.7137 56.7128C28.2502 56.9748 27.6608 57.1058 26.9454 57.1058ZM36.7307 57.1058C35.844 57.1058 35.1588 56.8791 34.6752 56.4257C34.1915 55.9622 33.9497 55.282 33.9497 54.3852V47.1455H35.839V54.3399C35.839 54.7228 35.9347 55.02 36.1261 55.2316C36.3276 55.4432 36.6047 55.549 36.9574 55.549C37.3806 55.549 37.7333 55.4382 38.0154 55.2165L38.5444 56.5617C38.3227 56.7431 38.0507 56.8791 37.7282 56.9698C37.4058 57.0605 37.0733 57.1058 36.7307 57.1058ZM32.6196 50.5009V48.9894H38.0003V50.5009H32.6196Z" fill="#F5F4F6"/>
</svg>
