<svg width="40" height="38" viewBox="0 0 40 38" fill="none" xmlns="http://www.w3.org/2000/svg">
<path d="M34.2244 0C34.5544 0.19 34.9344 0.179999 35.2744 0.299999C37.3444 1.07 38.7044 2.5 39.2644 4.66C39.3044 4.81 39.2644 5.01 39.4344 5.12C39.4344 15.7 39.4344 26.28 39.4344 36.87C39.3044 36.9 39.2944 37.02 39.2444 37.11C38.8044 37.88 37.9344 38.13 37.1744 37.68C36.9344 37.54 36.7144 37.35 36.4944 37.17C33.8444 34.97 31.2044 32.77 28.5644 30.56C28.3544 30.38 28.1544 30.32 27.8844 30.32C23.9644 30.33 20.0544 30.32 16.1344 30.32C12.8044 30.32 9.47444 30.33 6.13444 30.32C3.44444 30.31 1.18444 28.69 0.324444 26.19C0.104444 25.56 0.00444444 24.91 0.00444444 24.24C0.00444444 18.19 -0.00555556 12.14 0.00444444 6.1C0.0144444 3.18 1.91444 0.829999 4.74444 0.139999C4.93444 0.0899994 5.15445 0.18 5.30445 0C14.9544 0 24.5944 0 34.2244 0ZM36.4044 32.57C36.4044 23.87 36.4044 15.17 36.4044 6.47C36.4044 4.24 35.1944 3.03 32.9444 3.03C24.1144 3.03 15.2944 3.03 6.46445 3.03C4.26445 3.03 3.04444 4.25 3.04444 6.46C3.04444 12.27 3.04444 18.08 3.04444 23.89C3.04444 26.06 4.27444 27.28 6.45444 27.28C13.7844 27.28 21.1044 27.28 28.4344 27.27C29.0644 27.27 29.5944 27.45 30.0744 27.86C32.0444 29.52 34.0244 31.16 36.0044 32.81C36.1144 32.9 36.2144 32.98 36.4044 33.13C36.4044 32.88 36.4044 32.73 36.4044 32.57Z" fill="#F5F4F6"/>
<path d="M19.7344 12.13C16.7344 12.13 13.7344 12.13 10.7344 12.13C9.57441 12.13 8.82441 11.11 9.21441 10.09C9.44441 9.49 9.98441 9.11 10.6844 9.11C11.9344 9.1 13.1844 9.11 14.4244 9.11C19.1144 9.11 23.8044 9.11 28.4944 9.11C28.7144 9.11 28.9444 9.1 29.1544 9.15C29.9044 9.32 30.3944 10.01 30.3244 10.76C30.2544 11.53 29.6344 12.12 28.8244 12.13C27.2644 12.15 25.6944 12.14 24.1344 12.14C22.6744 12.13 21.2044 12.13 19.7344 12.13Z" fill="#F5F4F6"/>
<path d="M16.7045 15.16C18.6945 15.16 20.6845 15.15 22.6745 15.16C23.8445 15.17 24.5945 16.25 24.1445 17.27C23.8545 17.91 23.3245 18.19 22.6245 18.19C20.2845 18.18 17.9545 18.19 15.6145 18.19C13.9545 18.19 12.2945 18.2 10.6445 18.18C9.83446 18.17 9.21446 17.59 9.12446 16.83C9.04446 16.07 9.55445 15.35 10.3145 15.19C10.4945 15.15 10.6945 15.15 10.8845 15.15C12.8245 15.16 14.7645 15.16 16.7045 15.16Z" fill="#F5F4F6"/>
</svg>
