<svg width="58" height="66" viewBox="0 0 58 66" fill="none" xmlns="http://www.w3.org/2000/svg">
<path d="M29.7397 0.0100002C30.2797 0.2 30.8597 0.220001 31.4097 0.380001C34.4697 1.31 36.6297 3.25 37.8697 6.19C38.3797 7.39 38.5797 8.66 38.5797 9.97C38.5697 16.71 38.5797 23.46 38.5797 30.2C38.5797 31.26 37.9297 31.94 36.9697 31.88C36.2597 31.84 35.6597 31.26 35.5998 30.54C35.5898 30.36 35.5897 30.19 35.5897 30.01C35.5897 23.35 35.5997 16.7 35.5797 10.04C35.5697 7.08 34.2198 4.9 31.5398 3.61C27.8698 1.85 23.2498 4.02 22.1998 7.96C22.0198 8.63 21.9397 9.3 21.9397 9.99C21.9397 17.19 21.9397 24.39 21.9397 31.59C21.9397 33.7 23.2297 35.39 25.1597 35.83C27.6997 36.41 30.0998 34.6 30.2598 31.97C30.2698 31.86 30.2697 31.74 30.2697 31.63C30.2697 25.36 30.2697 19.08 30.2697 12.81C30.2697 11.96 29.9197 11.41 29.2397 11.18C28.3897 10.89 27.4997 11.39 27.3097 12.26C27.2597 12.47 27.2598 12.69 27.2598 12.9C27.2598 18.27 27.2598 23.65 27.2598 29.02C27.2598 29.96 26.8097 30.55 25.9897 30.69C25.1697 30.83 24.3697 30.23 24.2797 29.41C24.2697 29.27 24.2598 29.13 24.2598 28.99C24.2598 23.58 24.2598 18.16 24.2598 12.75C24.2598 10.65 25.3897 9 27.2797 8.33C30.0997 7.32 33.1697 9.38 33.2497 12.37C33.2997 14.14 33.2697 15.92 33.2697 17.69C33.2697 22.48 33.2997 27.27 33.2497 32.06C33.2197 35.15 30.9798 37.89 27.9798 38.68C23.7998 39.79 19.6197 37.03 19.0197 32.76C18.9597 32.36 18.9498 31.95 18.9498 31.55C18.9498 24.38 18.9398 17.2 18.9498 10.03C18.9598 6.16 20.6598 3.23 23.9798 1.26C24.9598 0.67 26.0397 0.309999 27.1797 0.139999C27.3297 0.119999 27.5097 0.15 27.6197 0C28.3197 0.01 29.0297 0.0100002 29.7397 0.0100002Z" fill="#F5F4F6"/>
<path d="M0.924429 60.51L5.68543 49.93H7.62006L12.3962 60.51H10.3406L6.24466 50.9729H7.0306L2.94974 60.51H0.924429ZM3.116 58.0615L3.645 56.5198H9.3582L9.8872 58.0615H3.116ZM18.14 52.3483C18.7848 52.3483 19.3592 52.4742 19.863 52.7262C20.3769 52.9781 20.7799 53.366 21.0721 53.89C21.3643 54.4038 21.5104 55.0689 21.5104 55.885V60.51H19.6212V56.1269C19.6212 55.4115 19.4499 54.8774 19.1073 54.5248C18.7748 54.1721 18.3062 53.9958 17.7016 53.9958C17.2583 53.9958 16.8653 54.0864 16.5227 54.2678C16.1801 54.4492 15.9131 54.7212 15.7217 55.084C15.5403 55.4366 15.4496 55.885 15.4496 56.4292V60.51H13.5603V52.439H15.3589V54.6154L15.0415 53.9504C15.3237 53.4365 15.7317 53.0436 16.2658 52.7715C16.8099 52.4894 17.4346 52.3483 18.14 52.3483ZM27.7156 60.6158C26.8188 60.6158 26.0328 60.4395 25.3577 60.0868C24.6927 59.7241 24.1738 59.2303 23.801 58.6056C23.4382 57.9809 23.2568 57.2705 23.2568 56.4745C23.2568 55.6684 23.4332 54.958 23.7858 54.3434C24.1486 53.7187 24.6423 53.23 25.267 52.8773C25.9018 52.5246 26.6223 52.3483 27.4284 52.3483C28.2143 52.3483 28.9146 52.5196 29.5293 52.8622C30.1439 53.2048 30.6276 53.6884 30.9803 54.3132C31.3329 54.9379 31.5093 55.6734 31.5093 56.5198C31.5093 56.6004 31.5042 56.6911 31.4941 56.7919C31.4941 56.8927 31.4891 56.9884 31.479 57.0791H24.7532V55.8246H30.4815L29.7409 56.2176C29.751 55.754 29.6552 55.346 29.4537 54.9933C29.2522 54.6406 28.9751 54.3635 28.6224 54.162C28.2798 53.9605 27.8818 53.8597 27.4284 53.8597C26.9649 53.8597 26.5568 53.9605 26.2041 54.162C25.8615 54.3635 25.5895 54.6457 25.388 55.0084C25.1965 55.3611 25.1008 55.7792 25.1008 56.2629V56.5652C25.1008 57.0488 25.2116 57.4771 25.4333 57.8499C25.655 58.2227 25.9673 58.5099 26.3704 58.7114C26.7734 58.9129 27.2369 59.0137 27.7609 59.0137C28.2143 59.0137 28.6224 58.9432 28.9852 58.8021C29.3479 58.661 29.6703 58.4394 29.9525 58.1371L30.9651 59.3009C30.6024 59.7241 30.1439 60.0515 29.5897 60.2833C29.0456 60.505 28.4209 60.6158 27.7156 60.6158ZM31.9993 60.51L35.5511 55.885L35.5209 56.8977L32.1353 52.439H34.2362L36.6091 55.613H35.8081L38.1961 52.439H40.2366L36.8207 56.8977L36.8359 55.885L40.3726 60.51H38.2415L35.7476 57.1395L36.5336 57.2453L34.0851 60.51H31.9993ZM45.1285 60.6158C44.3023 60.6158 43.5667 60.4395 42.9218 60.0868C42.277 59.7241 41.7681 59.2303 41.3953 58.6056C41.0225 57.9809 40.8361 57.2705 40.8361 56.4745C40.8361 55.6684 41.0225 54.958 41.3953 54.3434C41.7681 53.7187 42.277 53.23 42.9218 52.8773C43.5667 52.5246 44.3023 52.3483 45.1285 52.3483C45.9648 52.3483 46.7054 52.5246 47.3503 52.8773C48.0053 53.23 48.5141 53.7136 48.8769 54.3283C49.2497 54.9429 49.4361 55.6583 49.4361 56.4745C49.4361 57.2705 49.2497 57.9809 48.8769 58.6056C48.5141 59.2303 48.0053 59.7241 47.3503 60.0868C46.7054 60.4395 45.9648 60.6158 45.1285 60.6158ZM45.1285 58.9986C45.592 58.9986 46.0051 58.8978 46.3679 58.6963C46.7306 58.4948 47.0128 58.2026 47.2143 57.8197C47.4259 57.4368 47.5317 56.9884 47.5317 56.4745C47.5317 55.9505 47.4259 55.5021 47.2143 55.1293C47.0128 54.7464 46.7306 54.4542 46.3679 54.2527C46.0051 54.0512 45.5971 53.9504 45.1436 53.9504C44.6801 53.9504 44.267 54.0512 43.9043 54.2527C43.5516 54.4542 43.2695 54.7464 43.0579 55.1293C42.8463 55.5021 42.7405 55.9505 42.7405 56.4745C42.7405 56.9884 42.8463 57.4368 43.0579 57.8197C43.2695 58.2026 43.5516 58.4948 43.9043 58.6963C44.267 58.8978 44.6751 58.9986 45.1285 58.9986ZM53.7366 60.6158C53.0615 60.6158 52.4116 60.5302 51.7868 60.3589C51.1722 60.1775 50.6835 59.9609 50.3207 59.709L51.0462 58.2731C51.409 58.5048 51.8423 58.6963 52.3461 58.8474C52.8499 58.9986 53.3537 59.0742 53.8575 59.0742C54.452 59.0742 54.8802 58.9935 55.1422 58.8323C55.4143 58.6711 55.5503 58.4545 55.5503 58.1824C55.5503 57.9607 55.4596 57.7945 55.2782 57.6836C55.0969 57.5627 54.8601 57.472 54.5679 57.4116C54.2757 57.3511 53.9482 57.2957 53.5854 57.2453C53.2328 57.1949 52.8751 57.1294 52.5123 57.0488C52.1597 56.9582 51.8372 56.8322 51.545 56.671C51.2528 56.4997 51.016 56.273 50.8346 55.9908C50.6533 55.7087 50.5626 55.3359 50.5626 54.8724C50.5626 54.3585 50.7087 53.9151 51.0009 53.5423C51.2931 53.1594 51.7012 52.8672 52.2251 52.6657C52.7592 52.4541 53.3889 52.3483 54.1144 52.3483C54.6585 52.3483 55.2077 52.4088 55.7619 52.5297C56.3161 52.6506 56.7745 52.8219 57.1373 53.0436L56.4118 54.4794C56.0289 54.2477 55.641 54.0915 55.248 54.0109C54.8651 53.9202 54.4822 53.8748 54.0993 53.8748C53.525 53.8748 53.0967 53.9605 52.8146 54.1318C52.5425 54.3031 52.4065 54.5197 52.4065 54.7817C52.4065 55.0235 52.4972 55.2049 52.6786 55.3258C52.8599 55.4467 53.0967 55.5424 53.3889 55.613C53.6812 55.6835 54.0036 55.744 54.3563 55.7944C54.719 55.8347 55.0767 55.9002 55.4294 55.9908C55.782 56.0815 56.1045 56.2075 56.3967 56.3687C56.699 56.5198 56.9408 56.7365 57.1222 57.0186C57.3035 57.3007 57.3942 57.6685 57.3942 58.122C57.3942 58.6258 57.2431 59.0641 56.9408 59.4369C56.6486 59.8097 56.2304 60.1019 55.6863 60.3135C55.1422 60.515 54.4923 60.6158 53.7366 60.6158Z" fill="white"/>
</svg>
