<svg width="21" height="39" viewBox="0 0 21 39" fill="none" xmlns="http://www.w3.org/2000/svg">
<path d="M11.7397 0.0100002C12.2797 0.2 12.8597 0.220001 13.4097 0.380001C16.4697 1.31 18.6297 3.25 19.8697 6.19C20.3797 7.39 20.5797 8.66 20.5797 9.97C20.5697 16.71 20.5797 23.46 20.5797 30.2C20.5797 31.26 19.9297 31.94 18.9697 31.88C18.2597 31.84 17.6597 31.26 17.5998 30.54C17.5898 30.36 17.5897 30.19 17.5897 30.01C17.5897 23.35 17.5997 16.7 17.5797 10.04C17.5697 7.08 16.2198 4.9 13.5398 3.61C9.86975 1.85 5.24976 4.02 4.19976 7.96C4.01976 8.63 3.93975 9.3 3.93975 9.99C3.93975 17.19 3.93975 24.39 3.93975 31.59C3.93975 33.7 5.22975 35.39 7.15975 35.83C9.69975 36.41 12.0998 34.6 12.2598 31.97C12.2698 31.86 12.2697 31.74 12.2697 31.63C12.2697 25.36 12.2697 19.08 12.2697 12.81C12.2697 11.96 11.9197 11.41 11.2397 11.18C10.3897 10.89 9.49974 11.39 9.30974 12.26C9.25974 12.47 9.25975 12.69 9.25975 12.9C9.25975 18.27 9.25975 23.65 9.25975 29.02C9.25975 29.96 8.80974 30.55 7.98974 30.69C7.16973 30.83 6.36974 30.23 6.27974 29.41C6.26974 29.27 6.25975 29.13 6.25975 28.99C6.25975 23.58 6.25975 18.16 6.25975 12.75C6.25975 10.65 7.38974 9 9.27974 8.33C12.0997 7.32 15.1697 9.38 15.2497 12.37C15.2997 14.14 15.2697 15.92 15.2697 17.69C15.2697 22.48 15.2997 27.27 15.2497 32.06C15.2197 35.15 12.9798 37.89 9.97976 38.68C5.79976 39.79 1.61973 37.03 1.01973 32.76C0.959734 32.36 0.949757 31.95 0.949757 31.55C0.949757 24.38 0.939757 17.2 0.949757 10.03C0.959757 6.16 2.65976 3.23 5.97976 1.26C6.95976 0.67 8.03974 0.309999 9.17974 0.139999C9.32974 0.119999 9.50974 0.15 9.61974 0C10.3197 0.01 11.0297 0.0100002 11.7397 0.0100002Z" fill="#F5F4F6"/>
</svg>
