<svg width="21" height="40" viewBox="0 0 21 40" fill="none" xmlns="http://www.w3.org/2000/svg">
<path d="M11.74 0.49999C12.28 0.68999 12.86 0.709991 13.41 0.869991C16.47 1.79999 18.63 3.73999 19.87 6.67999C20.38 7.87999 20.58 9.14999 20.58 10.46C20.57 17.2 20.58 23.95 20.58 30.69C20.58 31.75 19.93 32.43 18.97 32.37C18.26 32.33 17.66 31.75 17.6 31.03C17.59 30.85 17.59 30.68 17.59 30.5C17.59 23.84 17.6 17.19 17.58 10.53C17.57 7.56999 16.22 5.38999 13.54 4.09999C9.87 2.33999 5.25 4.50999 4.2 8.44999C4.02 9.11999 3.93999 9.78999 3.93999 10.48C3.93999 17.68 3.93999 24.88 3.93999 32.08C3.93999 34.19 5.22999 35.88 7.15999 36.32C9.69999 36.9 12.1 35.09 12.26 32.46C12.27 32.35 12.27 32.23 12.27 32.12C12.27 25.85 12.27 19.57 12.27 13.3C12.27 12.45 11.92 11.9 11.24 11.67C10.39 11.38 9.49999 11.88 9.30999 12.75C9.25999 12.96 9.26 13.18 9.26 13.39C9.26 18.76 9.26 24.14 9.26 29.51C9.26 30.45 8.80998 31.04 7.98998 31.18C7.16998 31.32 6.36999 30.72 6.27999 29.9C6.26999 29.76 6.26 29.62 6.26 29.48C6.26 24.07 6.26 18.65 6.26 13.24C6.26 11.14 7.38999 9.48999 9.27999 8.81999C12.1 7.80999 15.17 9.86999 15.25 12.86C15.3 14.63 15.27 16.41 15.27 18.18C15.27 22.97 15.3 27.76 15.25 32.55C15.22 35.64 12.98 38.38 9.98 39.17C5.8 40.28 1.61998 37.52 1.01998 33.25C0.959978 32.85 0.950001 32.44 0.950001 32.04C0.950001 24.87 0.940001 17.69 0.950001 10.52C0.960001 6.64999 2.66 3.71999 5.98 1.74999C6.96 1.15999 8.03998 0.79999 9.17998 0.62999C9.32998 0.60999 9.50998 0.63999 9.61998 0.48999C10.32 0.49999 11.03 0.49999 11.74 0.49999Z" fill="#F5F4F6"/>
</svg>
