<svg width="89" height="66" viewBox="0 0 89 66" fill="none" xmlns="http://www.w3.org/2000/svg">
<path d="M34.2201 30.34C33.0501 30.34 32.0901 29.39 32.0901 28.21V19.7C32.0901 18.53 33.0401 17.57 34.2201 17.57C35.3901 17.57 36.3501 18.52 36.3501 19.7V28.21C36.3401 29.39 35.3901 30.34 34.2201 30.34Z" fill="#F5F4F6"/>
<path d="M42.7101 30.34C41.5401 30.34 40.5801 29.39 40.5801 28.21V11.22C40.5801 10.05 41.5301 9.09 42.7101 9.09C43.8801 9.09 44.8401 10.04 44.8401 11.22V28.21C44.8401 29.39 43.8901 30.34 42.7101 30.34Z" fill="#F5F4F6"/>
<path d="M51.2101 30.34C50.0401 30.34 49.0801 29.39 49.0801 28.21V26.08C49.0801 24.91 50.0301 23.95 51.2101 23.95C52.3801 23.95 53.3401 24.9 53.3401 26.08V28.21C53.3301 29.39 52.3801 30.34 51.2101 30.34Z" fill="#F5F4F6"/>
<path d="M53.41 0H32.02C27.04 0 23 4.04 23 9.02V30.41C23 35.39 27.04 39.43 32.02 39.43H53.41C58.39 39.43 62.43 35.39 62.43 30.41V9.02C62.43 4.04 58.39 0 53.41 0ZM59.34 28.74C59.34 32.94 55.93 36.35 51.73 36.35H33.68C29.48 36.35 26.07 32.94 26.07 28.74V10.69C26.07 6.49 29.48 3.08 33.68 3.08H51.73C55.93 3.08 59.34 6.49 59.34 10.69V28.74Z" fill="#F5F4F6"/>
<path d="M3.23446 54.8082H8.49423V56.4255H3.23446V54.8082ZM3.3856 59.3425H9.35574V60.99H1.42074V50.41H9.14414V52.0574H3.3856V59.3425ZM13.7848 61.0958C13.1097 61.0958 12.4598 61.0101 11.8351 60.8388C11.2204 60.6575 10.7317 60.4408 10.369 60.1889L11.0945 58.7531C11.4572 58.9848 11.8905 59.1763 12.3943 59.3274C12.8981 59.4786 13.4019 59.5541 13.9057 59.5541C14.5002 59.5541 14.9285 59.4735 15.1904 59.3123C15.4625 59.1511 15.5985 58.9344 15.5985 58.6624C15.5985 58.4407 15.5078 58.2745 15.3265 58.1636C15.1451 58.0427 14.9083 57.952 14.6161 57.8916C14.3239 57.8311 13.9964 57.7757 13.6337 57.7253C13.281 57.6749 12.9233 57.6094 12.5606 57.5288C12.2079 57.4381 11.8855 57.3122 11.5932 57.151C11.301 56.9797 11.0642 56.753 10.8829 56.4708C10.7015 56.1887 10.6108 55.8159 10.6108 55.3524C10.6108 54.8385 10.7569 54.3951 11.0491 54.0223C11.3413 53.6394 11.7494 53.3472 12.2734 53.1457C12.8074 52.9341 13.4372 52.8283 14.1627 52.8283C14.7068 52.8283 15.2559 52.8887 15.8101 53.0096C16.3643 53.1306 16.8228 53.3019 17.1855 53.5235L16.46 54.9594C16.0772 54.7276 15.6892 54.5715 15.2962 54.4908C14.9134 54.4002 14.5305 54.3548 14.1476 54.3548C13.5732 54.3548 13.145 54.4405 12.8628 54.6118C12.5908 54.7831 12.4548 54.9997 12.4548 55.2617C12.4548 55.5035 12.5454 55.6849 12.7268 55.8058C12.9082 55.9267 13.145 56.0224 13.4372 56.093C13.7294 56.1635 14.0518 56.224 14.4045 56.2743C14.7672 56.3146 15.125 56.3801 15.4776 56.4708C15.8303 56.5615 16.1527 56.6875 16.4449 56.8487C16.7472 56.9998 16.989 57.2165 17.1704 57.4986C17.3518 57.7807 17.4425 58.1485 17.4425 58.6019C17.4425 59.1057 17.2913 59.5441 16.989 59.9169C16.6968 60.2897 16.2787 60.5819 15.7346 60.7935C15.1904 60.995 14.5405 61.0958 13.7848 61.0958ZM22.1075 61.0958C21.2208 61.0958 20.5356 60.8691 20.0519 60.4156C19.5683 59.9521 19.3264 59.272 19.3264 58.3752V51.1355H21.2157V58.3299C21.2157 58.7128 21.3115 59.01 21.5029 59.2216C21.7044 59.4332 21.9815 59.539 22.3342 59.539C22.7574 59.539 23.1101 59.4282 23.3922 59.2065L23.9212 60.5517C23.6995 60.733 23.4275 60.8691 23.105 60.9598C22.7826 61.0504 22.4501 61.0958 22.1075 61.0958ZM17.9964 54.4908V52.9794H23.3771V54.4908H17.9964ZM30.448 60.99V59.3576L30.3422 59.01V56.1534C30.3422 55.5992 30.1759 55.171 29.8434 54.8687C29.5109 54.5563 29.0071 54.4002 28.332 54.4002C27.8785 54.4002 27.4301 54.4707 26.9868 54.6118C26.5535 54.7528 26.1857 54.9493 25.8835 55.2012L25.1429 53.8258C25.5761 53.4933 26.09 53.2464 26.6845 53.0852C27.2891 52.9139 27.9138 52.8283 28.5587 52.8283C29.7275 52.8283 30.6293 53.1104 31.2641 53.6747C31.909 54.2289 32.2315 55.0904 32.2315 56.2592V60.99H30.448ZM27.9088 61.0958C27.3042 61.0958 26.7752 60.995 26.3218 60.7935C25.8683 60.5819 25.5157 60.2947 25.2638 59.932C25.0219 59.5592 24.901 59.141 24.901 58.6775C24.901 58.2241 25.0068 57.816 25.2184 57.4532C25.4401 57.0905 25.7978 56.8033 26.2915 56.5917C26.7853 56.3801 27.4402 56.2743 28.2564 56.2743H30.5991V57.5288H28.3924C27.7475 57.5288 27.3143 57.6346 27.0926 57.8462C26.8709 58.0477 26.7601 58.2996 26.7601 58.6019C26.7601 58.9445 26.8961 59.2166 27.1682 59.4181C27.4402 59.6196 27.8181 59.7204 28.3017 59.7204C28.7652 59.7204 29.1784 59.6146 29.5411 59.403C29.9139 59.1914 30.1809 58.879 30.3422 58.4659L30.6596 59.5995C30.4782 60.0731 30.1507 60.4408 29.6771 60.7028C29.2136 60.9648 28.6242 61.0958 27.9088 61.0958ZM37.6941 61.0958C36.8074 61.0958 36.1222 60.8691 35.6385 60.4156C35.1549 59.9521 34.9131 59.272 34.9131 58.3752V51.1355H36.8023V58.3299C36.8023 58.7128 36.8981 59.01 37.0895 59.2216C37.291 59.4332 37.5681 59.539 37.9208 59.539C38.344 59.539 38.6967 59.4282 38.9788 59.2065L39.5078 60.5517C39.2861 60.733 39.0141 60.8691 38.6916 60.9598C38.3692 61.0504 38.0367 61.0958 37.6941 61.0958ZM33.583 54.4908V52.9794H38.9637V54.4908H33.583ZM41.062 60.99V52.919H42.9513V60.99H41.062ZM40.7446 51.8156L42.785 49.745H45.0068L42.3769 51.8156H40.7446ZM47.9248 61.0958C47.2497 61.0958 46.5998 61.0101 45.9751 60.8388C45.3604 60.6575 44.8717 60.4408 44.509 60.1889L45.2345 58.7531C45.5972 58.9848 46.0305 59.1763 46.5343 59.3274C47.0381 59.4786 47.5419 59.5541 48.0457 59.5541C48.6402 59.5541 49.0685 59.4735 49.3304 59.3123C49.6025 59.1511 49.7385 58.9344 49.7385 58.6624C49.7385 58.4407 49.6478 58.2745 49.4665 58.1636C49.2851 58.0427 49.0483 57.952 48.7561 57.8916C48.4639 57.8311 48.1364 57.7757 47.7737 57.7253C47.421 57.6749 47.0633 57.6094 46.7005 57.5288C46.3479 57.4381 46.0254 57.3122 45.7332 57.151C45.441 56.9797 45.2042 56.753 45.0229 56.4708C44.8415 56.1887 44.7508 55.8159 44.7508 55.3524C44.7508 54.8385 44.8969 54.3951 45.1891 54.0223C45.4813 53.6394 45.8894 53.3472 46.4134 53.1457C46.9474 52.9341 47.5772 52.8283 48.3027 52.8283C48.8468 52.8283 49.3959 52.8887 49.9501 53.0096C50.5043 53.1306 50.9628 53.3019 51.3255 53.5235L50.6 54.9594C50.2171 54.7276 49.8292 54.5715 49.4362 54.4908C49.0533 54.4002 48.6704 54.3548 48.2875 54.3548C47.7132 54.3548 47.285 54.4405 47.0028 54.6118C46.7308 54.7831 46.5947 54.9997 46.5947 55.2617C46.5947 55.5035 46.6854 55.6849 46.8668 55.8058C47.0482 55.9267 47.285 56.0224 47.5772 56.093C47.8694 56.1635 48.1918 56.224 48.5445 56.2743C48.9072 56.3146 49.2649 56.3801 49.6176 56.4708C49.9703 56.5615 50.2927 56.6875 50.5849 56.8487C50.8872 56.9998 51.129 57.2165 51.3104 57.4986C51.4918 57.7807 51.5825 58.1485 51.5825 58.6019C51.5825 59.1057 51.4313 59.5441 51.129 59.9169C50.8368 60.2897 50.4187 60.5819 49.8745 60.7935C49.3304 60.995 48.6805 61.0958 47.9248 61.0958ZM56.2475 61.0958C55.3608 61.0958 54.6756 60.8691 54.1919 60.4156C53.7083 59.9521 53.4664 59.272 53.4664 58.3752V51.1355H55.3557V58.3299C55.3557 58.7128 55.4514 59.01 55.6429 59.2216C55.8444 59.4332 56.1215 59.539 56.4742 59.539C56.8974 59.539 57.25 59.4282 57.5322 59.2065L58.0612 60.5517C57.8395 60.733 57.5674 60.8691 57.245 60.9598C56.9226 61.0504 56.5901 61.0958 56.2475 61.0958ZM52.1364 54.4908V52.9794H57.5171V54.4908H52.1364ZM59.6153 60.99V52.919H61.5046V60.99H59.6153ZM60.5675 51.5889C60.2149 51.5889 59.9227 51.4781 59.6909 51.2564C59.4692 51.0347 59.3584 50.7677 59.3584 50.4553C59.3584 50.1329 59.4692 49.8659 59.6909 49.6543C59.9227 49.4326 60.2149 49.3218 60.5675 49.3218C60.9202 49.3218 61.2074 49.4276 61.4291 49.6392C61.6608 49.8407 61.7767 50.0976 61.7767 50.41C61.7767 50.7425 61.6659 51.0246 61.4442 51.2564C61.2225 51.4781 60.9303 51.5889 60.5675 51.5889ZM67.6873 61.0958C66.8409 61.0958 66.0852 60.9195 65.4202 60.5668C64.7652 60.204 64.2513 59.7103 63.8785 59.0856C63.5057 58.4609 63.3193 57.7505 63.3193 56.9545C63.3193 56.1484 63.5057 55.438 63.8785 54.8234C64.2513 54.1986 64.7652 53.7099 65.4202 53.3573C66.0852 53.0046 66.8409 52.8283 67.6873 52.8283C68.4733 52.8283 69.1635 52.9895 69.758 53.3119C70.3626 53.6243 70.821 54.0878 71.1334 54.7024L69.6824 55.5488C69.4406 55.166 69.1433 54.8838 68.7907 54.7024C68.4481 54.5211 68.0753 54.4304 67.6722 54.4304C67.2087 54.4304 66.7905 54.5312 66.4177 54.7327C66.0449 54.9342 65.7527 55.2264 65.5411 55.6093C65.3295 55.9821 65.2237 56.4305 65.2237 56.9545C65.2237 57.4784 65.3295 57.9319 65.5411 58.3148C65.7527 58.6876 66.0449 58.9748 66.4177 59.1763C66.7905 59.3778 67.2087 59.4786 67.6722 59.4786C68.0753 59.4786 68.4481 59.3879 68.7907 59.2065C69.1433 59.0251 69.4406 58.743 69.6824 58.3601L71.1334 59.2065C70.821 59.8111 70.3626 60.2796 69.758 60.6121C69.1635 60.9346 68.4733 61.0958 67.6873 61.0958ZM77.7391 60.99V59.3576L77.6333 59.01V56.1534C77.6333 55.5992 77.4671 55.171 77.1346 54.8687C76.8021 54.5563 76.2983 54.4002 75.6231 54.4002C75.1697 54.4002 74.7213 54.4707 74.278 54.6118C73.8447 54.7528 73.4769 54.9493 73.1746 55.2012L72.434 53.8258C72.8673 53.4933 73.3812 53.2464 73.9757 53.0852C74.5803 52.9139 75.205 52.8283 75.8499 52.8283C77.0187 52.8283 77.9205 53.1104 78.5553 53.6747C79.2002 54.2289 79.5226 55.0904 79.5226 56.2592V60.99H77.7391ZM75.1999 61.0958C74.5954 61.0958 74.0664 60.995 73.6129 60.7935C73.1595 60.5819 72.8069 60.2947 72.5549 59.932C72.3131 59.5592 72.1922 59.141 72.1922 58.6775C72.1922 58.2241 72.298 57.816 72.5096 57.4532C72.7313 57.0905 73.089 56.8033 73.5827 56.5917C74.0765 56.3801 74.7314 56.2743 75.5476 56.2743H77.8903V57.5288H75.6836C75.0387 57.5288 74.6055 57.6346 74.3838 57.8462C74.1621 58.0477 74.0513 58.2996 74.0513 58.6019C74.0513 58.9445 74.1873 59.2166 74.4593 59.4181C74.7314 59.6196 75.1093 59.7204 75.5929 59.7204C76.0564 59.7204 76.4695 59.6146 76.8323 59.403C77.2051 59.1914 77.4721 58.879 77.6333 58.4659L77.9507 59.5995C77.7694 60.0731 77.4419 60.4408 76.9683 60.7028C76.5048 60.9648 75.9154 61.0958 75.1999 61.0958ZM84.4412 61.0958C83.766 61.0958 83.1161 61.0101 82.4914 60.8388C81.8768 60.6575 81.3881 60.4408 81.0253 60.1889L81.7508 58.7531C82.1136 58.9848 82.5468 59.1763 83.0506 59.3274C83.5544 59.4786 84.0583 59.5541 84.5621 59.5541C85.1566 59.5541 85.5848 59.4735 85.8468 59.3123C86.1188 59.1511 86.2549 58.9344 86.2549 58.6624C86.2549 58.4407 86.1642 58.2745 85.9828 58.1636C85.8014 58.0427 85.5646 57.952 85.2724 57.8916C84.9802 57.8311 84.6528 57.7757 84.29 57.7253C83.9373 57.6749 83.5796 57.6094 83.2169 57.5288C82.8642 57.4381 82.5418 57.3122 82.2496 57.151C81.9574 56.9797 81.7206 56.753 81.5392 56.4708C81.3578 56.1887 81.2672 55.8159 81.2672 55.3524C81.2672 54.8385 81.4133 54.3951 81.7055 54.0223C81.9977 53.6394 82.4058 53.3472 82.9297 53.1457C83.4638 52.9341 84.0935 52.8283 84.819 52.8283C85.3631 52.8283 85.9123 52.8887 86.4665 53.0096C87.0207 53.1306 87.4791 53.3019 87.8419 53.5235L87.1164 54.9594C86.7335 54.7276 86.3456 54.5715 85.9526 54.4908C85.5697 54.4002 85.1868 54.3548 84.8039 54.3548C84.2296 54.3548 83.8013 54.4405 83.5192 54.6118C83.2471 54.7831 83.1111 54.9997 83.1111 55.2617C83.1111 55.5035 83.2018 55.6849 83.3832 55.8058C83.5645 55.9267 83.8013 56.0224 84.0935 56.093C84.3857 56.1635 84.7082 56.224 85.0608 56.2743C85.4236 56.3146 85.7813 56.3801 86.134 56.4708C86.4866 56.5615 86.8091 56.6875 87.1013 56.8487C87.4036 56.9998 87.6454 57.2165 87.8268 57.4986C88.0081 57.7807 88.0988 58.1485 88.0988 58.6019C88.0988 59.1057 87.9477 59.5441 87.6454 59.9169C87.3532 60.2897 86.935 60.5819 86.3909 60.7935C85.8468 60.995 85.1969 61.0958 84.4412 61.0958Z" fill="white"/>
</svg>
