<svg width="40" height="40" viewBox="0 0 40 40" fill="none" xmlns="http://www.w3.org/2000/svg">
<path d="M11.2201 30.34C10.0501 30.34 9.09009 29.39 9.09009 28.21V19.7C9.09009 18.53 10.0401 17.57 11.2201 17.57C12.3901 17.57 13.3501 18.52 13.3501 19.7V28.21C13.3401 29.39 12.3901 30.34 11.2201 30.34Z" fill="#F5F4F6"/>
<path d="M19.7101 30.34C18.5401 30.34 17.5801 29.39 17.5801 28.21V11.22C17.5801 10.05 18.5301 9.09 19.7101 9.09C20.8801 9.09 21.8401 10.04 21.8401 11.22V28.21C21.8401 29.39 20.8901 30.34 19.7101 30.34Z" fill="#F5F4F6"/>
<path d="M28.2101 30.34C27.0401 30.34 26.0801 29.39 26.0801 28.21V26.08C26.0801 24.91 27.0301 23.95 28.2101 23.95C29.3801 23.95 30.3401 24.9 30.3401 26.08V28.21C30.3301 29.39 29.3801 30.34 28.2101 30.34Z" fill="#F5F4F6"/>
<path d="M30.41 0H9.02002C4.04002 0 0 4.04 0 9.02V30.41C0 35.39 4.04002 39.43 9.02002 39.43H30.41C35.39 39.43 39.43 35.39 39.43 30.41V9.02C39.43 4.04 35.39 0 30.41 0ZM36.34 28.74C36.34 32.94 32.93 36.35 28.73 36.35H10.68C6.48002 36.35 3.07001 32.94 3.07001 28.74V10.69C3.07001 6.49 6.48002 3.08 10.68 3.08H28.73C32.93 3.08 36.34 6.49 36.34 10.69V28.74Z" fill="#F5F4F6"/>
</svg>
