<svg width="46" height="46" viewBox="0 0 46 46" fill="none" xmlns="http://www.w3.org/2000/svg">
<path d="M23.11 31.4899C27.716 31.4899 31.45 27.756 31.45 23.1499C31.45 18.5439 27.716 14.8099 23.11 14.8099C18.5039 14.8099 14.77 18.5439 14.77 23.1499C14.77 27.756 18.5039 31.4899 23.11 31.4899Z" fill="#FFF12D"/>
<path opacity="0.47" d="M23.11 36C30.2068 36 35.96 30.2469 35.96 23.1501C35.96 16.0532 30.2068 10.3 23.11 10.3C16.0131 10.3 10.26 16.0532 10.26 23.1501C10.26 30.2469 16.0131 36 23.11 36Z" fill="#FFF12D"/>
<path opacity="0.36" d="M23.11 40.79C32.8523 40.79 40.75 32.8923 40.75 23.15C40.75 13.4077 32.8523 5.51001 23.11 5.51001C13.3677 5.51001 5.46997 13.4077 5.46997 23.15C5.46997 32.8923 13.3677 40.79 23.11 40.79Z" fill="#FFF12D"/>
<path opacity="0.28" d="M23.11 45.43C35.415 45.43 45.3901 35.4549 45.3901 23.15C45.3901 10.8451 35.415 0.869995 23.11 0.869995C10.8051 0.869995 0.830078 10.8451 0.830078 23.15C0.830078 35.4549 10.8051 45.43 23.11 45.43Z" fill="#FFF12D"/>
</svg>
