<svg width="45" height="45" viewBox="0 0 45 45" fill="none" xmlns="http://www.w3.org/2000/svg">
<g clip-path="url(#clip0_9_1713)">
<path d="M22.2799 30.62C26.886 30.62 30.6199 26.8861 30.6199 22.28C30.6199 17.6739 26.886 13.94 22.2799 13.94C17.6739 13.94 13.9399 17.6739 13.9399 22.28C13.9399 26.8861 17.6739 30.62 22.2799 30.62Z" fill="#FFF12D"/>
<path opacity="0.47" d="M22.2802 35.13C29.377 35.13 35.1302 29.3769 35.1302 22.28C35.1302 15.1831 29.377 9.42999 22.2802 9.42999C15.1833 9.42999 9.43018 15.1831 9.43018 22.28C9.43018 29.3769 15.1833 35.13 22.2802 35.13Z" fill="#FFF12D"/>
<path opacity="0.36" d="M22.2801 39.92C32.0224 39.92 39.9201 32.0223 39.9201 22.28C39.9201 12.5377 32.0224 4.64001 22.2801 4.64001C12.5378 4.64001 4.64014 12.5377 4.64014 22.28C4.64014 32.0223 12.5378 39.92 22.2801 39.92Z" fill="#FFF12D"/>
<path opacity="0.28" d="M22.28 44.56C34.5849 44.56 44.56 34.5849 44.56 22.28C44.56 9.9751 34.5849 0 22.28 0C9.9751 0 0 9.9751 0 22.28C0 34.5849 9.9751 44.56 22.28 44.56Z" fill="#FFF12D"/>
</g>
<defs>
<clipPath id="clip0_9_1713">
<rect width="44.57" height="44.57" fill="white"/>
</clipPath>
</defs>
</svg>
