<svg width="60" height="60" viewBox="0 0 60 60" fill="none" xmlns="http://www.w3.org/2000/svg">
<rect width="60" height="60" rx="17" fill="#4F028E"/>
<g clip-path="url(#clip0_348_3)">
<path d="M30.2799 38.6199C34.886 38.6199 38.6199 34.886 38.6199 30.2799C38.6199 25.6739 34.886 21.9399 30.2799 21.9399C25.6739 21.9399 21.9399 25.6739 21.9399 30.2799C21.9399 34.886 25.6739 38.6199 30.2799 38.6199Z" fill="#FFF12D"/>
<path opacity="0.47" d="M30.2799 43.1302C37.3768 43.1302 43.1299 37.377 43.1299 30.2802C43.1299 23.1833 37.3768 17.4302 30.2799 17.4302C23.1831 17.4302 17.4299 23.1833 17.4299 30.2802C17.4299 37.377 23.1831 43.1302 30.2799 43.1302Z" fill="#FFF12D"/>
<path opacity="0.36" d="M30.2799 47.9201C40.0222 47.9201 47.9199 40.0224 47.9199 30.2801C47.9199 20.5378 40.0222 12.6401 30.2799 12.6401C20.5376 12.6401 12.6399 20.5378 12.6399 30.2801C12.6399 40.0224 20.5376 47.9201 30.2799 47.9201Z" fill="#FFF12D"/>
<path opacity="0.28" d="M30.28 52.56C42.5849 52.56 52.56 42.5849 52.56 30.28C52.56 17.9751 42.5849 8 30.28 8C17.9751 8 8 17.9751 8 30.28C8 42.5849 17.9751 52.56 30.28 52.56Z" fill="#FFF12D"/>
</g>
<defs>
<clipPath id="clip0_348_3">
<rect width="44.57" height="44.57" fill="white" transform="translate(8 8)"/>
</clipPath>
</defs>
</svg>
