<svg width="424" height="796" viewBox="0 0 424 796" fill="none" xmlns="http://www.w3.org/2000/svg">
<mask id="mask0_40_39" style="mask-type:luminance" maskUnits="userSpaceOnUse" x="0" y="0" width="425" height="796">
<path d="M424.36 0H0V795.5H424.36V0Z" fill="white"/>
</mask>
<g mask="url(#mask0_40_39)">
<path d="M481.04 504.91C544.293 504.91 595.57 453.633 595.57 390.38C595.57 327.127 544.293 275.85 481.04 275.85C417.787 275.85 366.51 327.127 366.51 390.38C366.51 453.633 417.787 504.91 481.04 504.91Z" fill="#FFF12D"/>
<path opacity="0.47" d="M481.04 566.91C578.535 566.91 657.57 487.875 657.57 390.38C657.57 292.885 578.535 213.85 481.04 213.85C383.545 213.85 304.51 292.885 304.51 390.38C304.51 487.875 383.545 566.91 481.04 566.91Z" fill="#FFF12D"/>
<path opacity="0.36" d="M481.04 632.76C614.903 632.76 723.42 524.243 723.42 390.38C723.42 256.517 614.903 148 481.04 148C347.177 148 238.66 256.517 238.66 390.38C238.66 524.243 347.177 632.76 481.04 632.76Z" fill="#FFF12D"/>
<path opacity="0.28" d="M481.04 696.56C650.139 696.56 787.22 559.479 787.22 390.38C787.22 221.281 650.139 84.2 481.04 84.2C311.941 84.2 174.86 221.281 174.86 390.38C174.86 559.479 311.941 696.56 481.04 696.56Z" fill="#FFF12D"/>
</g>
</svg>
