<svg width="129" height="124" viewBox="0 0 129 124" fill="none" xmlns="http://www.w3.org/2000/svg">
<path d="M128.265 75.2292C128.265 76.6492 128.265 78.0692 128.265 79.4892C127.875 79.5692 127.935 79.9392 127.865 80.1892C126.265 85.3892 122.785 88.3592 117.385 88.9992C116.755 89.0792 116.635 89.3592 116.605 89.8592C116.185 95.5192 111.415 100.199 105.865 100.599C105.345 100.639 105.075 100.779 104.995 101.389C104.115 107.629 100.535 111.229 94.2151 112.219C93.6451 112.309 93.495 112.449 93.425 113.029C92.815 117.979 90.215 121.519 85.495 123.159C80.735 124.819 76.455 123.679 72.865 120.139C70.305 117.619 67.745 115.099 65.265 112.509C64.445 111.659 63.9951 111.489 63.0851 112.459C60.5751 115.139 57.9451 117.709 55.3151 120.269C51.8851 123.609 47.795 124.709 43.225 123.289C38.615 121.859 35.815 118.599 35.025 113.819C34.815 112.549 34.355 112.219 33.165 112.039C27.945 111.279 23.7951 106.899 23.3351 101.699C23.2551 100.809 22.905 100.639 22.125 100.549C17.405 100.039 13.1951 96.7092 12.1951 92.1092C11.7051 89.8592 10.895 89.0892 8.66503 88.4992C0.145034 86.2692 -2.83502 75.7092 3.10498 69.1892C5.85498 66.1692 8.815 63.3392 11.755 60.4892C12.505 59.7692 12.415 59.3792 11.845 58.6092C5.06497 49.4692 2.81504 39.2392 5.42504 28.2092C11.595 2.20921 42.175 -8.53079 63.365 7.74921C64.005 8.23921 64.3551 8.15921 64.9451 7.70921C74.4751 0.559214 85.095 -1.70079 96.605 1.27921C121.815 7.78921 132.145 38.0592 116.325 58.7692C115.835 59.4092 115.755 59.7392 116.385 60.3592C119.115 62.9992 121.765 65.7192 124.465 68.3992C125.935 69.8692 127.035 71.5592 127.705 73.5292C127.905 74.0792 127.835 74.7392 128.265 75.2292ZM69.4351 13.7592C69.8951 14.0692 70.3651 14.2992 70.7151 14.6492C75.1251 19.0292 79.535 23.4192 83.915 27.8292C87.655 31.5992 88.685 36.5692 86.765 41.1592C83.465 49.0292 73.475 51.0092 67.255 44.9592C62.595 40.4192 58.0151 35.7892 53.4551 31.1392C52.6851 30.3592 52.345 30.4792 51.645 31.1792C42.965 39.9092 34.255 48.6092 25.545 57.3092C20.055 62.7992 14.5751 68.2892 9.07507 73.7692C7.82507 75.0092 7.24505 76.4492 7.68505 78.1892C8.55505 81.6092 12.6151 82.7092 15.2051 80.1892C17.9851 77.4792 20.6951 74.6992 23.4551 71.9692C24.7051 70.7292 26.3451 70.4792 27.8251 71.2192C29.2651 71.9292 30.025 73.3692 29.855 75.0392C29.755 76.0492 29.215 76.8192 28.525 77.5092C25.835 80.1892 23.135 82.8592 20.475 85.5692C19.195 86.8692 18.785 88.4492 19.395 90.1792C20.005 91.8892 21.275 92.9092 23.095 93.1292C24.605 93.3192 25.855 92.7392 26.915 91.6692C29.595 88.9792 32.275 86.2892 34.975 83.6192C36.145 82.4492 37.545 82.1092 39.105 82.6892C40.585 83.2392 41.3451 84.3792 41.4651 85.9292C41.5651 87.1692 41.055 88.1792 40.175 89.0592C37.475 91.7292 34.785 94.4092 32.125 97.1192C30.045 99.2392 30.365 102.469 32.755 104.049C34.565 105.239 36.7751 104.989 38.4551 103.329C41.1251 100.689 43.775 98.0292 46.425 95.3592C47.155 94.6192 47.985 94.1092 49.035 94.0292C50.615 93.8992 52.0151 94.7092 52.7051 96.1192C53.4451 97.6392 53.2151 99.1792 51.9351 100.479C49.2451 103.219 46.5051 105.899 43.805 108.639C41.905 110.559 41.845 113.199 43.605 115.009C45.385 116.839 48.1251 116.829 50.0751 114.899C52.9651 112.059 55.795 109.169 58.675 106.329C59.125 105.879 59.1851 105.549 58.9551 104.929C55.9651 97.1892 60.575 89.5492 68.845 88.4792C69.375 88.4092 69.6151 88.2892 69.6851 87.6792C70.4451 81.6692 74.275 77.7392 80.225 76.8992C80.995 76.7892 81.185 76.5292 81.285 75.7792C82.085 70.0992 85.985 66.1192 91.615 65.3092C92.525 65.1792 92.8251 64.9192 92.9351 64.0192C93.8351 56.4492 101.625 51.6692 108.785 54.3392C109.785 54.7092 110.225 54.5092 110.785 53.7192C115.985 46.3392 117.675 38.2092 115.455 29.4792C110.135 8.64922 85.7751 1.18922 69.4351 13.7592ZM18.055 54.3292C18.4251 53.8892 18.695 53.5192 19.015 53.1892C29.135 43.0692 39.255 32.9492 49.375 22.8292C51.555 20.6492 53.555 20.6592 55.745 22.8492C61.295 28.3892 66.835 33.9492 72.385 39.4892C74.325 41.4192 77.065 41.4892 78.865 39.7092C80.685 37.9092 80.6251 35.1992 78.6851 33.2492C72.885 27.4292 67.115 21.5692 61.235 15.8292C49.845 4.68922 31.7651 4.80922 20.4551 16.0392C10.1951 26.2192 9.05505 43.1892 18.055 54.3292ZM93.255 72.7092C91.425 72.6792 89.7851 73.6892 89.0751 75.3492C88.2951 77.1992 88.635 78.8892 90.035 80.2992C93.845 84.1592 97.675 87.9992 101.535 91.7992C103.385 93.6192 106.055 93.6192 107.825 91.8892C109.625 90.1292 109.645 87.4092 107.775 85.5092C103.995 81.6792 100.175 77.8892 96.365 74.0892C95.505 73.2392 94.485 72.7392 93.255 72.7092ZM81.4651 116.329C83.3551 116.309 84.735 115.439 85.555 113.759C86.365 112.109 86.045 110.189 84.665 108.799C80.825 104.909 76.9751 101.039 73.0751 97.2092C71.2351 95.4092 68.515 95.4592 66.795 97.1992C65.055 98.9492 65.0251 101.639 66.8351 103.489C70.6351 107.359 74.4951 111.169 78.3351 114.999C79.1951 115.849 80.2251 116.339 81.4651 116.329ZM104.825 61.1392C103.015 61.1092 101.455 62.0592 100.705 63.6692C99.9151 65.3592 100.175 67.2492 101.545 68.6392C105.415 72.5592 109.295 76.4592 113.225 80.3192C114.985 82.0492 117.725 81.9792 119.425 80.2992C121.185 78.5592 121.235 75.8492 119.435 74.0192C115.605 70.1292 111.715 66.2792 107.855 62.4192C107.015 61.5792 106.015 61.1392 104.825 61.1392ZM97.545 100.309C97.555 99.1692 97.205 98.1492 96.405 97.3492C92.435 93.3592 88.4851 89.3392 84.4451 85.4192C82.7151 83.7392 80.035 83.9292 78.365 85.6392C76.755 87.2892 76.595 89.9592 78.235 91.6392C82.195 95.6992 86.205 99.7192 90.275 103.669C91.615 104.969 93.335 105.129 95.045 104.299C96.685 103.509 97.495 102.139 97.545 100.309Z" fill="#4F028E"/>
</svg>
