<svg width="166" height="126" viewBox="0 0 166 126" fill="none" xmlns="http://www.w3.org/2000/svg">
<path d="M0 118.27C0.69 117.43 0.480001 116.37 0.720001 115.41C4.31 100.69 13.26 90.9901 27.9 86.9001C35.77 84.7001 43.6 85.4201 51.19 88.4701C53.09 89.2301 53.89 90.5201 53.38 92.0301C52.85 93.6201 51.33 94.2201 49.37 93.4401C45.26 91.8101 41.03 90.9301 36.6 91.0101C22 91.2701 9.7 101.14 6.18 115.43C5.67 117.48 5.46 119.57 5.36 121.67C5.29 123.16 5.18 124.62 3.44 125.23C1.83 125.79 0.97 124.68 0 123.78C0 121.95 0 120.11 0 118.27Z" fill="#4F028E"/>
<path d="M83.13 85.6801C101.33 85.6301 117.16 99.4201 119.67 117.59C119.89 119.2 119.97 120.81 120 122.43C120.04 124.18 118.99 125.35 117.47 125.39C116 125.43 114.83 124.28 114.77 122.55C114.65 118.69 114.07 114.92 112.58 111.34C107.89 100.09 99.59 93.1301 87.51 91.4101C68.38 88.6901 52.06 102.63 51.24 122.02C51.15 124.07 50.38 125.16 48.88 125.36C47.26 125.58 45.97 124.33 45.98 122.47C46.01 114.74 48.26 107.69 52.75 101.42C59.15 92.4801 67.9 87.3701 78.78 85.9201C80.15 85.7401 81.56 85.7601 83.13 85.6801Z" fill="#4F028E"/>
<path d="M79.8598 19.9001C79.8498 30.8601 70.8798 39.8101 59.9698 39.7701C49.0398 39.7201 40.1398 30.7301 40.1798 19.7901C40.2198 8.93008 49.1298 0.0300749 59.9998 7.48663e-05C70.9098 -0.0299251 79.8798 8.96007 79.8598 19.9001ZM59.8698 34.4101C67.6598 34.6101 74.2998 28.1901 74.5598 20.2101C74.8198 12.3001 68.4298 5.64008 60.3498 5.39008C52.3798 5.14008 45.5998 11.5301 45.5098 19.7401C45.4098 27.6701 51.5798 34.2101 59.8698 34.4101Z" fill="#4F028E"/>
<path d="M125.79 19.9301C125.77 30.8601 116.74 39.8401 105.86 39.7601C94.9699 39.6801 86.1499 30.8201 86.1099 19.9101C86.0799 8.97013 95.0299 -0.00986959 105.95 0.000130414C116.87 0.0101304 125.81 9.00013 125.79 19.9301ZM105.88 5.37013C97.8799 5.42013 91.3499 12.0001 91.4099 19.9501C91.4699 27.9301 98.1099 34.5301 106.01 34.4101C114.14 34.2901 120.44 27.9701 120.48 19.8201C120.52 11.8201 113.82 5.32013 105.88 5.37013Z" fill="#4F028E"/>
<path d="M128.88 40.6701C139.83 40.6501 148.77 49.5901 148.76 60.5401C148.75 71.4101 139.85 80.3201 128.99 80.3501C118.02 80.3801 109.08 71.5301 109.02 60.5701C108.96 49.6701 117.92 40.6901 128.88 40.6701ZM114.38 60.5801C114.44 68.5501 121.04 75.1301 128.93 75.0801C136.86 75.0301 143.41 68.4601 143.44 60.5201C143.47 52.5601 136.74 45.8601 128.8 45.9601C120.82 46.0601 114.33 52.6401 114.38 60.5801Z" fill="#4F028E"/>
<path d="M36.9901 40.6801C47.9201 40.6101 56.8801 49.5101 56.9401 60.4801C57.0001 71.3001 48.1001 80.2701 37.2201 80.3501C26.2601 80.4301 17.2701 71.5701 17.2001 60.6301C17.1301 49.6901 26.0101 40.7401 36.9901 40.6801ZM51.5901 60.4901C51.5801 52.5301 45.0401 45.9801 37.0901 45.9601C29.1801 45.9401 22.6301 52.4601 22.5301 60.4501C22.4401 68.3601 29.2401 75.1801 37.1301 75.0901C45.1101 74.9901 51.5901 68.4401 51.5901 60.4901Z" fill="#4F028E"/>
<path d="M82.91 40.6801C93.87 40.6201 102.78 49.4901 102.8 60.4901C102.82 71.4101 94.03 80.2901 83.13 80.3601C72.13 80.4301 63.22 71.6201 63.16 60.6301C63.1 49.6201 71.9 40.7401 82.91 40.6801ZM83.02 45.9701C75.12 45.9401 68.51 52.4901 68.42 60.4501C68.33 68.3301 75.16 75.1701 83.03 75.0901C90.97 75.0101 97.55 68.4001 97.55 60.5201C97.54 52.6001 90.94 46.0001 83.02 45.9701Z" fill="#4F028E"/>
<path d="M128.93 85.6801C146.52 85.7601 161.82 98.2601 165.23 115.38C165.66 117.55 165.92 119.75 165.95 121.97C165.98 123.99 165.1 125.24 163.51 125.38C161.95 125.51 160.77 124.37 160.68 122.36C160.47 117.45 159.38 112.79 157.2 108.36C150.29 94.2901 132.77 87.3301 118.14 92.8901C117.39 93.1801 116.63 93.4601 115.85 93.6701C114.35 94.0601 113.06 93.4101 112.59 92.0701C112.13 90.7501 112.7 89.4001 114.15 88.7601C116.92 87.5401 119.81 86.7101 122.8 86.1901C124.84 85.8301 126.89 85.8201 128.93 85.6801Z" fill="#4F028E"/>
<path d="M60.0302 29.12C56.9602 29.04 54.4902 27.79 52.6102 25.4C51.6002 24.11 51.7302 22.62 52.8902 21.65C54.0002 20.72 55.3402 20.81 56.5102 21.91C59.2802 24.51 60.8202 24.51 63.4802 21.92C64.6602 20.77 66.1402 20.66 67.2202 21.64C68.3202 22.63 68.3902 24.12 67.3902 25.4C65.5202 27.81 63.0402 29.02 60.0302 29.12Z" fill="#4F028E"/>
<path d="M105.93 29.1301C102.89 29.0201 100.4 27.8201 98.5399 25.4001C97.5599 24.1201 97.6799 22.6001 98.7999 21.6401C99.8999 20.7101 101.31 20.7601 102.41 21.9101C103.33 22.8801 104.27 23.7401 105.66 23.8201C107.04 23.9001 108.13 23.3001 109.07 22.2801C110.46 20.7701 111.95 20.5701 113.14 21.6301C114.41 22.7601 114.32 24.2301 112.9 25.8901C111.06 28.0301 108.69 29.0101 105.93 29.1301Z" fill="#4F028E"/>
<path d="M129.12 69.72C125.82 69.65 123.5 68.47 121.68 66.27C120.56 64.92 120.55 63.38 121.65 62.36C122.8 61.3 124.23 61.41 125.51 62.68C128 65.13 129.76 65.12 132.24 62.63C133.52 61.34 134.92 61.21 136.09 62.27C137.24 63.31 137.25 64.78 136.13 66.17C134.23 68.56 131.75 69.74 129.12 69.72Z" fill="#4F028E"/>
<path d="M37.4999 69.7201C33.9999 69.7201 31.5699 68.4201 29.6799 66.0501C28.7299 64.8601 28.8199 63.3301 29.8199 62.3901C30.9199 61.3601 32.3699 61.4301 33.5699 62.5601C36.3699 65.2001 37.8299 65.2001 40.5299 62.5601C41.7499 61.3701 43.1299 61.2601 44.2599 62.2701C45.3399 63.2301 45.4299 64.7601 44.4399 66.0501C42.5899 68.4401 40.1299 69.6901 37.4999 69.7201Z" fill="#4F028E"/>
<path d="M82.9598 69.7201C79.8698 69.6901 77.4298 68.4201 75.5698 66.0101C74.5998 64.7501 74.6798 63.3801 75.7398 62.3801C76.8498 61.3401 78.2698 61.4101 79.4898 62.5601C82.2598 65.2001 83.6698 65.1901 86.4498 62.5201C87.6698 61.3501 89.0698 61.2601 90.1898 62.2801C91.3098 63.3001 91.3698 64.7201 90.3298 66.0401C88.4498 68.4401 86.0098 69.7101 82.9598 69.7201Z" fill="#4F028E"/>
</svg>
