<svg width="124" height="124" viewBox="0 0 124 124" fill="none" xmlns="http://www.w3.org/2000/svg">
<path d="M33.63 0C34.98 0.47 35.88 1.38 36.55 2.64C37.49 4.41 38.56 6.11 39.54 7.87C40.65 9.86 40.17 11.96 38.4 13.02C36.58 14.11 34.46 13.5 33.26 11.49C32.17 9.66001 31.12 7.81 30.06 5.97C28.66 3.53 29.1 1.84 31.5 0.280003C31.59 0.220003 31.63 0.1 31.69 0C32.34 0 32.98 0 33.63 0Z" fill="#4F028E"/>
<path d="M91.7002 0C92.0102 0.41 92.5402 0.300003 92.9402 0.570004C94.5402 1.64 95.0802 3.66 94.0802 5.48C92.9402 7.56 91.7502 9.62 90.5202 11.64C89.3702 13.53 87.2902 14.07 85.5202 13.04C83.7702 12.02 83.2102 9.90001 84.2702 7.99001C85.4002 5.95001 86.6202 3.96 87.7702 1.93C88.3402 0.93 89.2302 0.4 90.2502 0C90.7402 0 91.2202 0 91.7002 0Z" fill="#4F028E"/>
<path d="M123.89 55.66C122.93 57.75 121.28 58.5 119.03 58.35C117.11 58.22 115.17 58.34 113.23 58.32C110.99 58.29 109.38 56.77 109.38 54.7C109.38 52.63 110.98 51.1 113.22 51.07C115.27 51.05 117.33 51.14 119.38 51.05C121.63 50.95 123.14 51.84 123.89 53.97C123.89 54.53 123.89 55.09 123.89 55.66Z" fill="#4F028E"/>
<path d="M61.92 123.9C59.58 123.9 57.2399 123.93 54.8999 123.89C48.5299 123.79 43.9 119.16 43.8 112.79C43.77 110.61 43.79 108.44 43.79 106.26C43.8 97.73 40.96 90.3 34.94 84.23C30.28 79.53 26.57 74.28 24.29 68.03C18.35 51.78 24.25 32.52 38.31 22.46C60.19 6.80999 90.28 15.97 99.48 41.24C103.78 53.06 102.35 64.51 96.04 75.37C93.91 79.03 91.0099 82.05 88.0799 85.05C84.6399 88.57 82.17 92.66 80.89 97.43C80.33 99.5 80.09 101.62 80.1 103.77C80.1 106.75 80.13 109.74 80.09 112.72C80.02 119.15 75.37 123.81 68.94 123.9C66.59 123.92 64.26 123.9 61.92 123.9ZM65.57 93.27C65.57 95.85 65.59 98.43 65.56 101.01C65.55 101.67 65.7 101.91 66.41 101.89C68.06 101.84 69.7199 101.79 71.3699 101.9C72.5999 101.99 73 101.6 73.08 100.37C73.35 96.13 74.7399 92.21 76.6799 88.45C78.9499 84.04 82.37 80.59 85.7 77.02C93.55 68.59 96.16 58.58 93.75 47.4C92.01 39.3 87.5899 32.72 80.7099 28.04C70.3599 21 59.2099 19.91 47.9299 25.18C27.4599 34.74 22.93 61.58 38.79 77.69C40.71 79.64 42.59 81.64 44.16 83.9C47.73 89.05 49.97 94.72 50.74 100.95C50.84 101.76 51.13 101.91 51.85 101.89C53.66 101.84 55.48 101.82 57.29 101.9C58.15 101.93 58.3499 101.69 58.34 100.84C58.2999 95.8 58.31 90.76 58.33 85.72C58.33 85.08 58.16 84.57 57.81 84.05C55.36 80.41 52.85 76.81 50.52 73.09C46.95 67.4 42.9999 62.04 37.9299 57.59C37.8999 57.56 37.87 57.53 37.84 57.5C36.2 55.79 36.11 53.63 37.61 52.13C39.12 50.63 41.27 50.72 42.98 52.39C44.16 53.54 45.37 54.68 46.48 55.9C47.15 56.64 47.58 56.81 48.33 55.95C49.44 54.67 50.69 53.52 51.91 52.35C53.69 50.63 55.68 50.63 57.45 52.35C58.7 53.56 59.9599 54.75 61.1199 56.04C61.7999 56.79 62.19 56.65 62.79 56C63.94 54.76 65.16 53.58 66.3699 52.4C68.2 50.62 70.18 50.62 72.01 52.39C73.28 53.63 74.56 54.86 75.76 56.16C76.33 56.78 76.65 56.68 77.17 56.13C78.39 54.84 79.6499 53.59 80.9299 52.36C82.6299 50.72 84.82 50.65 86.3 52.18C87.76 53.67 87.6799 55.8 86.09 57.46C85.22 58.36 84.3 59.21 83.45 60.12C81.77 61.91 79.82 63.44 78.44 65.51C74.37 71.65 70.2799 77.78 66.1799 83.9C65.7599 84.53 65.54 85.14 65.55 85.9C65.6 88.35 65.57 90.81 65.57 93.27ZM62.07 109.14C59.62 109.14 57.1599 109.12 54.7099 109.15C53.5199 109.17 51.84 108.61 51.26 109.36C50.65 110.15 51.04 111.74 51.07 112.98C51.12 115.06 52.58 116.6 54.64 116.62C59.51 116.67 64.38 116.66 69.25 116.62C71.31 116.6 72.76 115.06 72.83 112.99C72.86 112.03 72.78 111.05 72.86 110.09C72.93 109.27 72.62 109.11 71.86 109.12C68.59 109.16 65.33 109.14 62.07 109.14ZM62.05 76.98C62.2 76.76 62.39 76.51 62.57 76.25C65.14 72.4 67.7 68.55 70.27 64.7C71.84 62.35 71.82 62.37 69.83 60.43C69.34 59.95 69.07 59.94 68.6 60.44C67.41 61.7 66.1599 62.9 64.9299 64.12C62.9099 66.11 60.99 66.1 58.95 64.08C57.72 62.86 56.47 61.65 55.28 60.4C54.85 59.95 54.56 59.88 54.13 60.39C53.66 60.94 53.13 61.44 52.6 61.93C52.26 62.25 52.16 62.51 52.45 62.95C55.5 67.49 58.53 72.05 61.56 76.61C61.65 76.75 61.71 76.99 62.05 76.98Z" fill="#4F028E"/>
<path d="M21.54 29.35C21.5 31.93 18.82 33.73 16.48 32.57C14.08 31.37 11.76 29.98 9.50003 28.53C7.90003 27.5 7.57005 25.41 8.52005 23.81C9.44005 22.26 11.42 21.51 13.03 22.34C15.45 23.6 17.8 25 20.12 26.44C21.14 27.06 21.54 28.15 21.54 29.35Z" fill="#4F028E"/>
<path d="M102.35 28.75C102.37 27.95 102.92 26.89 104.03 26.23C106.16 24.95 108.31 23.68 110.5 22.5C112.34 21.51 114.44 22.16 115.4 23.89C116.35 25.6 115.86 27.66 114.11 28.74C111.99 30.04 109.84 31.31 107.63 32.46C105.14 33.75 102.32 32 102.35 28.75Z" fill="#4F028E"/>
<path d="M21.5303 80.57C21.4903 81.42 20.9803 82.46 19.9103 83.1C17.7403 84.4 15.5603 85.6999 13.3403 86.8899C11.5503 87.8499 9.49032 87.22 8.52032 85.55C7.51032 83.83 8.0203 81.7099 9.8103 80.6099C11.9003 79.3299 14.0103 78.08 16.1803 76.94C18.7303 75.61 21.5903 77.37 21.5303 80.57Z" fill="#4F028E"/>
<path d="M102.34 80.01C102.39 77.48 105.01 75.67 107.3 76.78C109.75 77.97 112.1 79.39 114.39 80.86C115.95 81.86 116.29 83.88 115.4 85.48C114.51 87.09 112.47 87.89 110.83 87.03C108.41 85.77 106.06 84.37 103.74 82.93C102.73 82.3 102.32 81.22 102.34 80.01Z" fill="#4F028E"/>
<path d="M7.2602 51.06C8.4702 51.06 9.6802 51.03 10.8802 51.07C12.9402 51.14 14.4902 52.7 14.5002 54.67C14.5102 56.65 12.9702 58.26 10.9202 58.3C8.47021 58.35 6.01019 58.35 3.56019 58.3C1.51019 58.25 -0.0198062 56.62 0.000193826 54.65C0.0201938 52.73 1.53021 51.16 3.52021 51.08C4.77021 51.03 6.0202 51.07 7.2602 51.06C7.2602 51.07 7.2602 51.07 7.2602 51.06Z" fill="#4F028E"/>
</svg>
