<svg width="72" height="72" viewBox="0 0 72 72" fill="none" xmlns="http://www.w3.org/2000/svg">
<path d="M39.4801 71.16C37.6301 71.16 35.7701 71.16 33.9201 71.16C33.8201 70.92 33.6001 71.03 33.4401 71.01C27.6501 70.4 22.3301 68.5 17.5301 65.21C3.25006 55.43 -1.56994 37.04 6.07006 21.54C6.25006 21.17 6.24006 20.96 5.94006 20.66C4.24006 18.99 2.56006 17.3 0.880057 15.61C-0.539943 14.18 -0.179943 12.53 1.70006 11.82C3.97006 10.97 6.24006 10.12 8.51006 9.28996C8.91006 9.13996 9.14006 8.90996 9.29006 8.50996C10.1201 6.22996 10.9701 3.96996 11.8201 1.69996C12.5301 -0.190037 14.1801 -0.550037 15.6101 0.869963C17.3001 2.54996 18.9901 4.22996 20.6601 5.92996C20.9501 6.22996 21.1601 6.24996 21.5401 6.06996C31.1901 1.45996 41.0201 1.04996 50.7501 5.47996C62.0101 10.61 68.6501 19.49 70.7801 31.71C70.9201 32.49 70.8501 33.3 71.1601 34.05C71.1601 35.95 71.1601 37.85 71.1601 39.75C70.9701 39.8 71.0301 39.96 71.0101 40.09C70.8601 41.12 70.7601 42.16 70.5701 43.18C67.8101 57.56 56.3501 68.58 41.8901 70.78C41.0801 70.9 40.2501 70.87 39.4801 71.16ZM9.52006 24.15C9.39006 24.3 9.35006 24.32 9.34006 24.36C9.24006 24.57 9.15006 24.78 9.06006 24.99C6.55006 30.97 5.99006 37.14 7.40006 43.47C10.9201 59.34 26.8601 69.66 42.7801 66.39C59.6701 62.92 70.2601 46.12 66.0701 29.45C61.5601 11.54 42.1501 1.85996 25.0901 9.01996C24.1501 9.40996 24.1201 9.43996 24.8701 10.12C25.7101 10.88 26.2501 11.71 25.9901 12.91C25.7301 14.13 25.5201 15.36 25.3101 16.59C25.2901 16.71 25.1201 16.83 25.2501 16.94C25.3501 17.02 25.5101 17 25.6401 16.92C25.8201 16.82 26.0001 16.71 26.1901 16.62C30.5901 14.31 35.2801 13.49 40.1701 14.24C53.3801 16.27 61.9501 28.85 59.0701 41.88C56.1001 55.25 41.5801 63.08 28.8201 58.2C15.7901 53.2 10.1801 38.22 16.7501 25.93C16.8401 25.75 17.0801 25.56 16.9401 25.38C16.7901 25.19 16.5101 25.33 16.2901 25.37C15.0801 25.58 13.8801 25.8 12.6701 26.02C11.8501 26.17 11.1601 25.94 10.5901 25.34C10.2301 24.94 9.88006 24.55 9.52006 24.15ZM36.8201 18.17C32.8301 18.15 28.8401 19.48 25.6901 21.83C25.2601 22.15 25.2501 22.32 25.6401 22.69C27.1201 24.12 28.5701 25.59 30.0101 27.06C30.3201 27.37 30.5201 27.43 30.9301 27.18C33.6301 25.53 36.5301 25.1 39.6001 25.85C45.5601 27.31 49.2201 33.39 47.8101 39.45C46.4301 45.36 40.3601 49.17 34.4401 47.84C26.7901 46.13 23.1201 37.56 27.1901 30.91C27.4401 30.5 27.3801 30.3 27.0701 29.99C25.6101 28.57 24.1701 27.13 22.7501 25.67C22.3501 25.26 22.1601 25.22 21.8001 25.73C18.7001 30.07 17.5601 34.87 18.4901 40.12C20.2301 49.96 29.6001 56.71 39.4301 55.27C49.6301 53.78 56.7101 44.37 55.3001 34.21C54.0101 25.04 46.1501 18.21 36.8201 18.17ZM30.5201 33.48C28.8401 36.74 29.8001 40.59 32.7501 42.66C35.6001 44.66 39.6101 44.24 41.9801 41.7C44.4601 39.04 44.5901 35.07 42.2901 32.27C40.1701 29.68 36.2301 28.9 33.5101 30.54C33.6701 30.71 33.8301 30.88 33.9901 31.04C35.4001 32.45 36.8101 33.85 38.2101 35.26C38.8301 35.88 39.0601 36.63 38.7701 37.48C38.5001 38.27 37.9101 38.73 37.1001 38.86C36.3301 38.98 35.7101 38.66 35.1701 38.12C33.6401 36.59 32.1001 35.06 30.5201 33.48ZM20.8201 17.87C21.1201 16.27 21.3901 14.77 21.6701 13.28C21.7101 13.04 21.6901 12.85 21.5001 12.66C19.3401 10.51 17.1801 8.34996 15.0301 6.18996C14.7401 5.88996 14.6601 5.99996 14.5401 6.31996C14.1301 7.46996 13.6901 8.60996 13.2501 9.74996C13.1401 10.05 13.1801 10.25 13.4201 10.48C15.8601 12.9 18.2901 15.34 20.8201 17.87ZM5.86006 14.72C8.20006 17.05 10.4401 19.28 12.6801 21.52C12.8201 21.66 12.9701 21.73 13.1701 21.69C14.7001 21.41 16.2301 21.13 17.8501 20.83C15.3101 18.28 12.8301 15.8 10.3601 13.31C10.2001 13.15 10.0501 13.16 9.86006 13.23C8.57006 13.71 7.28006 14.19 5.86006 14.72Z" fill="#FFF12D"/>
</svg>
