<svg width="72" height="72" viewBox="0 0 72 72" fill="none" xmlns="http://www.w3.org/2000/svg">
<path d="M71.1303 47.38C68.8703 51.83 65.9003 55.75 62.3503 59.24C57.3003 64.19 51.5203 67.95 44.6503 69.87C36.2903 72.21 28.1903 71.33 20.4303 67.57C11.6803 63.34 5.10027 56.81 0.460267 48.28C-0.0797335 47.3 -0.189733 46.33 0.350267 45.31C5.37027 35.99 12.6103 29.01 22.4203 24.92C32.5003 20.72 42.4403 21.42 52.0503 26.48C60.1403 30.74 66.2803 37 70.6203 45.04C70.8103 45.39 70.9703 45.77 71.1403 46.13C71.1303 46.55 71.1303 46.97 71.1303 47.38ZM35.9203 27.78C30.8303 27.8 26.3403 28.93 22.1203 31.11C15.3403 34.62 10.2403 39.9 6.20027 46.3C6.01027 46.61 6.04027 46.8 6.22027 47.09C9.61027 52.49 13.7903 57.15 19.2103 60.56C28.4803 66.4 38.1803 67.32 48.1803 62.62C55.4203 59.22 60.7403 53.68 64.9603 47C65.1803 46.64 65.0103 46.44 64.8603 46.2C62.2403 42.03 59.1103 38.31 55.2803 35.21C49.5403 30.58 43.0603 27.85 35.9203 27.78Z" fill="#FFF12D"/>
<path d="M36.2604 0C36.8604 0.36 37.5305 0.62 37.9005 1.28C38.1805 1.77 38.3405 2.29 38.3405 2.86C38.3405 6.52 38.3505 10.17 38.3305 13.83C38.3205 15.46 37.1104 16.68 35.5504 16.68C33.9904 16.68 32.7904 15.45 32.7804 13.82C32.7704 10.19 32.7704 6.55 32.7804 2.92C32.7804 1.56 33.4305 0.64 34.6805 0.16C34.7605 0.13 34.8605 0.13 34.8605 0.01C35.3305 0 35.7904 0 36.2604 0Z" fill="#FFF12D"/>
<path d="M24.7305 16.1C24.7205 17.44 23.8505 18.52 22.5505 18.83C21.3205 19.13 20.0205 18.51 19.4505 17.3C18.6005 15.46 17.7905 13.6 16.9605 11.75C16.3805 10.44 15.7905 9.14 15.2205 7.83C14.5505 6.28 15.1305 4.68 16.5805 4.04C18.0405 3.4 19.5905 4.03 20.2905 5.59C21.6805 8.68 23.0605 11.78 24.4305 14.87C24.6205 15.27 24.7605 15.69 24.7305 16.1Z" fill="#FFF12D"/>
<path d="M46.4003 16.09C46.3703 15.61 46.5503 15.18 46.7303 14.76C48.0803 11.73 49.4303 8.69001 50.7803 5.66001C51.5003 4.04001 53.0303 3.38001 54.5103 4.02001C56.0103 4.67001 56.5703 6.28001 55.8503 7.92001C54.4803 11.02 53.1003 14.12 51.7103 17.2C51.1303 18.48 49.8503 19.12 48.5903 18.83C47.2703 18.53 46.3903 17.43 46.4003 16.09Z" fill="#FFF12D"/>
<path d="M68.1803 14.54C69.3503 14.56 70.2103 15.1 70.7103 16.16C71.2003 17.18 71.0504 18.41 70.2204 19.18C68.0704 21.18 65.9003 23.16 63.6703 25.07C62.5303 26.05 60.8504 25.81 59.8804 24.67C58.9304 23.56 58.9704 21.92 60.0604 20.91C62.1604 18.96 64.3103 17.06 66.4503 15.15C66.9403 14.72 67.5303 14.54 68.1803 14.54Z" fill="#FFF12D"/>
<path d="M2.94017 14.54C3.64017 14.53 4.26017 14.76 4.78017 15.23C6.86017 17.1 8.96017 18.95 11.0202 20.85C12.1602 21.9 12.2102 23.59 11.2102 24.72C10.2102 25.85 8.52017 26.01 7.35017 25C5.20017 23.12 3.09017 21.21 1.00017 19.28C0.110166 18.46 -0.0798337 17.31 0.380166 16.23C0.820166 15.18 1.79017 14.54 2.94017 14.54Z" fill="#FFF12D"/>
<path d="M35.5705 60.33C28.0405 60.34 21.9305 54.25 21.9205 46.72C21.9005 39.15 28.0105 33.04 35.5805 33.05C43.1205 33.06 49.2005 39.15 49.2005 46.69C49.2005 54.22 43.1105 60.32 35.5705 60.33ZM43.6405 46.7C43.6405 42.23 40.0505 38.62 35.5905 38.61C31.1205 38.6 27.5005 42.19 27.4805 46.65C27.4605 51.15 31.0805 54.78 35.5705 54.77C40.0305 54.76 43.6405 51.16 43.6405 46.7Z" fill="#FFF12D"/>
</svg>
