<svg width="19" height="23" viewBox="0 0 19 23" fill="none" xmlns="http://www.w3.org/2000/svg">
<path d="M9.73992 0.75C10.1799 0.89 10.46 1.23 10.77 1.54C13.22 3.99 15.6699 6.44 18.1199 8.89C18.5899 9.36 18.7099 9.93 18.3799 10.43C18.0899 10.87 17.6999 11.25 17.2599 11.56C16.8399 11.85 16.29 11.78 15.9 11.46C15.82 11.4 15.7499 11.33 15.6799 11.26C14.2499 9.82 12.8099 8.38 11.3799 6.95C11.3299 6.9 11.2799 6.84 11.1899 6.74C11.1899 6.88 11.1899 6.95 11.1899 7.02C11.1899 11.75 11.1899 16.49 11.1899 21.22C11.1899 22.09 10.71 22.58 9.83996 22.58C9.57996 22.58 9.30992 22.58 9.04992 22.58C8.25992 22.58 7.77996 22.1 7.77996 21.3C7.77996 16.56 7.77996 11.82 7.77996 7.08C7.77996 7 7.77996 6.93 7.77996 6.85C7.76996 6.84 7.74992 6.83 7.73992 6.82C7.68992 6.88 7.64996 6.94 7.58996 6.99C6.15996 8.42 4.72991 9.85 3.28991 11.28C2.64991 11.91 1.97996 11.91 1.33996 11.28C1.14996 11.09 0.969961 10.91 0.779961 10.72C0.269961 10.19 0.269961 9.49 0.779961 8.97C3.37996 6.36 5.98996 3.76 8.58996 1.15C8.77996 0.96 9.01994 0.87 9.25994 0.77C9.41994 0.75 9.57992 0.75 9.73992 0.75Z" fill="#FFF12D"/>
</svg>
