<svg width="27" height="27" viewBox="0 0 27 27" fill="none" xmlns="http://www.w3.org/2000/svg">
<path d="M13.1501 26.3301C5.88007 26.3201 -0.0199493 20.4102 5.06974e-05 13.1502C0.0100507 5.8802 5.93004 -0.0199493 13.18 5.06964e-05C20.45 0.0200507 26.3401 5.92023 26.3301 13.1802C26.3201 20.4602 20.4101 26.3501 13.1501 26.3301ZM6.80004 13.2103C6.79004 13.6403 6.97007 13.9801 7.27007 14.2801C8.28007 15.2901 9.29004 16.3001 10.3 17.3101C11.09 18.1001 11.8501 18.1101 12.6401 17.3101C14.7501 15.2001 16.86 13.09 18.98 10.97C19.06 10.89 19.15 10.8003 19.22 10.7103C19.67 10.1603 19.6301 9.34014 19.1301 8.84014C18.5601 8.26014 17.68 8.2902 17.06 8.9002C15.27 10.6802 13.4801 12.4701 11.7001 14.2601C11.5301 14.4301 11.4401 14.4701 11.2501 14.2701C10.5701 13.5601 9.88004 12.8702 9.18004 12.1902C8.76004 11.7802 8.15005 11.6702 7.63006 11.9202C7.10006 12.1902 6.82004 12.6203 6.80004 13.2103Z" fill="#4F028E"/>
</svg>
