<svg width="31" height="31" viewBox="0 0 31 31" fill="none" xmlns="http://www.w3.org/2000/svg">
<path d="M16.36 30.4721C15.57 30.4721 14.77 30.4721 13.98 30.4721C13.96 30.3921 13.89 30.4121 13.83 30.4121C13.32 30.3621 12.81 30.2821 12.3 30.1921C6.01 28.9921 1.07 23.8121 0.16 17.5021C0.12 17.1821 0.15 16.8521 0 16.5521C0 15.6821 0 14.8121 0 13.9321C0.12 13.7921 0.08 13.6221 0.1 13.4621C0.52 9.95206 1.95 6.91206 4.49 4.46206C8.67 0.432058 13.65 -0.877941 19.27 0.572059C25.73 2.23206 30.39 8.30206 30.45 14.9721C30.48 18.1321 29.68 21.0421 27.9 23.6621C25.39 27.3721 21.9 29.5821 17.47 30.3021C17.1 30.3621 16.72 30.3421 16.36 30.4721ZM15.22 2.15206C7.99 2.15206 2.13 8.01206 2.13 15.2421C2.13 22.4621 7.98 28.3321 15.21 28.3421C22.44 28.3521 28.33 22.4621 28.32 15.2321C28.31 7.99206 22.45 2.14206 15.22 2.15206Z" fill="#FFF12D"/>
<path d="M15.05 7.60205C15.87 7.61205 16.66 7.74205 17.41 8.10205C19.2 8.96205 19.81 10.8121 18.86 12.5621C18.44 13.3321 17.84 13.9421 17.17 14.4921C16.99 14.6321 16.82 14.7821 16.65 14.9321C16.2 15.3521 15.97 15.8721 15.95 16.482C15.94 16.682 15.94 16.8821 15.94 17.0721C15.93 17.432 15.76 17.6721 15.43 17.7921C15.05 17.9221 14.65 17.9321 14.26 17.8321C13.88 17.732 13.73 17.4221 13.7 17.0721C13.56 15.6121 13.92 14.3421 15.13 13.4021C15.47 13.1421 15.8 12.8721 16.12 12.5921C16.43 12.3221 16.66 11.9921 16.76 11.5721C16.91 10.9421 16.66 10.3921 16.1 10.1021C15.07 9.57205 13.83 9.87205 13.18 10.8121C12.75 11.4321 12.34 11.5721 11.75 11.2921C11.21 11.0421 10.98 10.4721 11.18 9.83205C11.46 8.91205 12.14 8.36205 12.99 7.98205C13.63 7.70205 14.33 7.60205 15.05 7.60205Z" fill="#FFF12D"/>
<path d="M14.78 19.282C15.63 19.282 16.32 19.992 16.31 20.842C16.3 21.672 15.59 22.372 14.76 22.362C13.93 22.352 13.25 21.652 13.25 20.802C13.26 19.972 13.95 19.282 14.78 19.282Z" fill="#FFF12D"/>
</svg>
