<svg width="87" height="87" viewBox="0 0 87 87" fill="none" xmlns="http://www.w3.org/2000/svg">
<path d="M62.6 86.35H23.75C10.63 86.35 0 75.72 0 62.6V23.75C0 10.63 10.63 0 23.75 0H62.6C75.72 0 86.35 10.63 86.35 23.75V62.6C86.35 75.72 75.72 86.35 62.6 86.35Z" fill="#4F028E"/>
<path d="M43.17 54.2799C49.3059 54.2799 54.28 49.3058 54.28 43.1699C54.28 37.034 49.3059 32.0599 43.17 32.0599C37.0341 32.0599 32.06 37.034 32.06 43.1699C32.06 49.3058 37.0341 54.2799 43.17 54.2799Z" fill="#FFF12D"/>
<path opacity="0.47" d="M43.17 60.2899C52.6251 60.2899 60.29 52.625 60.29 43.1699C60.29 33.7148 52.6251 26.0499 43.17 26.0499C33.7149 26.0499 26.05 33.7148 26.05 43.1699C26.05 52.625 33.7149 60.2899 43.17 60.2899Z" fill="#FFF12D"/>
<path opacity="0.36" d="M43.17 66.6699C56.1487 66.6699 66.67 56.1486 66.67 43.1699C66.67 30.1912 56.1487 19.6699 43.17 19.6699C30.1913 19.6699 19.67 30.1912 19.67 43.1699C19.67 56.1486 30.1913 66.6699 43.17 66.6699Z" fill="#FFF12D"/>
<path opacity="0.28" d="M43.17 72.86C59.5673 72.86 72.86 59.5673 72.86 43.17C72.86 26.7726 59.5673 13.48 43.17 13.48C26.7727 13.48 13.48 26.7726 13.48 43.17C13.48 59.5673 26.7727 72.86 43.17 72.86Z" fill="#FFF12D"/>
</svg>
