<svg width="36" height="31" viewBox="0 0 36 31" fill="none" xmlns="http://www.w3.org/2000/svg">
<path d="M25.14 29.65H10.73C5.91 29.65 2 25.74 2 20.92V10.73C2 5.91 5.91 2 10.73 2H25.13C29.95 2 33.86 5.91 33.86 10.73V20.92C33.87 25.74 29.96 29.65 25.14 29.65Z" stroke="#FFF12D" stroke-width="2.3153" stroke-miterlimit="10"/>
<path d="M27.6999 29.65H17.9399V2.01001H27.6999C31.1099 2.01001 33.8699 4.77001 33.8699 8.18001V23.48C33.8699 26.89 31.0999 29.65 27.6999 29.65Z" fill="#FFF12D"/>
<path d="M12.1701 11.42H6.81005C6.33005 11.42 5.93005 11.81 5.93005 12.3V12.48C5.93005 12.96 6.32005 13.36 6.81005 13.36H12.1701C12.6501 13.36 13.0501 12.97 13.0501 12.48V12.3C13.0501 11.82 12.6501 11.42 12.1701 11.42Z" fill="#FFF12D"/>
<path d="M12.1701 7.73001H6.81005C6.33005 7.73001 5.93005 8.12001 5.93005 8.61001V8.79001C5.93005 9.27001 6.32005 9.67001 6.81005 9.67001H12.1701C12.6501 9.67001 13.0501 9.28001 13.0501 8.79001V8.61001C13.0501 8.13001 12.6501 7.73001 12.1701 7.73001Z" fill="#FFF12D"/>
</svg>
