<svg width="33" height="24" viewBox="0 0 33 24" fill="none" xmlns="http://www.w3.org/2000/svg">
<path d="M16.2 23.6016C11.4 23.6016 6.6 23.6016 1.8 23.6016C0.56 23.6016 0 23.0516 0 21.8216C0 16.1116 0 10.4016 0 4.69163C0 3.52163 0.57 2.97162 1.74 2.96162C2.14 2.96162 2.67 3.13164 2.9 2.89164C3.1 2.68164 2.98 2.15164 2.95 1.76164C2.87 0.661638 3.64 -0.0383716 4.74 0.00162838C6.65 0.0616284 8.56 0.0616247 10.46 0.341625C11.96 0.561625 13.42 0.881625 14.77 1.59162C15.23 1.83162 15.66 2.12162 16.05 2.46162C16.14 2.54162 16.2 2.63164 16.34 2.51164C17.73 1.29164 19.43 0.80163 21.2 0.47163C23.28 0.0916296 25.39 0.0416174 27.49 0.0216174C27.75 0.0216174 28.02 0.00161617 28.28 0.0516162C28.97 0.191616 29.46 0.751641 29.48 1.45164C29.49 1.88164 29.49 2.30164 29.48 2.73164C29.47 2.93164 29.54 2.98163 29.73 2.97163C30.12 2.96163 30.51 2.96163 30.9 2.97163C31.76 2.98163 32.38 3.56164 32.43 4.42164C32.44 4.52164 32.43 4.63164 32.43 4.73164C32.43 10.4316 32.43 16.1216 32.43 21.8216C32.43 23.0416 31.87 23.6016 30.67 23.6016C25.85 23.6016 21.02 23.6016 16.2 23.6016ZM15.47 21.1316C15.47 20.9716 15.47 20.8516 15.47 20.7316C15.47 15.4616 15.44 10.1916 15.5 4.92164C15.51 4.01164 15.18 3.48162 14.45 3.08161C14.22 2.95161 13.99 2.82164 13.75 2.70164C12.78 2.25164 11.76 2.01162 10.71 1.84162C8.72 1.52162 6.7 1.49163 4.69 1.47163C4.44 1.47163 4.42 1.57162 4.42 1.77162C4.42 7.46162 4.42 13.1616 4.42 18.8516C4.42 19.1016 4.49 19.1616 4.73 19.1616C5.81 19.1616 6.89 19.1616 7.97 19.2316C10.57 19.4316 13.14 19.7116 15.47 21.1316ZM16.96 21.1016C17.01 21.1016 17.04 21.1016 17.05 21.0916C18.6 20.1016 20.34 19.7216 22.13 19.4716C23.95 19.2216 25.77 19.1716 27.6 19.1916C27.92 19.1916 28.02 19.1216 28.02 18.7816C28.01 13.2116 28.01 7.64164 28.01 2.07164C28.01 1.50164 28.01 1.50163 27.43 1.50163C25.06 1.51163 22.69 1.56163 20.37 2.13163C19.22 2.41163 18.14 2.83164 17.24 3.64164C17.04 3.82164 16.95 4.01164 16.95 4.29164C16.96 9.78164 16.96 15.2716 16.96 20.7516C16.96 20.8816 16.96 20.9916 16.96 21.1016ZM14.15 22.1116C13.46 21.6616 12.14 21.2516 10.97 21.0516C8.86 20.7016 6.74 20.6516 4.61 20.6416C3.53 20.6416 2.96 20.0516 2.96 18.9716C2.96 14.9816 2.96 10.9816 2.96 6.99162C2.96 6.25162 2.94 5.52163 2.97 4.78163C2.98 4.46163 2.87 4.39164 2.59 4.42164C2.34 4.44164 2.08 4.44164 1.83 4.42164C1.55 4.39164 1.49 4.50164 1.49 4.76164C1.5 10.4316 1.5 16.1016 1.49 21.7816C1.49 22.0616 1.57 22.1116 1.83 22.1116C5.82 22.1016 9.82 22.1016 13.81 22.1016C13.89 22.1116 13.98 22.1116 14.15 22.1116ZM18.37 22.1116C18.48 22.1116 18.59 22.1116 18.71 22.1116C22.67 22.1116 26.63 22.1116 30.58 22.1216C30.89 22.1216 30.95 22.0416 30.95 21.7416C30.94 16.1016 30.94 10.4716 30.94 4.83161C30.94 4.77162 30.93 4.71163 30.94 4.66163C30.96 4.47163 30.88 4.42162 30.7 4.43162C30.41 4.44162 30.12 4.46162 29.84 4.43162C29.53 4.40162 29.46 4.50162 29.46 4.80162C29.47 9.53162 29.47 14.2616 29.47 18.9916C29.47 20.0716 28.89 20.6516 27.81 20.6516C25.55 20.6616 23.3 20.7016 21.08 21.1316C20.14 21.3216 19.22 21.5816 18.37 22.1116Z" fill="#FFF12D"/>
</svg>
