<svg width="32" height="31" viewBox="0 0 32 31" fill="none" xmlns="http://www.w3.org/2000/svg">
<path d="M31.28 16.2298C31.16 16.3698 31.18 16.5498 31.14 16.7098C30.75 18.1298 29.9 19.1798 28.58 19.8398C28.38 19.9398 28.33 20.0098 28.41 20.2398C29.41 22.9698 27.73 25.9698 24.88 26.5598C24.62 26.6098 24.48 26.7198 24.38 26.9798C22.98 30.5398 18.23 31.2498 15.82 28.2698C15.67 28.0898 15.62 28.0698 15.46 28.2698C14.24 29.7298 12.66 30.3598 10.79 30.0798C8.87 29.7798 7.54 28.6798 6.84 26.8498C6.76 26.6298 6.61 26.6298 6.45 26.5898C4.42 26.0798 3.12 24.8298 2.65 22.7798C2.45 21.8998 2.56 21.0398 2.87 20.1998C2.94 20.0298 2.91 19.9698 2.75 19.8798C0.920002 18.9298 -0.0799984 17.4298 0.0100016 15.3598C0.0900016 13.3198 1.17 11.8998 3.04 11.0898C3.19 11.0198 3.22 10.9698 3.17 10.8098C2.25 8.04978 3.76 5.28977 6.59 4.54977C6.76 4.50977 6.82 4.44978 6.85 4.25978C7.12 1.74978 9.47 -0.190226 11.99 0.0197736C13.41 0.129774 14.59 0.729771 15.49 1.82977C15.65 2.01977 15.69 1.94978 15.81 1.80978C17.57 -0.290218 20.58 -0.610225 22.69 1.09978C23.7 1.91978 24.28 2.98978 24.43 4.27978C24.45 4.45978 24.52 4.50977 24.68 4.54977C26.82 5.10977 28.2 6.74978 28.38 8.94978C28.43 9.58978 28.33 10.2098 28.11 10.8098C28.06 10.9598 28.05 11.0298 28.22 11.0998C29.88 11.7798 30.88 13.0198 31.22 14.7798C31.23 14.8298 31.21 14.8798 31.28 14.8998C31.28 15.3298 31.28 15.7798 31.28 16.2298ZM14.72 15.0298C14.72 11.6698 14.72 8.30978 14.72 4.94978C14.72 2.98978 13.18 1.63978 11.23 1.86978C9.23 2.10978 8.02 4.36977 8.98 6.12977C9.52 7.12977 10.4 7.59977 11.52 7.65977C12.09 7.68977 12.48 8.10978 12.45 8.61978C12.41 9.15978 11.97 9.51978 11.39 9.47978C9.38 9.34978 7.95 8.36978 7.14 6.50978C7.08 6.36978 7.04 6.30978 6.86 6.36978C5.89 6.69978 5.2 7.31978 4.88 8.28978C4.55 9.27978 4.73 10.1898 5.36 11.0298C5.69 11.4698 5.69 11.8998 5.38 12.2598C5.19 12.4798 4.94 12.5598 4.65 12.5898C3.06 12.7398 1.89 13.9198 1.83 15.4098C1.77 16.9298 2.82 18.2098 4.36 18.4898C5.29 18.6598 5.57 19.3598 5.01 20.1098C3.82 21.6998 4.47 23.9298 6.34 24.6498C6.51 24.7098 6.57 24.7198 6.6 24.4998C6.97 22.0598 9.12 20.2298 11.53 20.2798C12.06 20.2898 12.45 20.6698 12.46 21.1698C12.47 21.6798 12.09 22.0698 11.57 22.1098C11.36 22.1298 11.14 22.1398 10.93 22.1698C8.61 22.5698 7.58 25.3598 9.09 27.1698C9.95 28.1998 11.36 28.5798 12.63 28.1298C13.9 27.6798 14.71 26.5298 14.71 25.1598C14.72 21.7698 14.72 18.3998 14.72 15.0298ZM16.55 15.0198C16.55 18.3598 16.55 21.6998 16.55 25.0398C16.55 26.8698 17.79 28.1798 19.62 28.2898C21.49 28.3998 23.09 26.7098 22.87 24.8498C22.68 23.2698 21.42 22.1598 19.77 22.0898C19.2 22.0698 18.81 21.6798 18.82 21.1498C18.83 20.6198 19.23 20.2498 19.81 20.2498C22.21 20.2498 24.29 22.0398 24.68 24.4398C24.72 24.6698 24.77 24.6898 24.97 24.6098C26.84 23.8498 27.46 21.6698 26.26 20.0598C25.72 19.3398 26 18.6198 26.89 18.4698C28.79 18.1498 29.93 16.2898 29.27 14.5298C28.81 13.2998 27.86 12.6798 26.58 12.5598C26.07 12.5098 25.71 12.1698 25.68 11.6898C25.66 11.3798 25.83 11.1498 26 10.9198C27.19 9.27978 26.39 6.95978 24.46 6.36978C24.3 6.31978 24.22 6.30977 24.14 6.49977C23.33 8.36977 21.89 9.34977 19.86 9.46977C19.3 9.49977 18.87 9.12977 18.83 8.60977C18.79 8.10977 19.18 7.68978 19.72 7.64978C20.01 7.61978 20.31 7.59977 20.59 7.51977C22.08 7.05977 22.92 5.55978 22.53 4.05978C22.13 2.52978 20.5 1.54978 18.95 1.89978C17.51 2.22978 16.56 3.39977 16.55 4.87977C16.55 8.25977 16.55 11.6398 16.55 15.0198Z" fill="#FFF12D"/>
<path d="M11.53 14.9998C11.53 17.2098 9.73 18.9998 7.58 18.9998C7.05 18.9998 6.65 18.6498 6.61 18.1398C6.58 17.6498 6.94 17.2298 7.47 17.1698C7.72 17.1398 7.98 17.1398 8.22 17.0498C9.18 16.7298 9.81 15.7498 9.68 14.7998C9.53 13.7398 8.69 12.9698 7.6 12.9198C6.96 12.8898 6.55 12.4598 6.62 11.8998C6.68 11.4298 7.05 11.0998 7.53 11.0798C9.38 11.0298 11.18 12.5098 11.46 14.3498C11.51 14.5898 11.55 14.8198 11.53 14.9998Z" fill="#FFF12D"/>
<path d="M19.73 15.0298C19.74 12.9098 21.51 11.1198 23.63 11.0998C24.21 11.0898 24.64 11.4698 24.65 11.9998C24.66 12.5198 24.26 12.8998 23.69 12.9298C22.56 12.9798 21.68 13.7898 21.57 14.8698C21.47 15.8998 22.18 16.8598 23.24 17.1098C23.43 17.1498 23.62 17.1498 23.81 17.1798C24.32 17.2498 24.67 17.6598 24.64 18.1398C24.61 18.6498 24.21 18.9998 23.68 18.9998C21.52 18.9998 19.72 17.1998 19.73 15.0298Z" fill="#FFF12D"/>
</svg>
