<svg width="26" height="28" viewBox="0 0 26 28" fill="none" xmlns="http://www.w3.org/2000/svg">
<path d="M18.24 0C18.55 0.08 18.87 0.13 19.17 0.23C20.99 0.86 22.12 2.46 22.13 4.46C22.14 6.62 22.13 8.79 22.13 10.95C22.13 11.54 21.86 11.94 21.39 12.1C20.94 12.25 20.46 12.1 20.17 11.73C19.97 11.48 19.94 11.18 19.94 10.88C19.94 8.76 19.94 6.65 19.94 4.53C19.94 3.77 19.7 3.13 19.09 2.65C18.69 2.33 18.23 2.19 17.72 2.19C13.28 2.19 8.83 2.18 4.39 2.19C3.1 2.19 2.2 3.13 2.17 4.45C2.16 4.93 2.17 5.41 2.17 5.89C2.17 11.72 2.17 17.54 2.17 23.37C2.17 24.14 2.4 24.79 3.02 25.28C3.44 25.62 3.94 25.74 4.47 25.74C5.64 25.74 6.81 25.73 7.99 25.74C8.85 25.75 9.37 26.64 8.95 27.37C8.75 27.72 8.44 27.91 8.04 27.92C6.72 27.93 5.4 27.97 4.09 27.9C1.83 27.79 0 25.9 0 23.49C0.01 17.14 0.01 10.79 0 4.43C0 2.13 1.67 0.34 3.71 0.05C3.74 0.05 3.78 0.04 3.79 0C8.61 0 13.42 0 18.24 0Z" fill="#FFF12D"/>
<path d="M25.02 18.07C25.02 19.01 24.69 19.79 24.04 20.44C22.08 22.4 20.12 24.36 18.16 26.32C17.95 26.53 17.71 26.64 17.43 26.72C16.08 27.09 14.72 27.46 13.37 27.84C12.92 27.97 12.5 27.95 12.16 27.6C11.81 27.25 11.78 26.82 11.92 26.36C12.33 25.03 12.73 23.69 13.14 22.36C13.22 22.09 13.36 21.87 13.55 21.67C15.5 19.73 17.44 17.78 19.4 15.84C20.34 14.91 21.46 14.6 22.73 14.99C23.98 15.38 24.72 16.27 24.98 17.55C24.99 17.6 25 17.66 25 17.71C25.01 17.84 25.02 17.97 25.02 18.07ZM14.54 25.25C15.28 25.04 15.96 24.85 16.64 24.67C16.73 24.64 16.8 24.59 16.86 24.53C18.11 23.28 19.37 22.02 20.62 20.78C20.74 20.66 20.74 20.6 20.62 20.48C20.21 20.08 19.8 19.68 19.41 19.27C19.26 19.12 19.19 19.12 19.04 19.27C17.81 20.51 16.57 21.74 15.34 22.97C15.28 23.03 15.21 23.08 15.19 23.16C14.97 23.83 14.77 24.51 14.54 25.25ZM22.84 18.19C22.84 17.65 22.56 17.24 22.13 17.08C21.69 16.92 21.16 17.08 20.86 17.46C20.8 17.53 20.8 17.57 20.86 17.64C21.32 18.09 21.77 18.55 22.22 19.01C22.28 19.08 22.32 19.08 22.39 19.02C22.66 18.76 22.85 18.49 22.84 18.19Z" fill="#FFF12D"/>
<path d="M11.07 6.53998C12.92 6.53998 14.78 6.53998 16.63 6.53998C17.51 6.53998 18.05 7.40998 17.63 8.15998C17.43 8.50998 17.12 8.69998 16.72 8.71998C16.53 8.72998 16.34 8.71998 16.15 8.71998C12.62 8.71998 9.10001 8.71998 5.57001 8.71998C4.79001 8.71998 4.29001 8.18998 4.38001 7.46998C4.45001 6.92998 4.90001 6.54998 5.51001 6.54998C7.00001 6.54998 8.49001 6.54998 9.98001 6.54998C10.34 6.53998 10.7 6.53998 11.07 6.53998Z" fill="#FFF12D"/>
<path d="M11.07 10.91C12.92 10.91 14.78 10.9 16.63 10.91C17.51 10.91 18.04 11.79 17.62 12.53C17.42 12.89 17.09 13.08 16.68 13.08C16.29 13.09 15.9 13.08 15.51 13.08C12.19 13.08 8.87 13.08 5.56 13.08C4.78 13.08 4.28 12.55 4.37 11.83C4.44 11.28 4.9 10.9 5.5 10.9C7.17 10.9 8.84 10.9 10.52 10.9C10.71 10.91 10.89 10.91 11.07 10.91Z" fill="#FFF12D"/>
<path d="M8.86 17.45C7.72 17.45 6.59 17.46 5.45 17.45C4.97 17.45 4.61 17.21 4.44 16.76C4.28 16.34 4.35 15.94 4.67 15.6C4.88 15.38 5.15 15.27 5.45 15.27C7.72 15.27 9.99 15.26 12.26 15.27C12.88 15.27 13.35 15.76 13.35 16.36C13.35 16.96 12.88 17.44 12.26 17.45C11.13 17.46 10 17.45 8.86 17.45Z" fill="#FFF12D"/>
</svg>
