<svg width="216" height="76" viewBox="0 0 216 76" fill="none" xmlns="http://www.w3.org/2000/svg">
<path d="M46.6 17.65L38.18 17.81V15.16C38.18 11.46 35.15 8.42 31.44 8.42H23.31C19.77 8.42 16.87 11.32 16.87 14.86V28.04H43.67V36.46H30.9C25.51 36.46 20.42 34.1 16.88 30.1V75.23H8.46V36.5H0V28.04H14.94L13.28 25.9C10.4 22.18 8.83 17.61 8.83 12.91V10.87C8.83 8.31 9.83 5.82 11.69 4.06C14.11 1.77 17.7 0 21.68 0H31.45C39.78 0 46.6 6.78 46.6 15.16V16.42V17.65Z" fill="#F5F4F6"/>
<path d="M136.96 66.82C142.89 66.82 147.82 62.44 148.7 56.76L156.53 60.25C154.22 68.88 146.3 75.23 136.96 75.23H127.95C116.71 75.23 107.62 66.1 107.62 54.9V40.89C107.62 29.65 116.71 20.52 127.95 20.52H136.96C146.34 20.52 154.3 26.96 156.57 35.63L148.74 39.08C147.86 33.36 142.89 28.94 136.96 28.94H127.95C121.38 28.94 116.04 34.33 116.04 40.89V54.91C116.04 61.48 121.38 66.82 127.95 66.82H136.96Z" fill="#F5F4F6"/>
<path d="M186.3 75.24C175.08 75.24 165.95 66.11 165.95 54.89V40.88C165.95 29.66 175.08 20.53 186.3 20.53H195.29C206.51 20.53 215.64 29.66 215.64 40.88V54.89C215.64 66.11 206.51 75.24 195.29 75.24H186.3ZM174.37 40.88V54.89C174.37 61.47 179.72 66.82 186.3 66.82H195.29C201.87 66.82 207.22 61.47 207.22 54.89V40.88C207.22 34.3 201.87 28.95 195.29 28.95H186.3C179.72 28.94 174.37 34.3 174.37 40.88Z" fill="#F5F4F6"/>
<path d="M8.84 12.91V38.22L16.88 28.04" fill="#F5F4F6"/>
<path d="M36.33 36.46H11.66L14.34 30.07L16.88 29.36L28.31 32.03" fill="#F5F4F6"/>
<path d="M75.37 58.34C81.1469 58.34 85.83 53.6569 85.83 47.88C85.83 42.1031 81.1469 37.42 75.37 37.42C69.5931 37.42 64.91 42.1031 64.91 47.88C64.91 53.6569 69.5931 58.34 75.37 58.34Z" fill="#FFF12D"/>
<path opacity="0.47" d="M75.37 64.01C84.2783 64.01 91.5 56.7884 91.5 47.88C91.5 38.9716 84.2783 31.75 75.37 31.75C66.4616 31.75 59.24 38.9716 59.24 47.88C59.24 56.7884 66.4616 64.01 75.37 64.01Z" fill="#FFF12D"/>
<path opacity="0.36" d="M75.37 70.02C87.5976 70.02 97.51 60.1076 97.51 47.88C97.51 35.6524 87.5976 25.74 75.37 25.74C63.1424 25.74 53.23 35.6524 53.23 47.88C53.23 60.1076 63.1424 70.02 75.37 70.02Z" fill="#FFF12D"/>
<path opacity="0.28" d="M75.37 75.85C90.8174 75.85 103.34 63.3274 103.34 47.88C103.34 32.4326 90.8174 19.91 75.37 19.91C59.9226 19.91 47.4 32.4326 47.4 47.88C47.4 63.3274 59.9226 75.85 75.37 75.85Z" fill="#FFF12D"/>
</svg>
