<svg width="36" height="31" viewBox="0 0 36 31" fill="none" xmlns="http://www.w3.org/2000/svg">
<path d="M25.14 29.65H10.73C5.91 29.65 2 25.74 2 20.92V10.73C2 5.91 5.91 2 10.73 2H25.13C29.95 2 33.86 5.91 33.86 10.73V20.92C33.87 25.74 29.96 29.65 25.14 29.65Z" stroke="#4F028E" stroke-width="2.3153" stroke-miterlimit="10"/>
<path d="M27.6999 29.65H17.9399V2.01001H27.6999C31.1099 2.01001 33.8699 4.77001 33.8699 8.18001V23.48C33.8699 26.89 31.0999 29.65 27.6999 29.65Z" fill="#4F028E"/>
<path d="M12.1701 11.4199H6.81005C6.33005 11.4199 5.93005 11.8099 5.93005 12.2999V12.4799C5.93005 12.9599 6.32005 13.3599 6.81005 13.3599H12.1701C12.6501 13.3599 13.0501 12.9699 13.0501 12.4799V12.2999C13.0501 11.8199 12.6501 11.4199 12.1701 11.4199Z" fill="#4F028E"/>
<path d="M12.1701 7.72998H6.81005C6.33005 7.72998 5.93005 8.11998 5.93005 8.60998V8.78998C5.93005 9.26998 6.32005 9.66998 6.81005 9.66998H12.1701C12.6501 9.66998 13.0501 9.27998 13.0501 8.78998V8.60998C13.0501 8.12998 12.6501 7.72998 12.1701 7.72998Z" fill="#4F028E"/>
</svg>
