<svg width="32" height="32" viewBox="0 0 32 32" fill="none" xmlns="http://www.w3.org/2000/svg">
<path d="M17.18 13.17C17.96 13.9 18.82 14.69 19.66 15.48C20.21 16 20.96 16.03 21.47 15.52C21.97 15.02 21.96 14.27 21.45 13.74C19.93 12.18 18.42 10.62 16.89 9.06998C16.31 8.47998 15.58 8.48998 15 9.06998C14.62 9.44998 14.25 9.83996 13.87 10.23C12.73 11.39 11.6 12.56 10.46 13.72C9.9 14.3 9.92 15.09 10.49 15.59C11 16.03 11.71 15.99 12.22 15.48C12.97 14.72 13.71 13.95 14.46 13.19C14.53 13.12 14.58 13.03 14.7 13.01C14.7 13.14 14.7 13.25 14.7 13.37C14.7 16.18 14.7 18.99 14.7 21.8C14.7 22.01 14.71 22.21 14.79 22.41C15 22.95 15.58 23.28 16.14 23.19C16.75 23.09 17.19 22.58 17.19 21.95C17.2 20.07 17.19 18.2 17.19 16.32C17.18 15.22 17.18 14.12 17.18 13.17Z" fill="#FFF12D"/>
<path d="M17.18 13.17C17.18 14.11 17.18 15.21 17.18 16.31C17.18 18.19 17.18 20.06 17.18 21.94C17.18 22.57 16.74 23.08 16.13 23.18C15.58 23.27 14.99 22.94 14.78 22.4C14.7 22.2 14.69 22 14.69 21.79C14.69 18.98 14.69 16.17 14.69 13.36C14.69 13.25 14.69 13.13 14.69 13C14.57 13.02 14.52 13.12 14.45 13.18C13.7 13.94 12.96 14.71 12.21 15.47C11.7 15.98 10.99 16.02 10.48 15.58C9.91 15.09 9.89 14.29 10.45 13.71C11.58 12.54 12.72 11.38 13.86 10.22C14.24 9.82998 14.61 9.43997 14.99 9.05997C15.57 8.47997 16.31 8.46997 16.88 9.05997C18.4 10.61 19.92 12.17 21.44 13.73C21.96 14.26 21.96 15.01 21.46 15.51C20.96 16.02 20.21 15.99 19.65 15.47C18.81 14.69 17.96 13.9 17.18 13.17Z" fill="#FFF12D"/>
<path d="M15.93 0C7.15 0 0.0200043 7.12 0.0200043 15.91C0.0200043 24.7 7.14 31.82 15.93 31.82C24.72 31.82 31.84 24.7 31.84 15.91C31.84 7.12 24.71 0 15.93 0ZM15.93 29.48C8.47 29.48 2.43 23.43 2.43 15.98C2.43 8.51998 8.48 2.47998 15.93 2.47998C23.38 2.47998 29.43 8.52998 29.43 15.98C29.43 23.43 23.39 29.48 15.93 29.48Z" fill="#FFF12D"/>
</svg>
