<svg width="345" height="122" viewBox="0 0 345 122" fill="none" xmlns="http://www.w3.org/2000/svg">
<path d="M74.53 28.23L61.06 28.49V24.25C61.06 18.33 56.21 13.48 50.29 13.48H37.29C31.62 13.48 26.99 18.12 26.99 23.78V44.85H69.85V58.32H49.41C40.79 58.32 32.65 54.55 26.99 48.15V120.33H13.53V58.38H0V44.84H23.9L21.25 41.42C16.64 35.47 14.14 28.16 14.14 20.64V17.37C14.14 13.27 15.73 9.3 18.71 6.49C22.57 2.83 28.3 0 34.67 0H50.29C63.62 0 74.53 10.84 74.53 24.24V26.26V28.23Z" fill="#F5F4F6"/>
<path d="M219.03 106.86C228.52 106.86 236.39 99.86 237.81 90.77L250.33 96.36C246.63 110.16 233.97 120.32 219.03 120.32H204.63C186.66 120.32 172.12 105.71 172.12 87.81V65.39C172.12 47.42 186.66 32.82 204.63 32.82H219.03C234.04 32.82 246.76 43.12 250.39 56.98L237.87 62.5C236.46 53.35 228.51 46.28 219.02 46.28H204.62C194.12 46.28 185.57 54.89 185.57 65.39V87.8C185.57 98.3 194.12 106.85 204.62 106.85L219.03 106.86Z" fill="#F5F4F6"/>
<path d="M297.93 120.32C279.99 120.32 265.38 105.72 265.38 87.77V65.37C265.38 47.42 279.98 32.82 297.93 32.82H312.31C330.25 32.82 344.86 47.42 344.86 65.37V87.77C344.86 105.71 330.26 120.32 312.31 120.32H297.93ZM278.85 65.37V87.77C278.85 98.29 287.41 106.85 297.93 106.85H312.31C322.83 106.85 331.39 98.29 331.39 87.77V65.37C331.39 54.85 322.83 46.28 312.31 46.28H297.93C287.41 46.29 278.85 54.85 278.85 65.37Z" fill="#F5F4F6"/>
<path d="M14.13 20.64V61.12L26.99 44.84" fill="#F5F4F6"/>
<path d="M58.1 58.31H18.65L22.92 48.09L26.99 46.95L45.28 51.22" fill="#F5F4F6"/>
<path d="M120.53 93.3C129.77 93.3 137.26 85.8097 137.26 76.57C137.26 67.3303 129.77 59.84 120.53 59.84C111.29 59.84 103.8 67.3303 103.8 76.57C103.8 85.8097 111.29 93.3 120.53 93.3Z" fill="#FFF12D"/>
<path opacity="0.47" d="M120.53 102.36C134.773 102.36 146.32 90.8135 146.32 76.57C146.32 62.3266 134.773 50.78 120.53 50.78C106.287 50.78 94.74 62.3266 94.74 76.57C94.74 90.8135 106.287 102.36 120.53 102.36Z" fill="#FFF12D"/>
<path opacity="0.36" d="M120.53 111.98C140.086 111.98 155.94 96.1264 155.94 76.57C155.94 57.0136 140.086 41.16 120.53 41.16C100.974 41.16 85.12 57.0136 85.12 76.57C85.12 96.1264 100.974 111.98 120.53 111.98Z" fill="#FFF12D"/>
<path opacity="0.28" d="M120.53 121.3C145.234 121.3 165.26 101.274 165.26 76.57C165.26 51.8663 145.234 31.84 120.53 31.84C95.8263 31.84 75.8 51.8663 75.8 76.57C75.8 101.274 95.8263 121.3 120.53 121.3Z" fill="#FFF12D"/>
</svg>
