<svg width="177" height="62" viewBox="0 0 177 62" fill="none" xmlns="http://www.w3.org/2000/svg">
<path d="M38.08 14.42L31.2 14.55V12.38C31.2 9.35 28.72 6.88 25.7 6.88H19.06C16.16 6.88 13.8 9.25 13.8 12.14V22.91H35.7V29.79H25.25C20.85 29.79 16.69 27.86 13.79 24.59V61.47H6.91V29.83H0V22.92H12.21L10.86 21.17C8.5 18.13 7.23 14.4 7.23 10.55V8.88C7.23 6.79 8.04 4.76 9.56 3.32C11.53 1.44 14.46 0 17.71 0H25.69C32.5 0 38.07 5.54 38.07 12.38V13.41L38.08 14.42Z" fill="#F5F4F6"/>
<path d="M111.91 54.6C116.76 54.6 120.78 51.02 121.5 46.38L127.9 49.23C126.01 56.28 119.54 61.47 111.91 61.47H104.55C95.37 61.47 87.94 54.01 87.94 44.86V33.41C87.94 24.23 95.37 16.77 104.55 16.77H111.91C119.58 16.77 126.08 22.03 127.93 29.12L121.53 31.94C120.81 27.26 116.75 23.65 111.9 23.65H104.54C99.17 23.65 94.81 28.05 94.81 33.42V44.87C94.81 50.24 99.18 54.6 104.54 54.6H111.91Z" fill="#F5F4F6"/>
<path d="M152.22 61.47C143.05 61.47 135.59 54.01 135.59 44.84V33.4C135.59 24.23 143.05 16.77 152.22 16.77H159.57C168.74 16.77 176.2 24.23 176.2 33.4V44.85C176.2 54.02 168.74 61.48 159.57 61.48H152.22V61.47ZM142.47 33.4V44.85C142.47 50.23 146.84 54.6 152.22 54.6H159.57C164.95 54.6 169.32 50.23 169.32 44.85V33.4C169.32 28.02 164.95 23.65 159.57 23.65H152.22C146.85 23.65 142.47 28.02 142.47 33.4Z" fill="#F5F4F6"/>
<path d="M7.21997 10.55V31.23L13.79 22.91" fill="#F5F4F6"/>
<path d="M29.68 29.79H9.53003L11.71 24.57L13.79 23.99L23.14 26.17" fill="#F5F4F6"/>
<path d="M61.58 47.67C66.302 47.67 70.13 43.842 70.13 39.12C70.13 34.3979 66.302 30.57 61.58 30.57C56.8579 30.57 53.03 34.3979 53.03 39.12C53.03 43.842 56.8579 47.67 61.58 47.67Z" fill="#FFF12D"/>
<path opacity="0.47" d="M61.58 52.3C68.8591 52.3 74.76 46.3991 74.76 39.12C74.76 31.8409 68.8591 25.94 61.58 25.94C54.3009 25.94 48.4 31.8409 48.4 39.12C48.4 46.3991 54.3009 52.3 61.58 52.3Z" fill="#FFF12D"/>
<path opacity="0.36" d="M61.58 57.21C71.5708 57.21 79.67 49.1108 79.67 39.12C79.67 29.1292 71.5708 21.03 61.58 21.03C51.5892 21.03 43.49 29.1292 43.49 39.12C43.49 49.1108 51.5892 57.21 61.58 57.21Z" fill="#FFF12D"/>
<path opacity="0.28" d="M61.58 61.97C74.1997 61.97 84.43 51.7397 84.43 39.12C84.43 26.5003 74.1997 16.27 61.58 16.27C48.9603 16.27 38.73 26.5003 38.73 39.12C38.73 51.7397 48.9603 61.97 61.58 61.97Z" fill="#FFF12D"/>
</svg>
