<svg width="255" height="142" viewBox="0 0 255 142" fill="none" xmlns="http://www.w3.org/2000/svg">
<path d="M39.22 119.85C38.41 119.85 37.65 119.71 36.96 119.44C36.27 119.17 35.67 118.78 35.17 118.29C34.67 117.8 34.27 117.21 33.99 116.54C33.71 115.87 33.57 115.14 33.57 114.34C33.57 113.55 33.71 112.82 33.99 112.15C34.27 111.48 34.67 110.9 35.18 110.4C35.69 109.91 36.29 109.52 36.98 109.25C37.67 108.98 38.42 108.84 39.24 108.84C40.02 108.84 40.76 108.97 41.45 109.23C42.14 109.49 42.72 109.89 43.2 110.41L42.47 111.14C42.03 110.69 41.54 110.36 41 110.16C40.46 109.96 39.89 109.86 39.27 109.86C38.62 109.86 38.02 109.97 37.46 110.19C36.9 110.41 36.42 110.73 36.01 111.13C35.6 111.53 35.28 112.01 35.04 112.55C34.81 113.09 34.69 113.69 34.69 114.34C34.69 114.99 34.81 115.58 35.04 116.13C35.27 116.67 35.59 117.15 36.01 117.55C36.42 117.96 36.91 118.27 37.46 118.49C38.01 118.71 38.62 118.82 39.27 118.82C39.89 118.82 40.47 118.72 41 118.51C41.54 118.3 42.03 117.97 42.47 117.52L43.2 118.25C42.73 118.78 42.14 119.17 41.45 119.44C40.75 119.72 40.01 119.85 39.22 119.85Z" fill="#F5F4F6"/>
<path d="M47.56 119.84C46.95 119.84 46.42 119.74 45.98 119.54C45.53 119.34 45.19 119.06 44.95 118.71C44.71 118.35 44.59 117.94 44.59 117.48C44.59 117.06 44.69 116.67 44.89 116.33C45.09 115.99 45.42 115.71 45.88 115.5C46.34 115.29 46.95 115.18 47.73 115.18H50.53V116H47.76C46.98 116 46.43 116.14 46.13 116.42C45.83 116.7 45.67 117.04 45.67 117.46C45.67 117.92 45.85 118.29 46.21 118.57C46.57 118.85 47.08 118.99 47.73 118.99C48.35 118.99 48.88 118.85 49.33 118.56C49.78 118.28 50.11 117.87 50.31 117.33L50.56 118.09C50.35 118.63 50 119.05 49.49 119.37C48.98 119.68 48.34 119.84 47.56 119.84ZM50.36 119.76V117.97L50.31 117.68V114.68C50.31 113.99 50.12 113.46 49.73 113.09C49.34 112.72 48.77 112.53 48.01 112.53C47.48 112.53 46.98 112.62 46.51 112.79C46.04 112.96 45.63 113.2 45.3 113.49L44.8 112.67C45.21 112.32 45.71 112.05 46.28 111.86C46.86 111.67 47.46 111.57 48.1 111.57C49.15 111.57 49.96 111.83 50.53 112.35C51.1 112.87 51.39 113.66 51.39 114.72V119.76H50.36Z" fill="#F5F4F6"/>
<path d="M54.39 122.76V111.65H55.44V114.09L55.33 115.71L55.49 117.35V122.76H54.39ZM58.58 119.84C57.88 119.84 57.25 119.68 56.68 119.35C56.11 119.02 55.66 118.56 55.33 117.94C55 117.33 54.83 116.58 54.83 115.69C54.83 114.8 55 114.05 55.33 113.44C55.66 112.83 56.11 112.36 56.67 112.04C57.24 111.72 57.88 111.56 58.59 111.56C59.36 111.56 60.06 111.73 60.67 112.08C61.28 112.43 61.76 112.91 62.12 113.53C62.47 114.15 62.65 114.87 62.65 115.69C62.65 116.52 62.48 117.24 62.12 117.85C61.76 118.46 61.29 118.95 60.67 119.3C60.05 119.65 59.36 119.84 58.58 119.84ZM58.51 118.87C59.09 118.87 59.6 118.74 60.06 118.48C60.52 118.22 60.87 117.85 61.14 117.37C61.41 116.89 61.54 116.34 61.54 115.71C61.54 115.08 61.41 114.53 61.14 114.06C60.87 113.59 60.51 113.22 60.06 112.95C59.61 112.68 59.09 112.55 58.51 112.55C57.93 112.55 57.42 112.68 56.96 112.95C56.5 113.22 56.14 113.59 55.88 114.06C55.62 114.53 55.49 115.09 55.49 115.71C55.49 116.34 55.62 116.89 55.88 117.37C56.14 117.85 56.5 118.22 56.96 118.48C57.41 118.73 57.93 118.87 58.51 118.87Z" fill="#F5F4F6"/>
<path d="M67.12 119.84C66.51 119.84 65.98 119.74 65.54 119.54C65.09 119.34 64.75 119.06 64.51 118.71C64.27 118.35 64.15 117.94 64.15 117.48C64.15 117.06 64.25 116.67 64.45 116.33C64.65 115.99 64.98 115.71 65.44 115.5C65.9 115.29 66.51 115.18 67.29 115.18H70.09V116H67.32C66.54 116 65.99 116.14 65.69 116.42C65.39 116.7 65.23 117.04 65.23 117.46C65.23 117.92 65.41 118.29 65.77 118.57C66.13 118.85 66.64 118.99 67.29 118.99C67.91 118.99 68.44 118.85 68.89 118.56C69.34 118.28 69.67 117.87 69.87 117.33L70.12 118.09C69.91 118.63 69.56 119.05 69.05 119.37C68.53 119.68 67.89 119.84 67.12 119.84ZM69.91 119.76V117.97L69.86 117.68V114.68C69.86 113.99 69.67 113.46 69.28 113.09C68.89 112.72 68.32 112.53 67.56 112.53C67.03 112.53 66.53 112.62 66.06 112.79C65.59 112.96 65.18 113.2 64.85 113.49L64.35 112.67C64.76 112.32 65.26 112.05 65.83 111.86C66.41 111.67 67.01 111.57 67.65 111.57C68.7 111.57 69.51 111.83 70.08 112.35C70.65 112.87 70.94 113.66 70.94 114.72V119.76H69.91Z" fill="#F5F4F6"/>
<path d="M77.32 119.84C76.52 119.84 75.8 119.66 75.16 119.31C74.53 118.95 74.03 118.47 73.67 117.84C73.31 117.22 73.13 116.5 73.13 115.7C73.13 114.89 73.31 114.17 73.67 113.55C74.03 112.93 74.53 112.45 75.16 112.1C75.79 111.75 76.51 111.57 77.32 111.57C78.01 111.57 78.63 111.7 79.19 111.97C79.75 112.24 80.18 112.64 80.5 113.18L79.68 113.74C79.4 113.33 79.06 113.02 78.64 112.83C78.23 112.63 77.78 112.54 77.3 112.54C76.72 112.54 76.2 112.67 75.74 112.93C75.28 113.19 74.91 113.56 74.64 114.04C74.37 114.51 74.24 115.07 74.24 115.71C74.24 116.35 74.37 116.91 74.64 117.38C74.91 117.85 75.27 118.22 75.74 118.48C76.21 118.74 76.72 118.87 77.3 118.87C77.78 118.87 78.23 118.77 78.64 118.58C79.05 118.38 79.4 118.09 79.68 117.68L80.5 118.24C80.18 118.77 79.74 119.16 79.19 119.44C78.63 119.7 78.01 119.84 77.32 119.84Z" fill="#F5F4F6"/>
<path d="M83.08 109.85C82.85 109.85 82.66 109.77 82.51 109.62C82.36 109.47 82.28 109.28 82.28 109.06C82.28 108.84 82.36 108.66 82.51 108.51C82.66 108.36 82.86 108.29 83.08 108.29C83.3 108.29 83.5 108.36 83.65 108.51C83.81 108.65 83.88 108.84 83.88 109.05C83.88 109.28 83.8 109.47 83.66 109.62C83.52 109.77 83.32 109.85 83.08 109.85ZM82.53 119.76V111.64H83.63V119.76H82.53Z" fill="#F5F4F6"/>
<path d="M85.42 112.56V111.65H90.44V112.56H85.42ZM89.25 119.84C88.49 119.84 87.9 119.63 87.49 119.22C87.08 118.81 86.87 118.23 86.87 117.47V109.85H87.97V117.41C87.97 117.88 88.09 118.25 88.33 118.51C88.57 118.77 88.92 118.9 89.37 118.9C89.85 118.9 90.26 118.76 90.58 118.48L90.97 119.27C90.75 119.47 90.49 119.61 90.19 119.7C89.89 119.79 89.57 119.84 89.25 119.84Z" fill="#F5F4F6"/>
<path d="M95.25 119.84C94.64 119.84 94.11 119.74 93.67 119.54C93.22 119.34 92.88 119.06 92.64 118.71C92.4 118.35 92.28 117.94 92.28 117.48C92.28 117.06 92.38 116.67 92.58 116.33C92.78 115.99 93.11 115.71 93.57 115.5C94.03 115.29 94.64 115.18 95.42 115.18H98.22V116H95.45C94.67 116 94.12 116.14 93.82 116.42C93.52 116.7 93.36 117.04 93.36 117.46C93.36 117.92 93.54 118.29 93.9 118.57C94.26 118.85 94.77 118.99 95.42 118.99C96.04 118.99 96.57 118.85 97.02 118.56C97.47 118.28 97.8 117.87 98 117.33L98.25 118.09C98.04 118.63 97.69 119.05 97.18 119.37C96.66 119.68 96.02 119.84 95.25 119.84ZM98.04 119.76V117.97L97.99 117.68V114.68C97.99 113.99 97.8 113.46 97.41 113.09C97.02 112.72 96.45 112.53 95.69 112.53C95.16 112.53 94.66 112.62 94.19 112.79C93.72 112.96 93.31 113.2 92.98 113.49L92.48 112.67C92.89 112.32 93.39 112.05 93.96 111.86C94.54 111.67 95.14 111.57 95.78 111.57C96.83 111.57 97.64 111.83 98.21 112.35C98.78 112.87 99.07 113.66 99.07 114.72V119.76H98.04Z" fill="#F5F4F6"/>
<path d="M105.45 119.84C104.65 119.84 103.93 119.66 103.29 119.31C102.66 118.95 102.16 118.47 101.8 117.84C101.44 117.22 101.26 116.5 101.26 115.7C101.26 114.89 101.44 114.17 101.8 113.55C102.16 112.93 102.66 112.45 103.29 112.1C103.92 111.75 104.64 111.57 105.45 111.57C106.14 111.57 106.76 111.7 107.32 111.97C107.88 112.24 108.31 112.64 108.63 113.18L107.81 113.74C107.53 113.33 107.19 113.02 106.77 112.83C106.36 112.63 105.91 112.54 105.43 112.54C104.85 112.54 104.33 112.67 103.87 112.93C103.41 113.19 103.04 113.56 102.77 114.04C102.5 114.51 102.37 115.07 102.37 115.71C102.37 116.35 102.5 116.91 102.77 117.38C103.04 117.85 103.4 118.22 103.87 118.48C104.34 118.74 104.85 118.87 105.43 118.87C105.91 118.87 106.36 118.77 106.77 118.58C107.18 118.38 107.53 118.09 107.81 117.68L108.63 118.24C108.31 118.77 107.87 119.16 107.32 119.44C106.76 119.7 106.14 119.84 105.45 119.84ZM104.8 123.16C104.54 123.16 104.31 123.13 104.1 123.07C103.89 123.01 103.69 122.92 103.5 122.81L103.76 122.22C103.92 122.31 104.08 122.38 104.25 122.44C104.42 122.5 104.6 122.52 104.78 122.52C105.09 122.52 105.33 122.46 105.49 122.33C105.66 122.2 105.74 122.02 105.74 121.8C105.74 121.59 105.66 121.42 105.5 121.29C105.34 121.16 105.1 121.09 104.78 121.09H104.42L104.79 119.68H105.45L105.22 120.58C105.64 120.61 105.97 120.74 106.19 120.97C106.42 121.2 106.53 121.49 106.53 121.83C106.53 122.24 106.37 122.57 106.04 122.81C105.73 123.04 105.31 123.16 104.8 123.16Z" fill="#F5F4F6"/>
<path d="M113.07 119.84C112.46 119.84 111.93 119.74 111.49 119.54C111.04 119.34 110.7 119.06 110.46 118.71C110.22 118.35 110.1 117.94 110.1 117.48C110.1 117.06 110.2 116.67 110.4 116.33C110.6 115.99 110.93 115.71 111.39 115.5C111.85 115.29 112.46 115.18 113.24 115.18H116.04V116H113.27C112.49 116 111.94 116.14 111.64 116.42C111.34 116.7 111.18 117.04 111.18 117.46C111.18 117.92 111.36 118.29 111.72 118.57C112.08 118.85 112.59 118.99 113.24 118.99C113.86 118.99 114.39 118.85 114.84 118.56C115.29 118.28 115.62 117.87 115.82 117.33L116.07 118.09C115.86 118.63 115.51 119.05 115 119.37C114.48 119.68 113.84 119.84 113.07 119.84ZM115.87 119.76V117.97L115.82 117.68V114.68C115.82 113.99 115.63 113.46 115.24 113.09C114.85 112.72 114.28 112.53 113.52 112.53C112.99 112.53 112.49 112.62 112.02 112.79C111.55 112.96 111.14 113.2 110.81 113.49L110.31 112.67C110.72 112.32 111.22 112.05 111.79 111.86C112.37 111.67 112.97 111.57 113.61 111.57C114.66 111.57 115.47 111.83 116.04 112.35C116.61 112.87 116.9 113.66 116.9 114.72V119.76H115.87ZM114.71 110.29C114.47 110.29 114.26 110.24 114.08 110.14C113.89 110.04 113.73 109.92 113.58 109.78C113.43 109.64 113.28 109.52 113.14 109.41C113 109.3 112.85 109.25 112.69 109.25C112.45 109.25 112.27 109.34 112.13 109.51C111.99 109.69 111.91 109.93 111.89 110.24H111.22C111.24 109.73 111.38 109.31 111.63 109C111.88 108.69 112.21 108.54 112.61 108.54C112.85 108.54 113.06 108.59 113.25 108.7C113.44 108.81 113.61 108.93 113.76 109.07C113.91 109.21 114.05 109.33 114.19 109.43C114.33 109.53 114.48 109.58 114.63 109.58C114.87 109.58 115.06 109.5 115.2 109.33C115.34 109.16 115.42 108.93 115.43 108.63H116.1C116.09 109.12 115.96 109.53 115.7 109.84C115.44 110.13 115.11 110.29 114.71 110.29Z" fill="#F5F4F6"/>
<path d="M123.21 119.84C122.43 119.84 121.72 119.66 121.1 119.31C120.48 118.95 119.98 118.47 119.62 117.84C119.26 117.22 119.08 116.5 119.08 115.7C119.08 114.89 119.26 114.17 119.62 113.55C119.98 112.93 120.47 112.45 121.09 112.1C121.71 111.75 122.41 111.57 123.21 111.57C124.01 111.57 124.73 111.75 125.35 112.1C125.97 112.45 126.46 112.93 126.82 113.55C127.18 114.17 127.35 114.88 127.35 115.7C127.35 116.5 127.17 117.22 126.82 117.84C126.46 118.46 125.97 118.95 125.34 119.31C124.71 119.66 124 119.84 123.21 119.84ZM123.21 118.87C123.8 118.87 124.32 118.74 124.77 118.48C125.22 118.22 125.58 117.85 125.84 117.37C126.1 116.89 126.23 116.34 126.23 115.71C126.23 115.07 126.1 114.51 125.84 114.04C125.58 113.57 125.22 113.2 124.77 112.93C124.32 112.67 123.8 112.54 123.22 112.54C122.64 112.54 122.13 112.67 121.67 112.93C121.21 113.19 120.86 113.56 120.59 114.04C120.32 114.51 120.19 115.07 120.19 115.71C120.19 116.34 120.32 116.89 120.59 117.37C120.86 117.85 121.22 118.22 121.67 118.48C122.12 118.74 122.64 118.87 123.21 118.87Z" fill="#F5F4F6"/>
<path d="M137.09 119.84C136.24 119.84 135.5 119.66 134.86 119.31C134.22 118.95 133.72 118.47 133.36 117.84C133 117.22 132.82 116.5 132.82 115.7C132.82 114.9 132.99 114.19 133.34 113.57C133.69 112.95 134.16 112.46 134.76 112.11C135.36 111.75 136.04 111.58 136.79 111.58C137.55 111.58 138.23 111.75 138.82 112.1C139.41 112.45 139.88 112.93 140.22 113.55C140.56 114.17 140.73 114.89 140.73 115.71C140.73 115.76 140.73 115.82 140.72 115.87C140.72 115.93 140.71 115.99 140.71 116.05H133.65V115.23H140.13L139.7 115.55C139.7 114.96 139.57 114.44 139.32 113.98C139.07 113.52 138.72 113.16 138.29 112.91C137.86 112.65 137.36 112.52 136.79 112.52C136.23 112.52 135.73 112.65 135.29 112.91C134.85 113.17 134.5 113.53 134.25 113.99C134 114.45 133.88 114.99 133.88 115.58V115.75C133.88 116.37 134.02 116.91 134.29 117.38C134.56 117.85 134.94 118.21 135.43 118.48C135.92 118.75 136.48 118.87 137.11 118.87C137.61 118.87 138.07 118.78 138.49 118.61C138.91 118.44 139.29 118.17 139.6 117.81L140.22 118.52C139.86 118.95 139.41 119.28 138.87 119.51C138.33 119.74 137.74 119.84 137.09 119.84Z" fill="#F5F4F6"/>
<path d="M146.21 119.84C145.44 119.84 144.74 119.67 144.13 119.31C143.52 118.95 143.04 118.47 142.68 117.85C142.33 117.23 142.15 116.51 142.15 115.69C142.15 114.87 142.32 114.14 142.68 113.53C143.04 112.92 143.51 112.43 144.13 112.08C144.74 111.74 145.44 111.56 146.21 111.56C146.92 111.56 147.56 111.72 148.12 112.04C148.68 112.36 149.13 112.83 149.46 113.44C149.79 114.05 149.96 114.8 149.96 115.69C149.96 116.57 149.79 117.31 149.47 117.93C149.14 118.55 148.69 119.02 148.13 119.35C147.57 119.68 146.93 119.84 146.21 119.84ZM146.29 118.87C146.87 118.87 147.38 118.74 147.84 118.48C148.3 118.22 148.66 117.85 148.92 117.37C149.18 116.89 149.31 116.34 149.31 115.71C149.31 115.07 149.18 114.51 148.92 114.04C148.66 113.57 148.3 113.2 147.84 112.93C147.38 112.67 146.86 112.54 146.29 112.54C145.72 112.54 145.21 112.67 144.76 112.93C144.31 113.19 143.95 113.56 143.68 114.04C143.41 114.51 143.28 115.07 143.28 115.71C143.28 116.34 143.41 116.89 143.68 117.37C143.95 117.85 144.31 118.22 144.76 118.48C145.21 118.74 145.72 118.87 146.29 118.87ZM149.35 119.76V117.32L149.46 115.68L149.31 114.04V108.29H150.41V119.76H149.35Z" fill="#F5F4F6"/>
<path d="M156.81 119.84C156.12 119.84 155.52 119.71 155 119.45C154.48 119.19 154.08 118.81 153.8 118.29C153.52 117.78 153.38 117.13 153.38 116.36V111.65H154.48V116.24C154.48 117.11 154.69 117.76 155.12 118.2C155.55 118.64 156.15 118.86 156.92 118.86C157.49 118.86 157.98 118.74 158.4 118.51C158.82 118.28 159.14 117.94 159.36 117.5C159.58 117.06 159.69 116.53 159.69 115.91V111.66H160.79V119.78H159.74V117.55L159.91 117.95C159.65 118.55 159.25 119.01 158.71 119.35C158.17 119.69 157.53 119.84 156.81 119.84Z" fill="#F5F4F6"/>
<path d="M167.21 119.84C166.41 119.84 165.69 119.66 165.05 119.31C164.42 118.95 163.92 118.47 163.56 117.84C163.2 117.22 163.02 116.5 163.02 115.7C163.02 114.89 163.2 114.17 163.56 113.55C163.92 112.93 164.42 112.45 165.05 112.1C165.68 111.75 166.4 111.57 167.21 111.57C167.9 111.57 168.52 111.7 169.08 111.97C169.64 112.24 170.07 112.64 170.39 113.18L169.57 113.74C169.29 113.33 168.95 113.02 168.53 112.83C168.12 112.63 167.67 112.54 167.19 112.54C166.61 112.54 166.09 112.67 165.63 112.93C165.17 113.19 164.8 113.56 164.53 114.04C164.26 114.51 164.13 115.07 164.13 115.71C164.13 116.35 164.26 116.91 164.53 117.38C164.8 117.85 165.16 118.22 165.63 118.48C166.1 118.74 166.61 118.87 167.19 118.87C167.67 118.87 168.12 118.77 168.53 118.58C168.94 118.38 169.29 118.09 169.57 117.68L170.39 118.24C170.07 118.77 169.63 119.16 169.08 119.44C168.53 119.7 167.91 119.84 167.21 119.84Z" fill="#F5F4F6"/>
<path d="M174.84 119.84C174.23 119.84 173.7 119.74 173.26 119.54C172.81 119.34 172.47 119.06 172.23 118.71C171.99 118.35 171.87 117.94 171.87 117.48C171.87 117.06 171.97 116.67 172.17 116.33C172.37 115.99 172.7 115.71 173.16 115.5C173.62 115.29 174.23 115.18 175.01 115.18H177.81V116H175.04C174.26 116 173.71 116.14 173.41 116.42C173.11 116.7 172.95 117.04 172.95 117.46C172.95 117.92 173.13 118.29 173.49 118.57C173.85 118.85 174.36 118.99 175.01 118.99C175.63 118.99 176.16 118.85 176.61 118.56C177.06 118.28 177.39 117.87 177.59 117.33L177.84 118.09C177.63 118.63 177.28 119.05 176.77 119.37C176.25 119.68 175.61 119.84 174.84 119.84ZM177.63 119.76V117.97L177.58 117.68V114.68C177.58 113.99 177.39 113.46 177 113.09C176.61 112.72 176.04 112.53 175.28 112.53C174.75 112.53 174.25 112.62 173.78 112.79C173.31 112.96 172.9 113.2 172.57 113.49L172.07 112.67C172.48 112.32 172.98 112.05 173.55 111.86C174.13 111.67 174.73 111.57 175.37 111.57C176.42 111.57 177.23 111.83 177.8 112.35C178.37 112.87 178.66 113.66 178.66 114.72V119.76H177.63Z" fill="#F5F4F6"/>
<path d="M185.04 119.84C184.24 119.84 183.52 119.66 182.88 119.31C182.25 118.95 181.75 118.47 181.39 117.84C181.03 117.22 180.85 116.5 180.85 115.7C180.85 114.89 181.03 114.17 181.39 113.55C181.75 112.93 182.25 112.45 182.88 112.1C183.51 111.75 184.23 111.57 185.04 111.57C185.73 111.57 186.35 111.7 186.91 111.97C187.47 112.24 187.9 112.64 188.22 113.18L187.4 113.74C187.12 113.33 186.78 113.02 186.36 112.83C185.95 112.63 185.5 112.54 185.02 112.54C184.44 112.54 183.92 112.67 183.46 112.93C183 113.19 182.63 113.56 182.36 114.04C182.09 114.51 181.96 115.07 181.96 115.71C181.96 116.35 182.09 116.91 182.36 117.38C182.63 117.85 182.99 118.22 183.46 118.48C183.93 118.74 184.44 118.87 185.02 118.87C185.5 118.87 185.95 118.77 186.36 118.58C186.77 118.38 187.12 118.09 187.4 117.68L188.22 118.24C187.9 118.77 187.46 119.16 186.91 119.44C186.35 119.7 185.73 119.84 185.04 119.84Z" fill="#F5F4F6"/>
<path d="M190.8 109.85C190.57 109.85 190.38 109.77 190.23 109.62C190.08 109.47 190 109.28 190 109.06C190 108.84 190.08 108.66 190.23 108.51C190.38 108.36 190.58 108.29 190.8 108.29C191.02 108.29 191.22 108.36 191.37 108.51C191.53 108.65 191.6 108.84 191.6 109.05C191.6 109.28 191.52 109.47 191.38 109.62C191.24 109.77 191.04 109.85 190.8 109.85ZM190.25 119.76V111.64H191.35V119.76H190.25Z" fill="#F5F4F6"/>
<path d="M197.71 119.84C196.93 119.84 196.22 119.66 195.6 119.31C194.98 118.95 194.48 118.47 194.12 117.84C193.76 117.22 193.58 116.5 193.58 115.7C193.58 114.89 193.76 114.17 194.12 113.55C194.48 112.93 194.97 112.45 195.59 112.1C196.21 111.75 196.91 111.57 197.71 111.57C198.51 111.57 199.23 111.75 199.85 112.1C200.47 112.45 200.96 112.93 201.32 113.55C201.68 114.17 201.85 114.88 201.85 115.7C201.85 116.5 201.67 117.22 201.32 117.84C200.96 118.46 200.47 118.95 199.84 119.31C199.22 119.66 198.5 119.84 197.71 119.84ZM197.71 118.87C198.3 118.87 198.82 118.74 199.27 118.48C199.72 118.22 200.08 117.85 200.34 117.37C200.6 116.89 200.73 116.34 200.73 115.71C200.73 115.07 200.6 114.51 200.34 114.04C200.08 113.57 199.72 113.2 199.27 112.93C198.82 112.67 198.3 112.54 197.72 112.54C197.14 112.54 196.63 112.67 196.17 112.93C195.71 113.19 195.36 113.56 195.09 114.04C194.82 114.51 194.69 115.07 194.69 115.71C194.69 116.34 194.82 116.89 195.09 117.37C195.36 117.85 195.72 118.22 196.17 118.48C196.62 118.74 197.14 118.87 197.71 118.87Z" fill="#F5F4F6"/>
<path d="M208.24 111.57C208.9 111.57 209.48 111.7 209.98 111.95C210.48 112.2 210.87 112.59 211.15 113.1C211.43 113.62 211.58 114.27 211.58 115.05V119.76H210.48V115.15C210.48 114.29 210.27 113.65 209.84 113.21C209.41 112.77 208.81 112.55 208.04 112.55C207.46 112.55 206.96 112.67 206.53 112.9C206.1 113.13 205.77 113.47 205.54 113.9C205.31 114.34 205.19 114.87 205.19 115.48V119.75H204.09V111.63H205.14V113.86L204.97 113.44C205.23 112.85 205.64 112.39 206.21 112.06C206.78 111.74 207.45 111.57 208.24 111.57Z" fill="#F5F4F6"/>
<path d="M216.83 119.84C216.22 119.84 215.69 119.74 215.25 119.54C214.8 119.34 214.46 119.06 214.22 118.71C213.98 118.35 213.86 117.94 213.86 117.48C213.86 117.06 213.96 116.67 214.16 116.33C214.36 115.99 214.69 115.71 215.15 115.5C215.61 115.29 216.22 115.18 217 115.18H219.8V116H217.03C216.25 116 215.7 116.14 215.4 116.42C215.1 116.7 214.94 117.04 214.94 117.46C214.94 117.92 215.12 118.29 215.48 118.57C215.84 118.85 216.35 118.99 217 118.99C217.62 118.99 218.15 118.85 218.6 118.56C219.05 118.28 219.38 117.87 219.58 117.33L219.83 118.09C219.62 118.63 219.27 119.05 218.76 119.37C218.25 119.68 217.6 119.84 216.83 119.84ZM219.63 119.76V117.97L219.58 117.68V114.68C219.58 113.99 219.39 113.46 219 113.09C218.61 112.72 218.04 112.53 217.28 112.53C216.75 112.53 216.25 112.62 215.78 112.79C215.31 112.96 214.9 113.2 214.57 113.49L214.07 112.67C214.48 112.32 214.98 112.05 215.55 111.86C216.13 111.67 216.73 111.57 217.37 111.57C218.42 111.57 219.23 111.83 219.8 112.35C220.37 112.87 220.66 113.66 220.66 114.72V119.76H219.63Z" fill="#F5F4F6"/>
<path d="M223.66 119.76V108.29H224.76V119.76H223.66Z" fill="#F5F4F6"/>
<path d="M43.19 131.11V130.2H48.21V131.11H43.19ZM44.64 138.31V129.18C44.64 128.46 44.85 127.88 45.27 127.43C45.69 126.99 46.3 126.76 47.09 126.76C47.4 126.76 47.7 126.8 47.99 126.88C48.28 126.96 48.52 127.09 48.72 127.27L48.35 128.09C48.19 127.96 48.02 127.86 47.81 127.79C47.6 127.72 47.38 127.69 47.14 127.69C46.68 127.69 46.32 127.82 46.07 128.08C45.82 128.34 45.7 128.72 45.7 129.22V130.46L45.73 130.97V138.31H44.64Z" fill="#F5F4F6"/>
<path d="M52.86 138.39C52.08 138.39 51.37 138.21 50.75 137.86C50.13 137.5 49.63 137.02 49.27 136.39C48.91 135.77 48.73 135.05 48.73 134.25C48.73 133.44 48.91 132.72 49.27 132.1C49.63 131.48 50.12 131 50.74 130.65C51.36 130.3 52.06 130.12 52.86 130.12C53.66 130.12 54.38 130.3 55 130.65C55.62 131 56.11 131.48 56.47 132.1C56.83 132.72 57 133.43 57 134.25C57 135.05 56.82 135.77 56.47 136.39C56.11 137.01 55.62 137.5 54.99 137.86C54.37 138.21 53.66 138.39 52.86 138.39ZM52.86 137.41C53.45 137.41 53.97 137.28 54.42 137.02C54.87 136.76 55.23 136.39 55.49 135.91C55.75 135.43 55.88 134.88 55.88 134.25C55.88 133.61 55.75 133.05 55.49 132.58C55.23 132.11 54.87 131.74 54.42 131.47C53.97 131.21 53.45 131.08 52.87 131.08C52.29 131.08 51.78 131.21 51.32 131.47C50.86 131.73 50.51 132.1 50.24 132.58C49.97 133.05 49.84 133.61 49.84 134.25C49.84 134.88 49.97 135.43 50.24 135.91C50.51 136.39 50.87 136.76 51.32 137.02C51.77 137.28 52.3 137.41 52.86 137.41Z" fill="#F5F4F6"/>
<path d="M62.62 138.39C61.82 138.39 61.1 138.21 60.46 137.86C59.83 137.5 59.33 137.02 58.97 136.39C58.61 135.77 58.43 135.05 58.43 134.25C58.43 133.44 58.61 132.72 58.97 132.1C59.33 131.48 59.83 131 60.46 130.65C61.09 130.3 61.81 130.12 62.62 130.12C63.31 130.12 63.93 130.25 64.49 130.52C65.05 130.79 65.48 131.19 65.8 131.73L64.98 132.29C64.7 131.88 64.36 131.57 63.94 131.38C63.53 131.18 63.08 131.09 62.6 131.09C62.02 131.09 61.5 131.22 61.04 131.48C60.58 131.74 60.21 132.11 59.94 132.59C59.67 133.06 59.54 133.62 59.54 134.26C59.54 134.9 59.67 135.46 59.94 135.93C60.21 136.4 60.57 136.77 61.04 137.03C61.51 137.29 62.02 137.42 62.6 137.42C63.08 137.42 63.53 137.32 63.94 137.13C64.35 136.93 64.7 136.64 64.98 136.23L65.8 136.79C65.48 137.32 65.04 137.71 64.49 137.99C63.93 138.25 63.31 138.39 62.62 138.39Z" fill="#F5F4F6"/>
<path d="M70.24 138.39C69.63 138.39 69.1 138.29 68.66 138.09C68.21 137.89 67.87 137.61 67.63 137.26C67.39 136.9 67.27 136.49 67.27 136.03C67.27 135.61 67.37 135.22 67.57 134.88C67.77 134.54 68.1 134.26 68.56 134.05C69.02 133.84 69.63 133.73 70.41 133.73H73.21V134.55H70.44C69.66 134.55 69.11 134.69 68.81 134.97C68.51 135.25 68.35 135.59 68.35 136.01C68.35 136.47 68.53 136.84 68.89 137.12C69.25 137.4 69.76 137.54 70.41 137.54C71.03 137.54 71.56 137.4 72.01 137.11C72.46 136.83 72.79 136.42 72.99 135.88L73.24 136.64C73.03 137.18 72.68 137.6 72.17 137.92C71.65 138.23 71.01 138.39 70.24 138.39ZM73.03 138.31V136.52L72.98 136.23V133.23C72.98 132.54 72.79 132.01 72.4 131.64C72.01 131.27 71.44 131.08 70.68 131.08C70.15 131.08 69.65 131.17 69.18 131.34C68.71 131.51 68.3 131.75 67.97 132.04L67.47 131.22C67.88 130.87 68.38 130.6 68.95 130.41C69.53 130.22 70.13 130.12 70.77 130.12C71.82 130.12 72.63 130.38 73.2 130.9C73.77 131.42 74.06 132.21 74.06 133.27V138.31H73.03Z" fill="#F5F4F6"/>
<path d="M80.3 138.39C79.53 138.39 78.83 138.22 78.22 137.86C77.61 137.5 77.13 137.02 76.77 136.4C76.42 135.78 76.24 135.06 76.24 134.24C76.24 133.42 76.41 132.69 76.77 132.08C77.13 131.47 77.6 130.98 78.22 130.63C78.83 130.29 79.53 130.11 80.3 130.11C81.01 130.11 81.65 130.27 82.21 130.59C82.77 130.91 83.22 131.38 83.55 131.99C83.88 132.6 84.05 133.35 84.05 134.24C84.05 135.12 83.88 135.86 83.56 136.48C83.23 137.1 82.78 137.57 82.22 137.9C81.66 138.23 81.02 138.39 80.3 138.39ZM80.38 137.41C80.96 137.41 81.47 137.28 81.93 137.02C82.39 136.76 82.75 136.39 83.01 135.91C83.27 135.43 83.4 134.88 83.4 134.25C83.4 133.61 83.27 133.05 83.01 132.58C82.75 132.11 82.39 131.74 81.93 131.47C81.47 131.21 80.95 131.08 80.38 131.08C79.81 131.08 79.3 131.21 78.85 131.47C78.4 131.73 78.04 132.1 77.77 132.58C77.5 133.05 77.37 133.61 77.37 134.25C77.37 134.88 77.5 135.43 77.77 135.91C78.04 136.39 78.4 136.76 78.85 137.02C79.3 137.28 79.81 137.41 80.38 137.41ZM83.44 138.31V135.87L83.55 134.23L83.4 132.59V126.84H84.5V138.31H83.44Z" fill="#F5F4F6"/>
<path d="M89.84 138.39C89.23 138.39 88.7 138.29 88.26 138.09C87.81 137.89 87.47 137.61 87.23 137.26C86.99 136.9 86.87 136.49 86.87 136.03C86.87 135.61 86.97 135.22 87.17 134.88C87.37 134.54 87.7 134.26 88.16 134.05C88.62 133.84 89.23 133.73 90.01 133.73H92.81V134.55H90.04C89.26 134.55 88.71 134.69 88.41 134.97C88.11 135.25 87.95 135.59 87.95 136.01C87.95 136.47 88.13 136.84 88.49 137.12C88.85 137.4 89.36 137.54 90.01 137.54C90.63 137.54 91.16 137.4 91.61 137.11C92.06 136.83 92.39 136.42 92.59 135.88L92.84 136.64C92.63 137.18 92.28 137.6 91.77 137.92C91.25 138.23 90.61 138.39 89.84 138.39ZM92.63 138.31V136.52L92.58 136.23V133.23C92.58 132.54 92.39 132.01 92 131.64C91.61 131.27 91.04 131.08 90.28 131.08C89.75 131.08 89.25 131.17 88.78 131.34C88.31 131.51 87.9 131.75 87.57 132.04L87.07 131.22C87.48 130.87 87.98 130.6 88.55 130.41C89.13 130.22 89.73 130.12 90.37 130.12C91.42 130.12 92.23 130.38 92.8 130.9C93.37 131.42 93.66 132.21 93.66 133.27V138.31H92.63Z" fill="#F5F4F6"/>
<path d="M100.72 141.31V130.2H101.77V132.64L101.66 134.26L101.82 135.9V141.31H100.72ZM104.91 138.39C104.21 138.39 103.58 138.23 103.01 137.9C102.44 137.57 101.99 137.11 101.66 136.49C101.33 135.88 101.16 135.13 101.16 134.24C101.16 133.35 101.33 132.6 101.66 131.99C101.99 131.38 102.44 130.91 103 130.59C103.57 130.27 104.21 130.11 104.92 130.11C105.69 130.11 106.39 130.28 107 130.63C107.61 130.98 108.09 131.46 108.45 132.08C108.8 132.7 108.98 133.42 108.98 134.24C108.98 135.07 108.81 135.79 108.45 136.4C108.09 137.01 107.62 137.5 107 137.85C106.38 138.2 105.68 138.39 104.91 138.39ZM104.83 137.41C105.41 137.41 105.92 137.28 106.38 137.02C106.84 136.76 107.19 136.39 107.46 135.91C107.73 135.43 107.86 134.88 107.86 134.25C107.86 133.62 107.73 133.07 107.46 132.6C107.19 132.13 106.83 131.76 106.38 131.49C105.93 131.22 105.41 131.09 104.83 131.09C104.25 131.09 103.74 131.22 103.28 131.49C102.82 131.76 102.46 132.13 102.2 132.6C101.94 133.07 101.81 133.63 101.81 134.25C101.81 134.88 101.94 135.43 102.2 135.91C102.46 136.39 102.82 136.76 103.28 137.02C103.74 137.28 104.25 137.41 104.83 137.41Z" fill="#F5F4F6"/>
<path d="M113.44 138.39C112.83 138.39 112.3 138.29 111.86 138.09C111.41 137.89 111.07 137.61 110.83 137.26C110.59 136.9 110.47 136.49 110.47 136.03C110.47 135.61 110.57 135.22 110.77 134.88C110.97 134.54 111.3 134.26 111.76 134.05C112.22 133.84 112.83 133.73 113.61 133.73H116.41V134.55H113.64C112.86 134.55 112.31 134.69 112.01 134.97C111.71 135.25 111.55 135.59 111.55 136.01C111.55 136.47 111.73 136.84 112.09 137.12C112.45 137.4 112.96 137.54 113.61 137.54C114.23 137.54 114.76 137.4 115.21 137.11C115.66 136.83 115.99 136.42 116.19 135.88L116.44 136.64C116.23 137.18 115.88 137.6 115.37 137.92C114.86 138.23 114.21 138.39 113.44 138.39ZM116.24 138.31V136.52L116.19 136.23V133.23C116.19 132.54 116 132.01 115.61 131.64C115.22 131.27 114.65 131.08 113.89 131.08C113.36 131.08 112.86 131.17 112.39 131.34C111.92 131.51 111.51 131.75 111.18 132.04L110.68 131.22C111.09 130.87 111.59 130.6 112.16 130.41C112.74 130.22 113.34 130.12 113.98 130.12C115.03 130.12 115.84 130.38 116.41 130.9C116.98 131.42 117.27 132.21 117.27 133.27V138.31H116.24Z" fill="#F5F4F6"/>
<path d="M120.27 138.31V130.19H121.32V132.4L121.21 132.01C121.44 131.39 121.82 130.92 122.35 130.6C122.89 130.27 123.55 130.11 124.34 130.11V131.18C124.3 131.18 124.26 131.18 124.22 131.17C124.18 131.17 124.14 131.16 124.1 131.16C123.24 131.16 122.58 131.42 122.09 131.94C121.6 132.46 121.36 133.2 121.36 134.16V138.3H120.27V138.31Z" fill="#F5F4F6"/>
<path d="M128.03 138.39C127.42 138.39 126.89 138.29 126.45 138.09C126 137.89 125.66 137.61 125.42 137.26C125.18 136.9 125.06 136.49 125.06 136.03C125.06 135.61 125.16 135.22 125.36 134.88C125.56 134.54 125.89 134.26 126.35 134.05C126.81 133.84 127.42 133.73 128.2 133.73H131V134.55H128.23C127.45 134.55 126.9 134.69 126.6 134.97C126.3 135.25 126.14 135.59 126.14 136.01C126.14 136.47 126.32 136.84 126.68 137.12C127.04 137.4 127.55 137.54 128.2 137.54C128.82 137.54 129.35 137.4 129.8 137.11C130.25 136.83 130.58 136.42 130.78 135.88L131.03 136.64C130.82 137.18 130.47 137.6 129.96 137.92C129.45 138.23 128.8 138.39 128.03 138.39ZM130.83 138.31V136.52L130.78 136.23V133.23C130.78 132.54 130.59 132.01 130.2 131.64C129.81 131.27 129.24 131.08 128.48 131.08C127.95 131.08 127.45 131.17 126.98 131.34C126.51 131.51 126.1 131.75 125.77 132.04L125.27 131.22C125.68 130.87 126.18 130.6 126.75 130.41C127.33 130.22 127.93 130.12 128.57 130.12C129.62 130.12 130.43 130.38 131 130.9C131.57 131.42 131.86 132.21 131.86 133.27V138.31H130.83Z" fill="#F5F4F6"/>
<path d="M142.28 138.39C141.48 138.39 140.76 138.21 140.12 137.86C139.49 137.5 138.99 137.02 138.63 136.39C138.27 135.77 138.09 135.05 138.09 134.25C138.09 133.44 138.27 132.72 138.63 132.1C138.99 131.48 139.49 131 140.12 130.65C140.75 130.3 141.47 130.12 142.28 130.12C142.97 130.12 143.59 130.25 144.15 130.52C144.71 130.79 145.14 131.19 145.46 131.73L144.64 132.29C144.36 131.88 144.02 131.57 143.6 131.38C143.19 131.18 142.74 131.09 142.26 131.09C141.68 131.09 141.16 131.22 140.7 131.48C140.24 131.74 139.87 132.11 139.6 132.59C139.33 133.06 139.2 133.62 139.2 134.26C139.2 134.9 139.33 135.46 139.6 135.93C139.87 136.4 140.23 136.77 140.7 137.03C141.17 137.29 141.68 137.42 142.26 137.42C142.74 137.42 143.19 137.32 143.6 137.13C144.01 136.93 144.36 136.64 144.64 136.23L145.46 136.79C145.14 137.32 144.7 137.71 144.15 137.99C143.6 138.25 142.97 138.39 142.28 138.39Z" fill="#F5F4F6"/>
<path d="M150.78 138.39C150 138.39 149.29 138.21 148.67 137.86C148.05 137.5 147.55 137.02 147.19 136.39C146.83 135.77 146.65 135.05 146.65 134.25C146.65 133.44 146.83 132.72 147.19 132.1C147.55 131.48 148.04 131 148.66 130.65C149.28 130.3 149.98 130.12 150.78 130.12C151.58 130.12 152.3 130.3 152.92 130.65C153.54 131 154.03 131.48 154.39 132.1C154.75 132.72 154.92 133.43 154.92 134.25C154.92 135.05 154.74 135.77 154.39 136.39C154.03 137.01 153.54 137.5 152.91 137.86C152.29 138.21 151.58 138.39 150.78 138.39ZM150.78 137.41C151.37 137.41 151.89 137.28 152.34 137.02C152.79 136.76 153.15 136.39 153.41 135.91C153.67 135.43 153.8 134.88 153.8 134.25C153.8 133.61 153.67 133.05 153.41 132.58C153.15 132.11 152.79 131.74 152.34 131.47C151.89 131.21 151.37 131.08 150.79 131.08C150.21 131.08 149.7 131.21 149.24 131.47C148.78 131.73 148.43 132.1 148.16 132.58C147.89 133.05 147.76 133.61 147.76 134.25C147.76 134.88 147.89 135.43 148.16 135.91C148.43 136.39 148.79 136.76 149.24 137.02C149.69 137.28 150.22 137.41 150.78 137.41Z" fill="#F5F4F6"/>
<path d="M161.31 130.12C161.97 130.12 162.55 130.25 163.05 130.5C163.55 130.75 163.94 131.14 164.22 131.65C164.5 132.17 164.65 132.82 164.65 133.6V138.31H163.55V133.7C163.55 132.84 163.34 132.2 162.91 131.76C162.48 131.32 161.88 131.1 161.11 131.1C160.53 131.1 160.03 131.22 159.6 131.45C159.17 131.68 158.84 132.02 158.61 132.45C158.38 132.89 158.26 133.42 158.26 134.03V138.3H157.16V130.18H158.21V132.41L158.04 131.99C158.3 131.4 158.71 130.94 159.28 130.61C159.85 130.29 160.53 130.12 161.31 130.12Z" fill="#F5F4F6"/>
<path d="M170.99 138.39C170.19 138.39 169.47 138.21 168.83 137.86C168.2 137.5 167.7 137.02 167.34 136.39C166.98 135.77 166.8 135.05 166.8 134.25C166.8 133.44 166.98 132.72 167.34 132.1C167.7 131.48 168.2 131 168.83 130.65C169.46 130.3 170.18 130.12 170.99 130.12C171.68 130.12 172.3 130.25 172.86 130.52C173.42 130.79 173.85 131.19 174.17 131.73L173.35 132.29C173.07 131.88 172.73 131.57 172.31 131.38C171.9 131.18 171.45 131.09 170.97 131.09C170.39 131.09 169.87 131.22 169.41 131.48C168.95 131.74 168.58 132.11 168.31 132.59C168.04 133.06 167.91 133.62 167.91 134.26C167.91 134.9 168.04 135.46 168.31 135.93C168.58 136.4 168.94 136.77 169.41 137.03C169.88 137.29 170.39 137.42 170.97 137.42C171.45 137.42 171.9 137.32 172.31 137.13C172.72 136.93 173.07 136.64 173.35 136.23L174.17 136.79C173.85 137.32 173.41 137.71 172.86 137.99C172.3 138.25 171.68 138.39 170.99 138.39Z" fill="#F5F4F6"/>
<path d="M179.67 138.39C178.98 138.39 178.38 138.26 177.86 138C177.34 137.74 176.94 137.36 176.66 136.84C176.38 136.33 176.24 135.68 176.24 134.91V130.2H177.34V134.79C177.34 135.66 177.55 136.31 177.98 136.75C178.41 137.19 179.01 137.41 179.78 137.41C180.35 137.41 180.84 137.29 181.26 137.06C181.68 136.83 182 136.49 182.22 136.05C182.44 135.61 182.55 135.08 182.55 134.46V130.21H183.65V138.33H182.6V136.1L182.77 136.5C182.51 137.1 182.11 137.56 181.57 137.9C181.03 138.24 180.39 138.39 179.67 138.39Z" fill="#F5F4F6"/>
<path d="M186.71 138.31V130.19H187.76V132.4L187.65 132.01C187.88 131.39 188.26 130.92 188.79 130.6C189.33 130.27 189.99 130.11 190.78 130.11V131.18C190.74 131.18 190.7 131.18 190.66 131.17C190.62 131.17 190.58 131.16 190.54 131.16C189.68 131.16 189.02 131.42 188.53 131.94C188.04 132.46 187.8 133.2 187.8 134.16V138.3H186.71V138.31Z" fill="#F5F4F6"/>
<path d="M195.05 138.39C194.38 138.39 193.75 138.3 193.15 138.1C192.55 137.91 192.08 137.67 191.74 137.38L192.23 136.51C192.56 136.76 192.98 136.97 193.5 137.15C194.01 137.33 194.56 137.42 195.12 137.42C195.89 137.42 196.45 137.3 196.79 137.06C197.13 136.82 197.3 136.5 197.3 136.09C197.3 135.79 197.2 135.56 197.01 135.39C196.82 135.22 196.57 135.09 196.26 135C195.95 134.91 195.61 134.84 195.22 134.78C194.84 134.72 194.46 134.65 194.08 134.56C193.7 134.48 193.36 134.36 193.05 134.2C192.74 134.04 192.49 133.82 192.3 133.54C192.11 133.26 192.01 132.89 192.01 132.43C192.01 131.99 192.13 131.59 192.38 131.24C192.63 130.89 192.99 130.61 193.47 130.41C193.95 130.21 194.53 130.11 195.22 130.11C195.75 130.11 196.27 130.18 196.8 130.32C197.33 130.46 197.76 130.64 198.1 130.87L197.62 131.75C197.26 131.5 196.87 131.33 196.46 131.22C196.05 131.11 195.63 131.06 195.22 131.06C194.49 131.06 193.95 131.19 193.6 131.44C193.26 131.69 193.08 132.02 193.08 132.41C193.08 132.72 193.18 132.96 193.37 133.14C193.56 133.31 193.81 133.45 194.13 133.55C194.44 133.65 194.79 133.73 195.17 133.79C195.55 133.85 195.92 133.93 196.3 134.01C196.68 134.1 197.02 134.22 197.34 134.37C197.66 134.52 197.91 134.73 198.1 135C198.29 135.27 198.39 135.63 198.39 136.07C198.39 136.54 198.26 136.95 198 137.3C197.74 137.65 197.36 137.91 196.86 138.1C196.37 138.29 195.76 138.39 195.05 138.39Z" fill="#F5F4F6"/>
<path d="M203.72 138.39C202.94 138.39 202.23 138.21 201.61 137.86C200.99 137.5 200.49 137.02 200.13 136.39C199.77 135.77 199.59 135.05 199.59 134.25C199.59 133.44 199.77 132.72 200.13 132.1C200.49 131.48 200.98 131 201.6 130.65C202.22 130.3 202.92 130.12 203.72 130.12C204.52 130.12 205.24 130.3 205.86 130.65C206.48 131 206.97 131.48 207.33 132.1C207.69 132.72 207.86 133.43 207.86 134.25C207.86 135.05 207.68 135.77 207.33 136.39C206.97 137.01 206.48 137.5 205.85 137.86C205.23 138.21 204.52 138.39 203.72 138.39ZM203.72 137.41C204.31 137.41 204.83 137.28 205.28 137.02C205.73 136.76 206.09 136.39 206.35 135.91C206.61 135.43 206.74 134.88 206.74 134.25C206.74 133.61 206.61 133.05 206.35 132.58C206.09 132.11 205.73 131.74 205.28 131.47C204.83 131.21 204.31 131.08 203.73 131.08C203.15 131.08 202.64 131.21 202.18 131.47C201.72 131.73 201.37 132.1 201.1 132.58C200.83 133.05 200.7 133.61 200.7 134.25C200.7 134.88 200.83 135.43 201.1 135.91C201.37 136.39 201.73 136.76 202.18 137.02C202.63 137.28 203.16 137.41 203.72 137.41Z" fill="#F5F4F6"/>
<path d="M212.29 138.39C211.62 138.39 210.99 138.3 210.39 138.1C209.79 137.91 209.32 137.67 208.98 137.38L209.47 136.51C209.8 136.76 210.22 136.97 210.74 137.15C211.25 137.33 211.8 137.42 212.36 137.42C213.13 137.42 213.69 137.3 214.03 137.06C214.37 136.82 214.54 136.5 214.54 136.09C214.54 135.79 214.44 135.56 214.25 135.39C214.06 135.22 213.81 135.09 213.5 135C213.19 134.91 212.85 134.84 212.46 134.78C212.08 134.72 211.7 134.65 211.32 134.56C210.94 134.48 210.6 134.36 210.29 134.2C209.98 134.04 209.73 133.82 209.54 133.54C209.35 133.26 209.25 132.89 209.25 132.43C209.25 131.99 209.37 131.59 209.62 131.24C209.87 130.89 210.23 130.61 210.71 130.41C211.19 130.21 211.77 130.11 212.46 130.11C212.99 130.11 213.51 130.18 214.04 130.32C214.57 130.46 215 130.64 215.34 130.87L214.86 131.75C214.5 131.5 214.11 131.33 213.7 131.22C213.29 131.11 212.87 131.06 212.46 131.06C211.73 131.06 211.19 131.19 210.84 131.44C210.5 131.69 210.32 132.02 210.32 132.41C210.32 132.72 210.42 132.96 210.61 133.14C210.8 133.31 211.05 133.45 211.37 133.55C211.68 133.65 212.03 133.73 212.41 133.79C212.79 133.85 213.16 133.93 213.54 134.01C213.92 134.1 214.26 134.22 214.58 134.37C214.9 134.52 215.15 134.73 215.34 135C215.53 135.27 215.63 135.63 215.63 136.07C215.63 136.54 215.5 136.95 215.24 137.3C214.98 137.65 214.6 137.91 214.1 138.1C213.6 138.29 213 138.39 212.29 138.39Z" fill="#F5F4F6"/>
<path d="M55.05 20.8501L45.1 21.04V17.9102C45.1 13.5302 41.52 9.9502 37.14 9.9502H27.54C23.35 9.9502 19.93 13.3701 19.93 17.5601V33.1304H51.59V43.0801H36.5C30.13 43.0801 24.12 40.2903 19.94 35.5703V88.8901H9.98999V43.1304H0V33.1304H17.65L15.69 30.6001C12.28 26.2101 10.44 20.81 10.44 15.25V12.8301C10.44 9.80008 11.62 6.87004 13.81 4.79004C16.67 2.08004 20.9 0 25.61 0H37.15C47 0 55.06 8.0099 55.06 17.8999V19.3901L55.05 20.8501Z" fill="#F5F4F6"/>
<path d="M161.8 78.9302C168.81 78.9302 174.63 73.7603 175.67 67.0503L184.92 71.1802C182.19 81.3702 172.84 88.8804 161.8 88.8804H151.16C137.88 88.8804 127.15 78.0904 127.15 64.8604V48.3003C127.15 35.0303 137.89 24.2402 151.16 24.2402H161.8C172.89 24.2402 182.28 31.8503 184.97 42.0903L175.72 46.1699C174.68 39.4099 168.81 34.1899 161.8 34.1899H151.16C143.4 34.1899 137.09 40.5501 137.09 48.3101V64.8701C137.09 72.6301 143.4 78.9399 151.16 78.9399L161.8 78.9302Z" fill="#F5F4F6"/>
<path d="M220.08 88.8701C206.82 88.8701 196.04 78.0801 196.04 64.8301V48.2803C196.04 35.0203 206.83 24.2402 220.08 24.2402H230.7C243.95 24.2402 254.74 35.0303 254.74 48.2803V64.8301C254.74 78.0901 243.95 88.8701 230.7 88.8701H220.08ZM205.99 48.2803V64.8301C205.99 72.6001 212.31 78.9302 220.09 78.9302H230.71C238.48 78.9302 244.81 72.6101 244.81 64.8301V48.2803C244.81 40.5103 238.49 34.1802 230.71 34.1802H220.09C212.31 34.1802 205.99 40.5103 205.99 48.2803Z" fill="#F5F4F6"/>
<path d="M10.43 15.2402V45.1401L19.93 33.1201" fill="#F5F4F6"/>
<path d="M42.91 43.0703H13.77L16.93 35.52L19.93 34.6802L33.44 37.8301" fill="#F5F4F6"/>
<path d="M89.03 68.9199C95.8562 68.9199 101.39 63.3863 101.39 56.5601C101.39 49.7338 95.8562 44.2002 89.03 44.2002C82.2037 44.2002 76.67 49.7338 76.67 56.5601C76.67 63.3863 82.2037 68.9199 89.03 68.9199Z" fill="#FFF12D"/>
<path opacity="0.47" d="M89.03 75.6104C99.551 75.6104 108.08 67.0811 108.08 56.5601C108.08 46.039 99.551 37.5103 89.03 37.5103C78.5089 37.5103 69.98 46.039 69.98 56.5601C69.98 67.0811 78.5089 75.6104 89.03 75.6104Z" fill="#FFF12D"/>
<path opacity="0.36" d="M89.03 82.7202C103.478 82.7202 115.19 71.0078 115.19 56.5601C115.19 42.1123 103.478 30.3999 89.03 30.3999C74.5822 30.3999 62.87 42.1123 62.87 56.5601C62.87 71.0078 74.5822 82.7202 89.03 82.7202Z" fill="#FFF12D"/>
<path opacity="0.28" d="M89.03 89.6001C107.277 89.6001 122.07 74.8075 122.07 56.5601C122.07 38.3126 107.277 23.52 89.03 23.52C70.7825 23.52 55.99 38.3126 55.99 56.5601C55.99 74.8075 70.7825 89.6001 89.03 89.6001Z" fill="#FFF12D"/>
</svg>
