<svg width="35" height="32" viewBox="0 0 35 32" fill="none" xmlns="http://www.w3.org/2000/svg">
<path d="M31.0132 28.8049C30.2429 28.8049 29.4726 28.8148 28.7023 28.799C28.4494 28.7931 28.322 28.8601 28.2142 29.1146C27.3204 31.221 25.0192 32.3885 22.8003 31.8817C20.5658 31.3728 18.9879 29.3059 19.08 27.0121C19.1702 24.7618 20.7834 22.9 23.0159 22.468C25.1446 22.0558 27.3694 23.2609 28.224 25.314C28.3279 25.5645 28.4553 25.6039 28.6885 25.6039C30.2664 25.5961 31.8443 25.5921 33.4203 25.6039C34.2298 25.6099 34.8492 26.1779 34.9766 26.9885C35.0903 27.7182 34.6532 28.4401 33.9417 28.7004C33.7163 28.7832 33.485 28.8069 33.2478 28.8069C32.5049 28.8049 31.7581 28.8049 31.0132 28.8049Z" fill="#4F028E"/>
<path d="M3.96144 14.4015C4.75725 14.4015 5.5511 14.3916 6.34691 14.4074C6.58409 14.4113 6.68406 14.3285 6.77618 14.1116C7.57787 12.2083 9.5184 11.0328 11.5432 11.2064C13.619 11.3819 15.3302 12.8769 15.7986 14.9182C16.3494 17.3263 14.9911 19.7739 12.6722 20.549C10.3299 21.332 7.76801 20.194 6.79186 17.9141C6.67622 17.6439 6.54489 17.5808 6.27439 17.5827C4.73373 17.5965 3.19307 17.5985 1.65241 17.5867C0.364611 17.5768 -0.409639 16.2732 0.225442 15.1943C0.525341 14.6855 0.98009 14.4094 1.57597 14.4054C2.37178 14.3995 3.16563 14.4034 3.96144 14.4015Z" fill="#4F028E"/>
<path d="M30.241 -5.11823e-06C32.9028 0.0236621 35.0237 2.1754 35.0002 4.82613C34.9767 7.47685 32.795 9.63451 30.1744 9.59901C27.5478 9.56351 25.4348 7.39402 25.4642 4.76104C25.4936 2.09651 27.6203 -0.0236723 30.241 -5.11823e-06Z" fill="#4F028E"/>
<path d="M11.1258 6.39408C7.97198 6.39408 4.81618 6.39802 1.66234 6.39211C0.394139 6.39013 -0.384031 5.12394 0.204006 4.03525C0.443142 3.59346 0.809685 3.31735 1.3056 3.22859C1.41536 3.20887 1.52709 3.18915 1.63686 3.18915C7.97002 3.18718 14.3051 3.18323 20.6383 3.19112C21.5909 3.19309 22.2848 3.90902 22.2731 4.81824C22.2613 5.72351 21.5537 6.39211 20.5893 6.39408C17.4355 6.39605 14.2816 6.39408 11.1258 6.39408Z" fill="#4F028E"/>
<path d="M7.96022 28.8049C5.88837 28.8049 3.81456 28.8069 1.7427 28.803C0.872409 28.801 0.223607 28.3197 0.0569964 27.5644C-0.168418 26.5447 0.552908 25.6079 1.59765 25.6C3.24808 25.5882 4.89851 25.5961 6.55089 25.5961C9.13238 25.5961 11.7139 25.5941 14.2953 25.598C15.0284 25.6 15.64 26.0516 15.8458 26.7183C16.0457 27.3671 15.8125 28.0772 15.2656 28.4854C14.9324 28.7339 14.5482 28.8069 14.1425 28.8049C12.0804 28.803 10.0203 28.8049 7.96022 28.8049Z" fill="#4F028E"/>
<path d="M27.0459 17.5906C24.9466 17.5906 22.8473 17.5965 20.7461 17.5887C19.6347 17.5847 18.9016 16.6696 19.1407 15.6164C19.2897 14.9596 19.8699 14.4587 20.5403 14.4113C20.6265 14.4054 20.7147 14.4034 20.801 14.4034C24.9623 14.4034 29.1256 14.4015 33.287 14.4034C34.1827 14.4034 34.8061 14.8906 34.959 15.6894C35.1432 16.6518 34.465 17.5315 33.4908 17.5847C33.3046 17.5946 33.1184 17.5906 32.9322 17.5906C30.9721 17.5906 29.008 17.5906 27.0459 17.5906Z" fill="#4F028E"/>
</svg>
