<svg width="95" height="95" viewBox="0 0 95 95" fill="none" xmlns="http://www.w3.org/2000/svg">
<path d="M47.5 65.2703C57.3143 65.2703 65.2703 57.3143 65.2703 47.5C65.2703 37.6857 57.3143 29.7297 47.5 29.7297C37.6858 29.7297 29.7297 37.6857 29.7297 47.5C29.7297 57.3143 37.6858 65.2703 47.5 65.2703Z" fill="#FFF12D"/>
<path opacity="0.47" d="M47.5001 74.8885C62.6263 74.8885 74.8886 62.6263 74.8886 47.5C74.8886 32.3738 62.6263 20.1115 47.5001 20.1115C32.3738 20.1115 20.1116 32.3738 20.1116 47.5C20.1116 62.6263 32.3738 74.8885 47.5001 74.8885Z" fill="#FFF12D"/>
<path opacity="0.36" d="M47.5 85.1055C68.2689 85.1055 85.1054 68.2689 85.1054 47.5C85.1054 26.7311 68.2689 9.89458 47.5 9.89458C26.7311 9.89458 9.89453 26.7311 9.89453 47.5C9.89453 68.2689 26.7311 85.1055 47.5 85.1055Z" fill="#FFF12D"/>
<path opacity="0.28" d="M47.5 95C73.7335 95 95 73.7335 95 47.5C95 21.2665 73.7335 0 47.5 0C21.2665 0 0 21.2665 0 47.5C0 73.7335 21.2665 95 47.5 95Z" fill="#FFF12D"/>
</svg>
